G04 #@! TF.GenerationSoftware,KiCad,Pcbnew,5.1.5-52549c5~84~ubuntu18.04.1*
G04 #@! TF.CreationDate,2020-03-23T11:10:23+00:00*
G04 #@! TF.ProjectId,o2-controller,6f322d63-6f6e-4747-926f-6c6c65722e6b,rev?*
G04 #@! TF.SameCoordinates,Original*
G04 #@! TF.FileFunction,Copper,L1,Top*
G04 #@! TF.FilePolarity,Positive*
%FSLAX46Y46*%
G04 Gerber Fmt 4.6, Leading zero omitted, Abs format (unit mm)*
G04 Created by KiCad (PCBNEW 5.1.5-52549c5~84~ubuntu18.04.1) date 2020-03-23 11:10:23*
%MOMM*%
%LPD*%
G04 APERTURE LIST*
%ADD10O,1.700000X1.700000*%
%ADD11R,1.700000X1.700000*%
%ADD12C,0.100000*%
%ADD13R,0.800000X0.900000*%
%ADD14O,1.600000X1.600000*%
%ADD15R,1.600000X1.600000*%
%ADD16C,3.000000*%
%ADD17C,1.000000*%
%ADD18C,2.000000*%
%ADD19C,0.254000*%
G04 APERTURE END LIST*
D10*
X168910000Y-111125000D03*
D11*
X166370000Y-111125000D03*
D10*
X128905000Y-92075000D03*
D11*
X128905000Y-94615000D03*
D10*
X123825000Y-92075000D03*
D11*
X123825000Y-94615000D03*
D10*
X143510000Y-78310000D03*
D11*
X146050000Y-78310000D03*
D10*
X143510000Y-72390000D03*
D11*
X146050000Y-72390000D03*
G04 #@! TA.AperFunction,SMDPad,CuDef*
D12*
G36*
X139254504Y-86646204D02*
G01*
X139278773Y-86649804D01*
X139302571Y-86655765D01*
X139325671Y-86664030D01*
X139347849Y-86674520D01*
X139368893Y-86687133D01*
X139388598Y-86701747D01*
X139406777Y-86718223D01*
X139423253Y-86736402D01*
X139437867Y-86756107D01*
X139450480Y-86777151D01*
X139460970Y-86799329D01*
X139469235Y-86822429D01*
X139475196Y-86846227D01*
X139478796Y-86870496D01*
X139480000Y-86895000D01*
X139480000Y-90995000D01*
X139478796Y-91019504D01*
X139475196Y-91043773D01*
X139469235Y-91067571D01*
X139460970Y-91090671D01*
X139450480Y-91112849D01*
X139437867Y-91133893D01*
X139423253Y-91153598D01*
X139406777Y-91171777D01*
X139388598Y-91188253D01*
X139368893Y-91202867D01*
X139347849Y-91215480D01*
X139325671Y-91225970D01*
X139302571Y-91234235D01*
X139278773Y-91240196D01*
X139254504Y-91243796D01*
X139230000Y-91245000D01*
X137630000Y-91245000D01*
X137605496Y-91243796D01*
X137581227Y-91240196D01*
X137557429Y-91234235D01*
X137534329Y-91225970D01*
X137512151Y-91215480D01*
X137491107Y-91202867D01*
X137471402Y-91188253D01*
X137453223Y-91171777D01*
X137436747Y-91153598D01*
X137422133Y-91133893D01*
X137409520Y-91112849D01*
X137399030Y-91090671D01*
X137390765Y-91067571D01*
X137384804Y-91043773D01*
X137381204Y-91019504D01*
X137380000Y-90995000D01*
X137380000Y-86895000D01*
X137381204Y-86870496D01*
X137384804Y-86846227D01*
X137390765Y-86822429D01*
X137399030Y-86799329D01*
X137409520Y-86777151D01*
X137422133Y-86756107D01*
X137436747Y-86736402D01*
X137453223Y-86718223D01*
X137471402Y-86701747D01*
X137491107Y-86687133D01*
X137512151Y-86674520D01*
X137534329Y-86664030D01*
X137557429Y-86655765D01*
X137581227Y-86649804D01*
X137605496Y-86646204D01*
X137630000Y-86645000D01*
X139230000Y-86645000D01*
X139254504Y-86646204D01*
G37*
G04 #@! TD.AperFunction*
G04 #@! TA.AperFunction,SMDPad,CuDef*
G36*
X139254504Y-95446204D02*
G01*
X139278773Y-95449804D01*
X139302571Y-95455765D01*
X139325671Y-95464030D01*
X139347849Y-95474520D01*
X139368893Y-95487133D01*
X139388598Y-95501747D01*
X139406777Y-95518223D01*
X139423253Y-95536402D01*
X139437867Y-95556107D01*
X139450480Y-95577151D01*
X139460970Y-95599329D01*
X139469235Y-95622429D01*
X139475196Y-95646227D01*
X139478796Y-95670496D01*
X139480000Y-95695000D01*
X139480000Y-99795000D01*
X139478796Y-99819504D01*
X139475196Y-99843773D01*
X139469235Y-99867571D01*
X139460970Y-99890671D01*
X139450480Y-99912849D01*
X139437867Y-99933893D01*
X139423253Y-99953598D01*
X139406777Y-99971777D01*
X139388598Y-99988253D01*
X139368893Y-100002867D01*
X139347849Y-100015480D01*
X139325671Y-100025970D01*
X139302571Y-100034235D01*
X139278773Y-100040196D01*
X139254504Y-100043796D01*
X139230000Y-100045000D01*
X137630000Y-100045000D01*
X137605496Y-100043796D01*
X137581227Y-100040196D01*
X137557429Y-100034235D01*
X137534329Y-100025970D01*
X137512151Y-100015480D01*
X137491107Y-100002867D01*
X137471402Y-99988253D01*
X137453223Y-99971777D01*
X137436747Y-99953598D01*
X137422133Y-99933893D01*
X137409520Y-99912849D01*
X137399030Y-99890671D01*
X137390765Y-99867571D01*
X137384804Y-99843773D01*
X137381204Y-99819504D01*
X137380000Y-99795000D01*
X137380000Y-95695000D01*
X137381204Y-95670496D01*
X137384804Y-95646227D01*
X137390765Y-95622429D01*
X137399030Y-95599329D01*
X137409520Y-95577151D01*
X137422133Y-95556107D01*
X137436747Y-95536402D01*
X137453223Y-95518223D01*
X137471402Y-95501747D01*
X137491107Y-95487133D01*
X137512151Y-95474520D01*
X137534329Y-95464030D01*
X137557429Y-95455765D01*
X137581227Y-95449804D01*
X137605496Y-95446204D01*
X137630000Y-95445000D01*
X139230000Y-95445000D01*
X139254504Y-95446204D01*
G37*
G04 #@! TD.AperFunction*
D13*
X172400000Y-88170000D03*
X170500000Y-88170000D03*
X171450000Y-90170000D03*
X184150000Y-89900000D03*
X183200000Y-87900000D03*
X185100000Y-87900000D03*
G04 #@! TA.AperFunction,SMDPad,CuDef*
D12*
G36*
X160494505Y-80951204D02*
G01*
X160518773Y-80954804D01*
X160542572Y-80960765D01*
X160565671Y-80969030D01*
X160587850Y-80979520D01*
X160608893Y-80992132D01*
X160628599Y-81006747D01*
X160646777Y-81023223D01*
X160663253Y-81041401D01*
X160677868Y-81061107D01*
X160690480Y-81082150D01*
X160700970Y-81104329D01*
X160709235Y-81127428D01*
X160715196Y-81151227D01*
X160718796Y-81175495D01*
X160720000Y-81199999D01*
X160720000Y-81850001D01*
X160718796Y-81874505D01*
X160715196Y-81898773D01*
X160709235Y-81922572D01*
X160700970Y-81945671D01*
X160690480Y-81967850D01*
X160677868Y-81988893D01*
X160663253Y-82008599D01*
X160646777Y-82026777D01*
X160628599Y-82043253D01*
X160608893Y-82057868D01*
X160587850Y-82070480D01*
X160565671Y-82080970D01*
X160542572Y-82089235D01*
X160518773Y-82095196D01*
X160494505Y-82098796D01*
X160470001Y-82100000D01*
X159569999Y-82100000D01*
X159545495Y-82098796D01*
X159521227Y-82095196D01*
X159497428Y-82089235D01*
X159474329Y-82080970D01*
X159452150Y-82070480D01*
X159431107Y-82057868D01*
X159411401Y-82043253D01*
X159393223Y-82026777D01*
X159376747Y-82008599D01*
X159362132Y-81988893D01*
X159349520Y-81967850D01*
X159339030Y-81945671D01*
X159330765Y-81922572D01*
X159324804Y-81898773D01*
X159321204Y-81874505D01*
X159320000Y-81850001D01*
X159320000Y-81199999D01*
X159321204Y-81175495D01*
X159324804Y-81151227D01*
X159330765Y-81127428D01*
X159339030Y-81104329D01*
X159349520Y-81082150D01*
X159362132Y-81061107D01*
X159376747Y-81041401D01*
X159393223Y-81023223D01*
X159411401Y-81006747D01*
X159431107Y-80992132D01*
X159452150Y-80979520D01*
X159474329Y-80969030D01*
X159497428Y-80960765D01*
X159521227Y-80954804D01*
X159545495Y-80951204D01*
X159569999Y-80950000D01*
X160470001Y-80950000D01*
X160494505Y-80951204D01*
G37*
G04 #@! TD.AperFunction*
G04 #@! TA.AperFunction,SMDPad,CuDef*
G36*
X160494505Y-83001204D02*
G01*
X160518773Y-83004804D01*
X160542572Y-83010765D01*
X160565671Y-83019030D01*
X160587850Y-83029520D01*
X160608893Y-83042132D01*
X160628599Y-83056747D01*
X160646777Y-83073223D01*
X160663253Y-83091401D01*
X160677868Y-83111107D01*
X160690480Y-83132150D01*
X160700970Y-83154329D01*
X160709235Y-83177428D01*
X160715196Y-83201227D01*
X160718796Y-83225495D01*
X160720000Y-83249999D01*
X160720000Y-83900001D01*
X160718796Y-83924505D01*
X160715196Y-83948773D01*
X160709235Y-83972572D01*
X160700970Y-83995671D01*
X160690480Y-84017850D01*
X160677868Y-84038893D01*
X160663253Y-84058599D01*
X160646777Y-84076777D01*
X160628599Y-84093253D01*
X160608893Y-84107868D01*
X160587850Y-84120480D01*
X160565671Y-84130970D01*
X160542572Y-84139235D01*
X160518773Y-84145196D01*
X160494505Y-84148796D01*
X160470001Y-84150000D01*
X159569999Y-84150000D01*
X159545495Y-84148796D01*
X159521227Y-84145196D01*
X159497428Y-84139235D01*
X159474329Y-84130970D01*
X159452150Y-84120480D01*
X159431107Y-84107868D01*
X159411401Y-84093253D01*
X159393223Y-84076777D01*
X159376747Y-84058599D01*
X159362132Y-84038893D01*
X159349520Y-84017850D01*
X159339030Y-83995671D01*
X159330765Y-83972572D01*
X159324804Y-83948773D01*
X159321204Y-83924505D01*
X159320000Y-83900001D01*
X159320000Y-83249999D01*
X159321204Y-83225495D01*
X159324804Y-83201227D01*
X159330765Y-83177428D01*
X159339030Y-83154329D01*
X159349520Y-83132150D01*
X159362132Y-83111107D01*
X159376747Y-83091401D01*
X159393223Y-83073223D01*
X159411401Y-83056747D01*
X159431107Y-83042132D01*
X159452150Y-83029520D01*
X159474329Y-83019030D01*
X159497428Y-83010765D01*
X159521227Y-83004804D01*
X159545495Y-83001204D01*
X159569999Y-83000000D01*
X160470001Y-83000000D01*
X160494505Y-83001204D01*
G37*
G04 #@! TD.AperFunction*
G04 #@! TA.AperFunction,SMDPad,CuDef*
G36*
X166844505Y-83001204D02*
G01*
X166868773Y-83004804D01*
X166892572Y-83010765D01*
X166915671Y-83019030D01*
X166937850Y-83029520D01*
X166958893Y-83042132D01*
X166978599Y-83056747D01*
X166996777Y-83073223D01*
X167013253Y-83091401D01*
X167027868Y-83111107D01*
X167040480Y-83132150D01*
X167050970Y-83154329D01*
X167059235Y-83177428D01*
X167065196Y-83201227D01*
X167068796Y-83225495D01*
X167070000Y-83249999D01*
X167070000Y-83900001D01*
X167068796Y-83924505D01*
X167065196Y-83948773D01*
X167059235Y-83972572D01*
X167050970Y-83995671D01*
X167040480Y-84017850D01*
X167027868Y-84038893D01*
X167013253Y-84058599D01*
X166996777Y-84076777D01*
X166978599Y-84093253D01*
X166958893Y-84107868D01*
X166937850Y-84120480D01*
X166915671Y-84130970D01*
X166892572Y-84139235D01*
X166868773Y-84145196D01*
X166844505Y-84148796D01*
X166820001Y-84150000D01*
X165919999Y-84150000D01*
X165895495Y-84148796D01*
X165871227Y-84145196D01*
X165847428Y-84139235D01*
X165824329Y-84130970D01*
X165802150Y-84120480D01*
X165781107Y-84107868D01*
X165761401Y-84093253D01*
X165743223Y-84076777D01*
X165726747Y-84058599D01*
X165712132Y-84038893D01*
X165699520Y-84017850D01*
X165689030Y-83995671D01*
X165680765Y-83972572D01*
X165674804Y-83948773D01*
X165671204Y-83924505D01*
X165670000Y-83900001D01*
X165670000Y-83249999D01*
X165671204Y-83225495D01*
X165674804Y-83201227D01*
X165680765Y-83177428D01*
X165689030Y-83154329D01*
X165699520Y-83132150D01*
X165712132Y-83111107D01*
X165726747Y-83091401D01*
X165743223Y-83073223D01*
X165761401Y-83056747D01*
X165781107Y-83042132D01*
X165802150Y-83029520D01*
X165824329Y-83019030D01*
X165847428Y-83010765D01*
X165871227Y-83004804D01*
X165895495Y-83001204D01*
X165919999Y-83000000D01*
X166820001Y-83000000D01*
X166844505Y-83001204D01*
G37*
G04 #@! TD.AperFunction*
G04 #@! TA.AperFunction,SMDPad,CuDef*
G36*
X166844505Y-80951204D02*
G01*
X166868773Y-80954804D01*
X166892572Y-80960765D01*
X166915671Y-80969030D01*
X166937850Y-80979520D01*
X166958893Y-80992132D01*
X166978599Y-81006747D01*
X166996777Y-81023223D01*
X167013253Y-81041401D01*
X167027868Y-81061107D01*
X167040480Y-81082150D01*
X167050970Y-81104329D01*
X167059235Y-81127428D01*
X167065196Y-81151227D01*
X167068796Y-81175495D01*
X167070000Y-81199999D01*
X167070000Y-81850001D01*
X167068796Y-81874505D01*
X167065196Y-81898773D01*
X167059235Y-81922572D01*
X167050970Y-81945671D01*
X167040480Y-81967850D01*
X167027868Y-81988893D01*
X167013253Y-82008599D01*
X166996777Y-82026777D01*
X166978599Y-82043253D01*
X166958893Y-82057868D01*
X166937850Y-82070480D01*
X166915671Y-82080970D01*
X166892572Y-82089235D01*
X166868773Y-82095196D01*
X166844505Y-82098796D01*
X166820001Y-82100000D01*
X165919999Y-82100000D01*
X165895495Y-82098796D01*
X165871227Y-82095196D01*
X165847428Y-82089235D01*
X165824329Y-82080970D01*
X165802150Y-82070480D01*
X165781107Y-82057868D01*
X165761401Y-82043253D01*
X165743223Y-82026777D01*
X165726747Y-82008599D01*
X165712132Y-81988893D01*
X165699520Y-81967850D01*
X165689030Y-81945671D01*
X165680765Y-81922572D01*
X165674804Y-81898773D01*
X165671204Y-81874505D01*
X165670000Y-81850001D01*
X165670000Y-81199999D01*
X165671204Y-81175495D01*
X165674804Y-81151227D01*
X165680765Y-81127428D01*
X165689030Y-81104329D01*
X165699520Y-81082150D01*
X165712132Y-81061107D01*
X165726747Y-81041401D01*
X165743223Y-81023223D01*
X165761401Y-81006747D01*
X165781107Y-80992132D01*
X165802150Y-80979520D01*
X165824329Y-80969030D01*
X165847428Y-80960765D01*
X165871227Y-80954804D01*
X165895495Y-80951204D01*
X165919999Y-80950000D01*
X166820001Y-80950000D01*
X166844505Y-80951204D01*
G37*
G04 #@! TD.AperFunction*
G04 #@! TA.AperFunction,SMDPad,CuDef*
G36*
X147800142Y-91921174D02*
G01*
X147823803Y-91924684D01*
X147847007Y-91930496D01*
X147869529Y-91938554D01*
X147891153Y-91948782D01*
X147911670Y-91961079D01*
X147930883Y-91975329D01*
X147948607Y-91991393D01*
X147964671Y-92009117D01*
X147978921Y-92028330D01*
X147991218Y-92048847D01*
X148001446Y-92070471D01*
X148009504Y-92092993D01*
X148015316Y-92116197D01*
X148018826Y-92139858D01*
X148020000Y-92163750D01*
X148020000Y-92651250D01*
X148018826Y-92675142D01*
X148015316Y-92698803D01*
X148009504Y-92722007D01*
X148001446Y-92744529D01*
X147991218Y-92766153D01*
X147978921Y-92786670D01*
X147964671Y-92805883D01*
X147948607Y-92823607D01*
X147930883Y-92839671D01*
X147911670Y-92853921D01*
X147891153Y-92866218D01*
X147869529Y-92876446D01*
X147847007Y-92884504D01*
X147823803Y-92890316D01*
X147800142Y-92893826D01*
X147776250Y-92895000D01*
X146863750Y-92895000D01*
X146839858Y-92893826D01*
X146816197Y-92890316D01*
X146792993Y-92884504D01*
X146770471Y-92876446D01*
X146748847Y-92866218D01*
X146728330Y-92853921D01*
X146709117Y-92839671D01*
X146691393Y-92823607D01*
X146675329Y-92805883D01*
X146661079Y-92786670D01*
X146648782Y-92766153D01*
X146638554Y-92744529D01*
X146630496Y-92722007D01*
X146624684Y-92698803D01*
X146621174Y-92675142D01*
X146620000Y-92651250D01*
X146620000Y-92163750D01*
X146621174Y-92139858D01*
X146624684Y-92116197D01*
X146630496Y-92092993D01*
X146638554Y-92070471D01*
X146648782Y-92048847D01*
X146661079Y-92028330D01*
X146675329Y-92009117D01*
X146691393Y-91991393D01*
X146709117Y-91975329D01*
X146728330Y-91961079D01*
X146748847Y-91948782D01*
X146770471Y-91938554D01*
X146792993Y-91930496D01*
X146816197Y-91924684D01*
X146839858Y-91921174D01*
X146863750Y-91920000D01*
X147776250Y-91920000D01*
X147800142Y-91921174D01*
G37*
G04 #@! TD.AperFunction*
G04 #@! TA.AperFunction,SMDPad,CuDef*
G36*
X147800142Y-93796174D02*
G01*
X147823803Y-93799684D01*
X147847007Y-93805496D01*
X147869529Y-93813554D01*
X147891153Y-93823782D01*
X147911670Y-93836079D01*
X147930883Y-93850329D01*
X147948607Y-93866393D01*
X147964671Y-93884117D01*
X147978921Y-93903330D01*
X147991218Y-93923847D01*
X148001446Y-93945471D01*
X148009504Y-93967993D01*
X148015316Y-93991197D01*
X148018826Y-94014858D01*
X148020000Y-94038750D01*
X148020000Y-94526250D01*
X148018826Y-94550142D01*
X148015316Y-94573803D01*
X148009504Y-94597007D01*
X148001446Y-94619529D01*
X147991218Y-94641153D01*
X147978921Y-94661670D01*
X147964671Y-94680883D01*
X147948607Y-94698607D01*
X147930883Y-94714671D01*
X147911670Y-94728921D01*
X147891153Y-94741218D01*
X147869529Y-94751446D01*
X147847007Y-94759504D01*
X147823803Y-94765316D01*
X147800142Y-94768826D01*
X147776250Y-94770000D01*
X146863750Y-94770000D01*
X146839858Y-94768826D01*
X146816197Y-94765316D01*
X146792993Y-94759504D01*
X146770471Y-94751446D01*
X146748847Y-94741218D01*
X146728330Y-94728921D01*
X146709117Y-94714671D01*
X146691393Y-94698607D01*
X146675329Y-94680883D01*
X146661079Y-94661670D01*
X146648782Y-94641153D01*
X146638554Y-94619529D01*
X146630496Y-94597007D01*
X146624684Y-94573803D01*
X146621174Y-94550142D01*
X146620000Y-94526250D01*
X146620000Y-94038750D01*
X146621174Y-94014858D01*
X146624684Y-93991197D01*
X146630496Y-93967993D01*
X146638554Y-93945471D01*
X146648782Y-93923847D01*
X146661079Y-93903330D01*
X146675329Y-93884117D01*
X146691393Y-93866393D01*
X146709117Y-93850329D01*
X146728330Y-93836079D01*
X146748847Y-93823782D01*
X146770471Y-93813554D01*
X146792993Y-93805496D01*
X146816197Y-93799684D01*
X146839858Y-93796174D01*
X146863750Y-93795000D01*
X147776250Y-93795000D01*
X147800142Y-93796174D01*
G37*
G04 #@! TD.AperFunction*
D11*
X184150000Y-97790000D03*
D10*
X184150000Y-95250000D03*
G04 #@! TA.AperFunction,SMDPad,CuDef*
D12*
G36*
X154144505Y-80706204D02*
G01*
X154168773Y-80709804D01*
X154192572Y-80715765D01*
X154215671Y-80724030D01*
X154237850Y-80734520D01*
X154258893Y-80747132D01*
X154278599Y-80761747D01*
X154296777Y-80778223D01*
X154313253Y-80796401D01*
X154327868Y-80816107D01*
X154340480Y-80837150D01*
X154350970Y-80859329D01*
X154359235Y-80882428D01*
X154365196Y-80906227D01*
X154368796Y-80930495D01*
X154370000Y-80954999D01*
X154370000Y-81605001D01*
X154368796Y-81629505D01*
X154365196Y-81653773D01*
X154359235Y-81677572D01*
X154350970Y-81700671D01*
X154340480Y-81722850D01*
X154327868Y-81743893D01*
X154313253Y-81763599D01*
X154296777Y-81781777D01*
X154278599Y-81798253D01*
X154258893Y-81812868D01*
X154237850Y-81825480D01*
X154215671Y-81835970D01*
X154192572Y-81844235D01*
X154168773Y-81850196D01*
X154144505Y-81853796D01*
X154120001Y-81855000D01*
X153219999Y-81855000D01*
X153195495Y-81853796D01*
X153171227Y-81850196D01*
X153147428Y-81844235D01*
X153124329Y-81835970D01*
X153102150Y-81825480D01*
X153081107Y-81812868D01*
X153061401Y-81798253D01*
X153043223Y-81781777D01*
X153026747Y-81763599D01*
X153012132Y-81743893D01*
X152999520Y-81722850D01*
X152989030Y-81700671D01*
X152980765Y-81677572D01*
X152974804Y-81653773D01*
X152971204Y-81629505D01*
X152970000Y-81605001D01*
X152970000Y-80954999D01*
X152971204Y-80930495D01*
X152974804Y-80906227D01*
X152980765Y-80882428D01*
X152989030Y-80859329D01*
X152999520Y-80837150D01*
X153012132Y-80816107D01*
X153026747Y-80796401D01*
X153043223Y-80778223D01*
X153061401Y-80761747D01*
X153081107Y-80747132D01*
X153102150Y-80734520D01*
X153124329Y-80724030D01*
X153147428Y-80715765D01*
X153171227Y-80709804D01*
X153195495Y-80706204D01*
X153219999Y-80705000D01*
X154120001Y-80705000D01*
X154144505Y-80706204D01*
G37*
G04 #@! TD.AperFunction*
G04 #@! TA.AperFunction,SMDPad,CuDef*
G36*
X154144505Y-82756204D02*
G01*
X154168773Y-82759804D01*
X154192572Y-82765765D01*
X154215671Y-82774030D01*
X154237850Y-82784520D01*
X154258893Y-82797132D01*
X154278599Y-82811747D01*
X154296777Y-82828223D01*
X154313253Y-82846401D01*
X154327868Y-82866107D01*
X154340480Y-82887150D01*
X154350970Y-82909329D01*
X154359235Y-82932428D01*
X154365196Y-82956227D01*
X154368796Y-82980495D01*
X154370000Y-83004999D01*
X154370000Y-83655001D01*
X154368796Y-83679505D01*
X154365196Y-83703773D01*
X154359235Y-83727572D01*
X154350970Y-83750671D01*
X154340480Y-83772850D01*
X154327868Y-83793893D01*
X154313253Y-83813599D01*
X154296777Y-83831777D01*
X154278599Y-83848253D01*
X154258893Y-83862868D01*
X154237850Y-83875480D01*
X154215671Y-83885970D01*
X154192572Y-83894235D01*
X154168773Y-83900196D01*
X154144505Y-83903796D01*
X154120001Y-83905000D01*
X153219999Y-83905000D01*
X153195495Y-83903796D01*
X153171227Y-83900196D01*
X153147428Y-83894235D01*
X153124329Y-83885970D01*
X153102150Y-83875480D01*
X153081107Y-83862868D01*
X153061401Y-83848253D01*
X153043223Y-83831777D01*
X153026747Y-83813599D01*
X153012132Y-83793893D01*
X152999520Y-83772850D01*
X152989030Y-83750671D01*
X152980765Y-83727572D01*
X152974804Y-83703773D01*
X152971204Y-83679505D01*
X152970000Y-83655001D01*
X152970000Y-83004999D01*
X152971204Y-82980495D01*
X152974804Y-82956227D01*
X152980765Y-82932428D01*
X152989030Y-82909329D01*
X152999520Y-82887150D01*
X153012132Y-82866107D01*
X153026747Y-82846401D01*
X153043223Y-82828223D01*
X153061401Y-82811747D01*
X153081107Y-82797132D01*
X153102150Y-82784520D01*
X153124329Y-82774030D01*
X153147428Y-82765765D01*
X153171227Y-82759804D01*
X153195495Y-82756204D01*
X153219999Y-82755000D01*
X154120001Y-82755000D01*
X154144505Y-82756204D01*
G37*
G04 #@! TD.AperFunction*
D10*
X177800000Y-95250000D03*
D11*
X177800000Y-97790000D03*
D13*
X165100000Y-89900000D03*
X164150000Y-87900000D03*
X166050000Y-87900000D03*
D10*
X158750000Y-95250000D03*
D11*
X158750000Y-97790000D03*
X165100000Y-97790000D03*
D10*
X165100000Y-95250000D03*
D13*
X153350000Y-87900000D03*
X151450000Y-87900000D03*
X152400000Y-89900000D03*
G04 #@! TA.AperFunction,SMDPad,CuDef*
D12*
G36*
X173194505Y-80951204D02*
G01*
X173218773Y-80954804D01*
X173242572Y-80960765D01*
X173265671Y-80969030D01*
X173287850Y-80979520D01*
X173308893Y-80992132D01*
X173328599Y-81006747D01*
X173346777Y-81023223D01*
X173363253Y-81041401D01*
X173377868Y-81061107D01*
X173390480Y-81082150D01*
X173400970Y-81104329D01*
X173409235Y-81127428D01*
X173415196Y-81151227D01*
X173418796Y-81175495D01*
X173420000Y-81199999D01*
X173420000Y-81850001D01*
X173418796Y-81874505D01*
X173415196Y-81898773D01*
X173409235Y-81922572D01*
X173400970Y-81945671D01*
X173390480Y-81967850D01*
X173377868Y-81988893D01*
X173363253Y-82008599D01*
X173346777Y-82026777D01*
X173328599Y-82043253D01*
X173308893Y-82057868D01*
X173287850Y-82070480D01*
X173265671Y-82080970D01*
X173242572Y-82089235D01*
X173218773Y-82095196D01*
X173194505Y-82098796D01*
X173170001Y-82100000D01*
X172269999Y-82100000D01*
X172245495Y-82098796D01*
X172221227Y-82095196D01*
X172197428Y-82089235D01*
X172174329Y-82080970D01*
X172152150Y-82070480D01*
X172131107Y-82057868D01*
X172111401Y-82043253D01*
X172093223Y-82026777D01*
X172076747Y-82008599D01*
X172062132Y-81988893D01*
X172049520Y-81967850D01*
X172039030Y-81945671D01*
X172030765Y-81922572D01*
X172024804Y-81898773D01*
X172021204Y-81874505D01*
X172020000Y-81850001D01*
X172020000Y-81199999D01*
X172021204Y-81175495D01*
X172024804Y-81151227D01*
X172030765Y-81127428D01*
X172039030Y-81104329D01*
X172049520Y-81082150D01*
X172062132Y-81061107D01*
X172076747Y-81041401D01*
X172093223Y-81023223D01*
X172111401Y-81006747D01*
X172131107Y-80992132D01*
X172152150Y-80979520D01*
X172174329Y-80969030D01*
X172197428Y-80960765D01*
X172221227Y-80954804D01*
X172245495Y-80951204D01*
X172269999Y-80950000D01*
X173170001Y-80950000D01*
X173194505Y-80951204D01*
G37*
G04 #@! TD.AperFunction*
G04 #@! TA.AperFunction,SMDPad,CuDef*
G36*
X173194505Y-83001204D02*
G01*
X173218773Y-83004804D01*
X173242572Y-83010765D01*
X173265671Y-83019030D01*
X173287850Y-83029520D01*
X173308893Y-83042132D01*
X173328599Y-83056747D01*
X173346777Y-83073223D01*
X173363253Y-83091401D01*
X173377868Y-83111107D01*
X173390480Y-83132150D01*
X173400970Y-83154329D01*
X173409235Y-83177428D01*
X173415196Y-83201227D01*
X173418796Y-83225495D01*
X173420000Y-83249999D01*
X173420000Y-83900001D01*
X173418796Y-83924505D01*
X173415196Y-83948773D01*
X173409235Y-83972572D01*
X173400970Y-83995671D01*
X173390480Y-84017850D01*
X173377868Y-84038893D01*
X173363253Y-84058599D01*
X173346777Y-84076777D01*
X173328599Y-84093253D01*
X173308893Y-84107868D01*
X173287850Y-84120480D01*
X173265671Y-84130970D01*
X173242572Y-84139235D01*
X173218773Y-84145196D01*
X173194505Y-84148796D01*
X173170001Y-84150000D01*
X172269999Y-84150000D01*
X172245495Y-84148796D01*
X172221227Y-84145196D01*
X172197428Y-84139235D01*
X172174329Y-84130970D01*
X172152150Y-84120480D01*
X172131107Y-84107868D01*
X172111401Y-84093253D01*
X172093223Y-84076777D01*
X172076747Y-84058599D01*
X172062132Y-84038893D01*
X172049520Y-84017850D01*
X172039030Y-83995671D01*
X172030765Y-83972572D01*
X172024804Y-83948773D01*
X172021204Y-83924505D01*
X172020000Y-83900001D01*
X172020000Y-83249999D01*
X172021204Y-83225495D01*
X172024804Y-83201227D01*
X172030765Y-83177428D01*
X172039030Y-83154329D01*
X172049520Y-83132150D01*
X172062132Y-83111107D01*
X172076747Y-83091401D01*
X172093223Y-83073223D01*
X172111401Y-83056747D01*
X172131107Y-83042132D01*
X172152150Y-83029520D01*
X172174329Y-83019030D01*
X172197428Y-83010765D01*
X172221227Y-83004804D01*
X172245495Y-83001204D01*
X172269999Y-83000000D01*
X173170001Y-83000000D01*
X173194505Y-83001204D01*
G37*
G04 #@! TD.AperFunction*
G04 #@! TA.AperFunction,SMDPad,CuDef*
G36*
X179544505Y-83001204D02*
G01*
X179568773Y-83004804D01*
X179592572Y-83010765D01*
X179615671Y-83019030D01*
X179637850Y-83029520D01*
X179658893Y-83042132D01*
X179678599Y-83056747D01*
X179696777Y-83073223D01*
X179713253Y-83091401D01*
X179727868Y-83111107D01*
X179740480Y-83132150D01*
X179750970Y-83154329D01*
X179759235Y-83177428D01*
X179765196Y-83201227D01*
X179768796Y-83225495D01*
X179770000Y-83249999D01*
X179770000Y-83900001D01*
X179768796Y-83924505D01*
X179765196Y-83948773D01*
X179759235Y-83972572D01*
X179750970Y-83995671D01*
X179740480Y-84017850D01*
X179727868Y-84038893D01*
X179713253Y-84058599D01*
X179696777Y-84076777D01*
X179678599Y-84093253D01*
X179658893Y-84107868D01*
X179637850Y-84120480D01*
X179615671Y-84130970D01*
X179592572Y-84139235D01*
X179568773Y-84145196D01*
X179544505Y-84148796D01*
X179520001Y-84150000D01*
X178619999Y-84150000D01*
X178595495Y-84148796D01*
X178571227Y-84145196D01*
X178547428Y-84139235D01*
X178524329Y-84130970D01*
X178502150Y-84120480D01*
X178481107Y-84107868D01*
X178461401Y-84093253D01*
X178443223Y-84076777D01*
X178426747Y-84058599D01*
X178412132Y-84038893D01*
X178399520Y-84017850D01*
X178389030Y-83995671D01*
X178380765Y-83972572D01*
X178374804Y-83948773D01*
X178371204Y-83924505D01*
X178370000Y-83900001D01*
X178370000Y-83249999D01*
X178371204Y-83225495D01*
X178374804Y-83201227D01*
X178380765Y-83177428D01*
X178389030Y-83154329D01*
X178399520Y-83132150D01*
X178412132Y-83111107D01*
X178426747Y-83091401D01*
X178443223Y-83073223D01*
X178461401Y-83056747D01*
X178481107Y-83042132D01*
X178502150Y-83029520D01*
X178524329Y-83019030D01*
X178547428Y-83010765D01*
X178571227Y-83004804D01*
X178595495Y-83001204D01*
X178619999Y-83000000D01*
X179520001Y-83000000D01*
X179544505Y-83001204D01*
G37*
G04 #@! TD.AperFunction*
G04 #@! TA.AperFunction,SMDPad,CuDef*
G36*
X179544505Y-80951204D02*
G01*
X179568773Y-80954804D01*
X179592572Y-80960765D01*
X179615671Y-80969030D01*
X179637850Y-80979520D01*
X179658893Y-80992132D01*
X179678599Y-81006747D01*
X179696777Y-81023223D01*
X179713253Y-81041401D01*
X179727868Y-81061107D01*
X179740480Y-81082150D01*
X179750970Y-81104329D01*
X179759235Y-81127428D01*
X179765196Y-81151227D01*
X179768796Y-81175495D01*
X179770000Y-81199999D01*
X179770000Y-81850001D01*
X179768796Y-81874505D01*
X179765196Y-81898773D01*
X179759235Y-81922572D01*
X179750970Y-81945671D01*
X179740480Y-81967850D01*
X179727868Y-81988893D01*
X179713253Y-82008599D01*
X179696777Y-82026777D01*
X179678599Y-82043253D01*
X179658893Y-82057868D01*
X179637850Y-82070480D01*
X179615671Y-82080970D01*
X179592572Y-82089235D01*
X179568773Y-82095196D01*
X179544505Y-82098796D01*
X179520001Y-82100000D01*
X178619999Y-82100000D01*
X178595495Y-82098796D01*
X178571227Y-82095196D01*
X178547428Y-82089235D01*
X178524329Y-82080970D01*
X178502150Y-82070480D01*
X178481107Y-82057868D01*
X178461401Y-82043253D01*
X178443223Y-82026777D01*
X178426747Y-82008599D01*
X178412132Y-81988893D01*
X178399520Y-81967850D01*
X178389030Y-81945671D01*
X178380765Y-81922572D01*
X178374804Y-81898773D01*
X178371204Y-81874505D01*
X178370000Y-81850001D01*
X178370000Y-81199999D01*
X178371204Y-81175495D01*
X178374804Y-81151227D01*
X178380765Y-81127428D01*
X178389030Y-81104329D01*
X178399520Y-81082150D01*
X178412132Y-81061107D01*
X178426747Y-81041401D01*
X178443223Y-81023223D01*
X178461401Y-81006747D01*
X178481107Y-80992132D01*
X178502150Y-80979520D01*
X178524329Y-80969030D01*
X178547428Y-80960765D01*
X178571227Y-80954804D01*
X178595495Y-80951204D01*
X178619999Y-80950000D01*
X179520001Y-80950000D01*
X179544505Y-80951204D01*
G37*
G04 #@! TD.AperFunction*
D13*
X159700000Y-87900000D03*
X157800000Y-87900000D03*
X158750000Y-89900000D03*
D11*
X152400000Y-97790000D03*
D10*
X152400000Y-95250000D03*
G04 #@! TA.AperFunction,SMDPad,CuDef*
D12*
G36*
X185894505Y-83246204D02*
G01*
X185918773Y-83249804D01*
X185942572Y-83255765D01*
X185965671Y-83264030D01*
X185987850Y-83274520D01*
X186008893Y-83287132D01*
X186028599Y-83301747D01*
X186046777Y-83318223D01*
X186063253Y-83336401D01*
X186077868Y-83356107D01*
X186090480Y-83377150D01*
X186100970Y-83399329D01*
X186109235Y-83422428D01*
X186115196Y-83446227D01*
X186118796Y-83470495D01*
X186120000Y-83494999D01*
X186120000Y-84145001D01*
X186118796Y-84169505D01*
X186115196Y-84193773D01*
X186109235Y-84217572D01*
X186100970Y-84240671D01*
X186090480Y-84262850D01*
X186077868Y-84283893D01*
X186063253Y-84303599D01*
X186046777Y-84321777D01*
X186028599Y-84338253D01*
X186008893Y-84352868D01*
X185987850Y-84365480D01*
X185965671Y-84375970D01*
X185942572Y-84384235D01*
X185918773Y-84390196D01*
X185894505Y-84393796D01*
X185870001Y-84395000D01*
X184969999Y-84395000D01*
X184945495Y-84393796D01*
X184921227Y-84390196D01*
X184897428Y-84384235D01*
X184874329Y-84375970D01*
X184852150Y-84365480D01*
X184831107Y-84352868D01*
X184811401Y-84338253D01*
X184793223Y-84321777D01*
X184776747Y-84303599D01*
X184762132Y-84283893D01*
X184749520Y-84262850D01*
X184739030Y-84240671D01*
X184730765Y-84217572D01*
X184724804Y-84193773D01*
X184721204Y-84169505D01*
X184720000Y-84145001D01*
X184720000Y-83494999D01*
X184721204Y-83470495D01*
X184724804Y-83446227D01*
X184730765Y-83422428D01*
X184739030Y-83399329D01*
X184749520Y-83377150D01*
X184762132Y-83356107D01*
X184776747Y-83336401D01*
X184793223Y-83318223D01*
X184811401Y-83301747D01*
X184831107Y-83287132D01*
X184852150Y-83274520D01*
X184874329Y-83264030D01*
X184897428Y-83255765D01*
X184921227Y-83249804D01*
X184945495Y-83246204D01*
X184969999Y-83245000D01*
X185870001Y-83245000D01*
X185894505Y-83246204D01*
G37*
G04 #@! TD.AperFunction*
G04 #@! TA.AperFunction,SMDPad,CuDef*
G36*
X185894505Y-81196204D02*
G01*
X185918773Y-81199804D01*
X185942572Y-81205765D01*
X185965671Y-81214030D01*
X185987850Y-81224520D01*
X186008893Y-81237132D01*
X186028599Y-81251747D01*
X186046777Y-81268223D01*
X186063253Y-81286401D01*
X186077868Y-81306107D01*
X186090480Y-81327150D01*
X186100970Y-81349329D01*
X186109235Y-81372428D01*
X186115196Y-81396227D01*
X186118796Y-81420495D01*
X186120000Y-81444999D01*
X186120000Y-82095001D01*
X186118796Y-82119505D01*
X186115196Y-82143773D01*
X186109235Y-82167572D01*
X186100970Y-82190671D01*
X186090480Y-82212850D01*
X186077868Y-82233893D01*
X186063253Y-82253599D01*
X186046777Y-82271777D01*
X186028599Y-82288253D01*
X186008893Y-82302868D01*
X185987850Y-82315480D01*
X185965671Y-82325970D01*
X185942572Y-82334235D01*
X185918773Y-82340196D01*
X185894505Y-82343796D01*
X185870001Y-82345000D01*
X184969999Y-82345000D01*
X184945495Y-82343796D01*
X184921227Y-82340196D01*
X184897428Y-82334235D01*
X184874329Y-82325970D01*
X184852150Y-82315480D01*
X184831107Y-82302868D01*
X184811401Y-82288253D01*
X184793223Y-82271777D01*
X184776747Y-82253599D01*
X184762132Y-82233893D01*
X184749520Y-82212850D01*
X184739030Y-82190671D01*
X184730765Y-82167572D01*
X184724804Y-82143773D01*
X184721204Y-82119505D01*
X184720000Y-82095001D01*
X184720000Y-81444999D01*
X184721204Y-81420495D01*
X184724804Y-81396227D01*
X184730765Y-81372428D01*
X184739030Y-81349329D01*
X184749520Y-81327150D01*
X184762132Y-81306107D01*
X184776747Y-81286401D01*
X184793223Y-81268223D01*
X184811401Y-81251747D01*
X184831107Y-81237132D01*
X184852150Y-81224520D01*
X184874329Y-81214030D01*
X184897428Y-81205765D01*
X184921227Y-81199804D01*
X184945495Y-81196204D01*
X184969999Y-81195000D01*
X185870001Y-81195000D01*
X185894505Y-81196204D01*
G37*
G04 #@! TD.AperFunction*
D10*
X171450000Y-95250000D03*
D11*
X171450000Y-97790000D03*
D13*
X177800000Y-89900000D03*
X176850000Y-87900000D03*
X178750000Y-87900000D03*
D14*
X139450000Y-66040000D03*
X141990000Y-66040000D03*
D15*
X148590000Y-114300000D03*
D14*
X179070000Y-66040000D03*
X151130000Y-114300000D03*
X176530000Y-66040000D03*
X153670000Y-114300000D03*
X173990000Y-66040000D03*
X156210000Y-114300000D03*
X171450000Y-66040000D03*
X158750000Y-114300000D03*
X168910000Y-66040000D03*
X161290000Y-114300000D03*
X166370000Y-66040000D03*
X163830000Y-114300000D03*
X162310000Y-66040000D03*
X166370000Y-114300000D03*
X159770000Y-66040000D03*
X171450000Y-114300000D03*
X157230000Y-66040000D03*
X173990000Y-114300000D03*
X154690000Y-66040000D03*
X176530000Y-114300000D03*
X152150000Y-66040000D03*
X179070000Y-114300000D03*
X149610000Y-66040000D03*
X181610000Y-114300000D03*
X147070000Y-66040000D03*
X184150000Y-114300000D03*
X144530000Y-66040000D03*
X184150000Y-66040000D03*
X181610000Y-66040000D03*
D16*
X155575000Y-102870000D03*
X161925000Y-102870000D03*
X168275000Y-102870000D03*
X174625000Y-102870000D03*
X180975000Y-102870000D03*
X148590000Y-102870000D03*
D17*
X185420000Y-81770000D02*
X185420000Y-74930000D01*
X179070000Y-68580000D02*
X179070000Y-66040000D01*
X185420000Y-74930000D02*
X179070000Y-68580000D01*
X179070000Y-74930000D02*
X179070000Y-81525000D01*
X176530000Y-66040000D02*
X176530000Y-72390000D01*
X176530000Y-72390000D02*
X179070000Y-74930000D01*
X172720000Y-74930000D02*
X172720000Y-81525000D01*
X173990000Y-66040000D02*
X173990000Y-73660000D01*
X173990000Y-73660000D02*
X172720000Y-74930000D01*
X166370000Y-76200000D02*
X166370000Y-81525000D01*
X171450000Y-66040000D02*
X171450000Y-71120000D01*
X171450000Y-71120000D02*
X166370000Y-76200000D01*
X168910000Y-66040000D02*
X168910000Y-69850000D01*
X168910000Y-69850000D02*
X160020000Y-78740000D01*
X160020000Y-78740000D02*
X160020000Y-81525000D01*
X166370000Y-66040000D02*
X166370000Y-68580000D01*
X166370000Y-68580000D02*
X158750000Y-76200000D01*
X158750000Y-76200000D02*
X153670000Y-76200000D01*
X153670000Y-76200000D02*
X153670000Y-81280000D01*
X162310000Y-66040000D02*
X162310000Y-67171370D01*
X162310000Y-67171370D02*
X162310000Y-67560000D01*
X149020000Y-78310000D02*
X146050000Y-78310000D01*
X151130000Y-76200000D02*
X149020000Y-78310000D01*
X157480000Y-73660000D02*
X151130000Y-73660000D01*
X162310000Y-67171370D02*
X162310000Y-68830000D01*
X151130000Y-73660000D02*
X151130000Y-76200000D01*
X162310000Y-68830000D02*
X157480000Y-73660000D01*
D18*
X138475000Y-97790000D02*
X138430000Y-97745000D01*
X152400000Y-97790000D02*
X147320000Y-97790000D01*
D17*
X147320000Y-94282500D02*
X147320000Y-97790000D01*
D18*
X147320000Y-97790000D02*
X138475000Y-97790000D01*
X123825000Y-97700000D02*
X123825000Y-94615000D01*
X123870000Y-97745000D02*
X123825000Y-97700000D01*
X128905000Y-97465000D02*
X128905000Y-97790000D01*
X128905000Y-94615000D02*
X128905000Y-97465000D01*
X138430000Y-97745000D02*
X128905000Y-97790000D01*
X128905000Y-97790000D02*
X123870000Y-97745000D01*
X152400000Y-107950000D02*
X152400000Y-97790000D01*
X184150000Y-97790000D02*
X184150000Y-107950000D01*
X177800000Y-97790000D02*
X177800000Y-107950000D01*
X184150000Y-107950000D02*
X177800000Y-107950000D01*
X171450000Y-97790000D02*
X171450000Y-107950000D01*
X177800000Y-107950000D02*
X171450000Y-107950000D01*
X165100000Y-107315000D02*
X164465000Y-107950000D01*
X165100000Y-97790000D02*
X165100000Y-107315000D01*
X171450000Y-107950000D02*
X164465000Y-107950000D01*
X164465000Y-107950000D02*
X158750000Y-107950000D01*
X158750000Y-97790000D02*
X158750000Y-107950000D01*
X158750000Y-107950000D02*
X152400000Y-107950000D01*
X168910000Y-111125000D02*
X170815000Y-111125000D01*
X170815000Y-108585000D02*
X171450000Y-107950000D01*
X170815000Y-111125000D02*
X170815000Y-108585000D01*
D17*
X146050000Y-70485000D02*
X146050000Y-72390000D01*
X156845000Y-70485000D02*
X146050000Y-70485000D01*
X159770000Y-66040000D02*
X159770000Y-67560000D01*
X159770000Y-67560000D02*
X156845000Y-70485000D01*
X184150000Y-89900000D02*
X184150000Y-95250000D01*
X177800000Y-89900000D02*
X177800000Y-95250000D01*
X171450000Y-90170000D02*
X171450000Y-95250000D01*
X165100000Y-89900000D02*
X165100000Y-95250000D01*
X158750000Y-89900000D02*
X158750000Y-95250000D01*
X152400000Y-89900000D02*
X152400000Y-95250000D01*
X185420000Y-87580000D02*
X185100000Y-87900000D01*
X185420000Y-83820000D02*
X185420000Y-87580000D01*
X179070000Y-87580000D02*
X178750000Y-87900000D01*
X179070000Y-83575000D02*
X179070000Y-87580000D01*
X172720000Y-87850000D02*
X172400000Y-88170000D01*
X172720000Y-83575000D02*
X172720000Y-87850000D01*
X166370000Y-87580000D02*
X166050000Y-87900000D01*
X166370000Y-83575000D02*
X166370000Y-87580000D01*
X160020000Y-87580000D02*
X159700000Y-87900000D01*
X160020000Y-83575000D02*
X160020000Y-87580000D01*
X153670000Y-87580000D02*
X153350000Y-87900000D01*
X153670000Y-83330000D02*
X153670000Y-87580000D01*
D18*
X166370000Y-114300000D02*
X166370000Y-111125000D01*
D19*
G36*
X186030000Y-65678381D02*
G01*
X186030001Y-73934869D01*
X180205000Y-68109869D01*
X180205000Y-66924284D01*
X180340000Y-66722241D01*
X180495363Y-66954759D01*
X180695241Y-67154637D01*
X180930273Y-67311680D01*
X181191426Y-67419853D01*
X181468665Y-67475000D01*
X181751335Y-67475000D01*
X182028574Y-67419853D01*
X182289727Y-67311680D01*
X182524759Y-67154637D01*
X182724637Y-66954759D01*
X182880000Y-66722241D01*
X183035363Y-66954759D01*
X183235241Y-67154637D01*
X183470273Y-67311680D01*
X183731426Y-67419853D01*
X184008665Y-67475000D01*
X184291335Y-67475000D01*
X184568574Y-67419853D01*
X184829727Y-67311680D01*
X185064759Y-67154637D01*
X185264637Y-66954759D01*
X185421680Y-66719727D01*
X185529853Y-66458574D01*
X185585000Y-66181335D01*
X185585000Y-65898665D01*
X185529853Y-65621426D01*
X185421680Y-65360273D01*
X185264637Y-65125241D01*
X185064759Y-64925363D01*
X184829727Y-64768320D01*
X184568574Y-64660147D01*
X184291335Y-64605000D01*
X184008665Y-64605000D01*
X183731426Y-64660147D01*
X183470273Y-64768320D01*
X183235241Y-64925363D01*
X183035363Y-65125241D01*
X182880000Y-65357759D01*
X182724637Y-65125241D01*
X182524759Y-64925363D01*
X182289727Y-64768320D01*
X182028574Y-64660147D01*
X181751335Y-64605000D01*
X181468665Y-64605000D01*
X181191426Y-64660147D01*
X180930273Y-64768320D01*
X180695241Y-64925363D01*
X180495363Y-65125241D01*
X180340000Y-65357759D01*
X180184637Y-65125241D01*
X179984759Y-64925363D01*
X179749727Y-64768320D01*
X179488574Y-64660147D01*
X179211335Y-64605000D01*
X178928665Y-64605000D01*
X178651426Y-64660147D01*
X178390273Y-64768320D01*
X178155241Y-64925363D01*
X177955363Y-65125241D01*
X177800000Y-65357759D01*
X177644637Y-65125241D01*
X177444759Y-64925363D01*
X177209727Y-64768320D01*
X176948574Y-64660147D01*
X176671335Y-64605000D01*
X176388665Y-64605000D01*
X176111426Y-64660147D01*
X175850273Y-64768320D01*
X175615241Y-64925363D01*
X175415363Y-65125241D01*
X175260000Y-65357759D01*
X175104637Y-65125241D01*
X174904759Y-64925363D01*
X174669727Y-64768320D01*
X174408574Y-64660147D01*
X174131335Y-64605000D01*
X173848665Y-64605000D01*
X173571426Y-64660147D01*
X173310273Y-64768320D01*
X173075241Y-64925363D01*
X172875363Y-65125241D01*
X172720000Y-65357759D01*
X172564637Y-65125241D01*
X172364759Y-64925363D01*
X172129727Y-64768320D01*
X171868574Y-64660147D01*
X171591335Y-64605000D01*
X171308665Y-64605000D01*
X171031426Y-64660147D01*
X170770273Y-64768320D01*
X170535241Y-64925363D01*
X170335363Y-65125241D01*
X170180000Y-65357759D01*
X170024637Y-65125241D01*
X169824759Y-64925363D01*
X169589727Y-64768320D01*
X169328574Y-64660147D01*
X169051335Y-64605000D01*
X168768665Y-64605000D01*
X168491426Y-64660147D01*
X168230273Y-64768320D01*
X167995241Y-64925363D01*
X167795363Y-65125241D01*
X167640000Y-65357759D01*
X167484637Y-65125241D01*
X167284759Y-64925363D01*
X167049727Y-64768320D01*
X166788574Y-64660147D01*
X166511335Y-64605000D01*
X166228665Y-64605000D01*
X165951426Y-64660147D01*
X165690273Y-64768320D01*
X165455241Y-64925363D01*
X165255363Y-65125241D01*
X165098320Y-65360273D01*
X164990147Y-65621426D01*
X164935000Y-65898665D01*
X164935000Y-66181335D01*
X164990147Y-66458574D01*
X165098320Y-66719727D01*
X165235000Y-66924284D01*
X165235001Y-68109867D01*
X158279869Y-75065000D01*
X153725751Y-75065000D01*
X153670000Y-75059509D01*
X153614248Y-75065000D01*
X153447501Y-75081423D01*
X153233553Y-75146324D01*
X153036377Y-75251716D01*
X152863551Y-75393551D01*
X152721716Y-75566377D01*
X152616324Y-75763553D01*
X152551423Y-75977501D01*
X152529509Y-76200000D01*
X152535000Y-76255752D01*
X152535001Y-80396538D01*
X152481595Y-80461613D01*
X152399528Y-80615149D01*
X152348992Y-80781745D01*
X152331928Y-80954999D01*
X152331928Y-81605001D01*
X152348992Y-81778255D01*
X152399528Y-81944851D01*
X152481595Y-82098387D01*
X152592038Y-82232962D01*
X152679816Y-82305000D01*
X152592038Y-82377038D01*
X152481595Y-82511613D01*
X152399528Y-82665149D01*
X152348992Y-82831745D01*
X152331928Y-83004999D01*
X152331928Y-83655001D01*
X152348992Y-83828255D01*
X152399528Y-83994851D01*
X152481595Y-84148387D01*
X152535000Y-84213461D01*
X152535001Y-86969118D01*
X152498815Y-86998815D01*
X152419463Y-87095506D01*
X152400000Y-87131918D01*
X152380537Y-87095506D01*
X152301185Y-86998815D01*
X152204494Y-86919463D01*
X152094180Y-86860498D01*
X151974482Y-86824188D01*
X151850000Y-86811928D01*
X151735750Y-86815000D01*
X151577000Y-86973750D01*
X151577000Y-87773000D01*
X151597000Y-87773000D01*
X151597000Y-88027000D01*
X151577000Y-88027000D01*
X151577000Y-88826250D01*
X151661607Y-88910857D01*
X151645506Y-88919463D01*
X151548815Y-88998815D01*
X151469463Y-89095506D01*
X151410498Y-89205820D01*
X151374188Y-89325518D01*
X151363816Y-89430828D01*
X151346324Y-89463554D01*
X151281423Y-89677502D01*
X151265000Y-89844249D01*
X151265001Y-94284892D01*
X151246525Y-94303368D01*
X151084010Y-94546589D01*
X150972068Y-94816842D01*
X150915000Y-95103740D01*
X150915000Y-95396260D01*
X150972068Y-95683158D01*
X151084010Y-95953411D01*
X151218707Y-96155000D01*
X148455000Y-96155000D01*
X148455000Y-95082521D01*
X148509458Y-95016164D01*
X148590947Y-94863709D01*
X148641128Y-94698285D01*
X148658072Y-94526250D01*
X148658072Y-94038750D01*
X148641128Y-93866715D01*
X148590947Y-93701291D01*
X148509458Y-93548836D01*
X148399792Y-93415208D01*
X148393436Y-93409992D01*
X148471185Y-93346185D01*
X148550537Y-93249494D01*
X148609502Y-93139180D01*
X148645812Y-93019482D01*
X148658072Y-92895000D01*
X148655000Y-92693250D01*
X148496250Y-92534500D01*
X147447000Y-92534500D01*
X147447000Y-92554500D01*
X147193000Y-92554500D01*
X147193000Y-92534500D01*
X146143750Y-92534500D01*
X145985000Y-92693250D01*
X145981928Y-92895000D01*
X145994188Y-93019482D01*
X146030498Y-93139180D01*
X146089463Y-93249494D01*
X146168815Y-93346185D01*
X146246564Y-93409992D01*
X146240208Y-93415208D01*
X146130542Y-93548836D01*
X146049053Y-93701291D01*
X145998872Y-93866715D01*
X145981928Y-94038750D01*
X145981928Y-94526250D01*
X145998872Y-94698285D01*
X146049053Y-94863709D01*
X146130542Y-95016164D01*
X146185000Y-95082521D01*
X146185001Y-96155000D01*
X140118072Y-96155000D01*
X140118072Y-95695000D01*
X140101008Y-95521746D01*
X140050472Y-95355150D01*
X139968405Y-95201614D01*
X139857962Y-95067038D01*
X139723386Y-94956595D01*
X139569850Y-94874528D01*
X139403254Y-94823992D01*
X139230000Y-94806928D01*
X137630000Y-94806928D01*
X137456746Y-94823992D01*
X137290150Y-94874528D01*
X137136614Y-94956595D01*
X137002038Y-95067038D01*
X136891595Y-95201614D01*
X136809528Y-95355150D01*
X136758992Y-95521746D01*
X136741928Y-95695000D01*
X136741928Y-96117957D01*
X130540000Y-96147258D01*
X130540000Y-94534678D01*
X130516343Y-94294484D01*
X130422852Y-93986285D01*
X130393072Y-93930571D01*
X130393072Y-93765000D01*
X130380812Y-93640518D01*
X130344502Y-93520820D01*
X130285537Y-93410506D01*
X130206185Y-93313815D01*
X130109494Y-93234463D01*
X129999180Y-93175498D01*
X129918534Y-93151034D01*
X130002588Y-93075269D01*
X130176641Y-92841920D01*
X130301825Y-92579099D01*
X130346476Y-92431890D01*
X130225155Y-92202000D01*
X129032000Y-92202000D01*
X129032000Y-92222000D01*
X128778000Y-92222000D01*
X128778000Y-92202000D01*
X127584845Y-92202000D01*
X127463524Y-92431890D01*
X127508175Y-92579099D01*
X127633359Y-92841920D01*
X127807412Y-93075269D01*
X127891466Y-93151034D01*
X127810820Y-93175498D01*
X127700506Y-93234463D01*
X127603815Y-93313815D01*
X127524463Y-93410506D01*
X127465498Y-93520820D01*
X127429188Y-93640518D01*
X127416928Y-93765000D01*
X127416928Y-93930572D01*
X127387148Y-93986286D01*
X127293657Y-94294485D01*
X127270000Y-94534679D01*
X127270001Y-96140323D01*
X125460000Y-96124146D01*
X125460000Y-94534678D01*
X125436343Y-94294484D01*
X125342852Y-93986285D01*
X125313072Y-93930571D01*
X125313072Y-93765000D01*
X125300812Y-93640518D01*
X125264502Y-93520820D01*
X125205537Y-93410506D01*
X125126185Y-93313815D01*
X125029494Y-93234463D01*
X124919180Y-93175498D01*
X124838534Y-93151034D01*
X124922588Y-93075269D01*
X125096641Y-92841920D01*
X125221825Y-92579099D01*
X125266476Y-92431890D01*
X125145155Y-92202000D01*
X123952000Y-92202000D01*
X123952000Y-92222000D01*
X123698000Y-92222000D01*
X123698000Y-92202000D01*
X122504845Y-92202000D01*
X122383524Y-92431890D01*
X122428175Y-92579099D01*
X122553359Y-92841920D01*
X122727412Y-93075269D01*
X122811466Y-93151034D01*
X122730820Y-93175498D01*
X122620506Y-93234463D01*
X122523815Y-93313815D01*
X122444463Y-93410506D01*
X122385498Y-93520820D01*
X122349188Y-93640518D01*
X122336928Y-93765000D01*
X122336928Y-93930572D01*
X122307149Y-93986285D01*
X122213658Y-94294484D01*
X122190001Y-94534678D01*
X122190000Y-97619680D01*
X122182089Y-97700000D01*
X122190000Y-97780319D01*
X122190000Y-97780321D01*
X122213657Y-98020515D01*
X122307148Y-98328714D01*
X122458969Y-98612751D01*
X122663286Y-98861714D01*
X122683384Y-98878208D01*
X122697951Y-98896285D01*
X122765498Y-98952737D01*
X122770677Y-98957916D01*
X122827129Y-99004245D01*
X122945077Y-99102819D01*
X122951549Y-99106353D01*
X122957248Y-99111030D01*
X123092804Y-99183486D01*
X123227745Y-99257172D01*
X123234782Y-99259375D01*
X123241286Y-99262852D01*
X123388427Y-99307487D01*
X123535097Y-99353414D01*
X123542426Y-99354202D01*
X123549484Y-99356343D01*
X123702554Y-99371419D01*
X123775070Y-99379216D01*
X123782381Y-99379281D01*
X123870000Y-99387911D01*
X123943040Y-99380717D01*
X128817385Y-99424282D01*
X128905000Y-99432911D01*
X128989177Y-99424620D01*
X136741928Y-99387993D01*
X136741928Y-99795000D01*
X136758992Y-99968254D01*
X136809528Y-100134850D01*
X136891595Y-100288386D01*
X137002038Y-100422962D01*
X137136614Y-100533405D01*
X137290150Y-100615472D01*
X137456746Y-100666008D01*
X137630000Y-100683072D01*
X139230000Y-100683072D01*
X139403254Y-100666008D01*
X139569850Y-100615472D01*
X139723386Y-100533405D01*
X139857962Y-100422962D01*
X139968405Y-100288386D01*
X140050472Y-100134850D01*
X140101008Y-99968254D01*
X140118072Y-99795000D01*
X140118072Y-99425000D01*
X150765001Y-99425000D01*
X150765000Y-107869678D01*
X150757089Y-107950000D01*
X150788657Y-108270516D01*
X150882148Y-108578715D01*
X151033969Y-108862752D01*
X151086157Y-108926343D01*
X151238286Y-109111714D01*
X151487248Y-109316031D01*
X151771285Y-109467852D01*
X152079484Y-109561343D01*
X152400000Y-109592911D01*
X152480322Y-109585000D01*
X158669678Y-109585000D01*
X158750000Y-109592911D01*
X158830322Y-109585000D01*
X164384681Y-109585000D01*
X164465000Y-109592911D01*
X164545319Y-109585000D01*
X165814298Y-109585000D01*
X165741286Y-109607148D01*
X165685572Y-109636928D01*
X165520000Y-109636928D01*
X165395518Y-109649188D01*
X165275820Y-109685498D01*
X165165506Y-109744463D01*
X165068815Y-109823815D01*
X164989463Y-109920506D01*
X164930498Y-110030820D01*
X164894188Y-110150518D01*
X164881928Y-110275000D01*
X164881928Y-110440572D01*
X164852149Y-110496285D01*
X164758658Y-110804484D01*
X164735001Y-111044678D01*
X164735000Y-113193182D01*
X164567420Y-113068963D01*
X164313087Y-112948754D01*
X164179039Y-112908096D01*
X163957000Y-113030085D01*
X163957000Y-114173000D01*
X163977000Y-114173000D01*
X163977000Y-114427000D01*
X163957000Y-114427000D01*
X163957000Y-115569915D01*
X164179039Y-115691904D01*
X164313087Y-115651246D01*
X164567420Y-115531037D01*
X164793414Y-115363519D01*
X164976588Y-115161524D01*
X165003969Y-115212751D01*
X165208286Y-115461714D01*
X165457248Y-115666031D01*
X165741285Y-115817852D01*
X166049484Y-115911343D01*
X166370000Y-115942911D01*
X166690515Y-115911343D01*
X166998714Y-115817852D01*
X167282751Y-115666031D01*
X167531714Y-115461714D01*
X167736031Y-115212752D01*
X167887852Y-114928715D01*
X167981343Y-114620516D01*
X168005000Y-114380322D01*
X168005000Y-114158665D01*
X170015000Y-114158665D01*
X170015000Y-114441335D01*
X170070147Y-114718574D01*
X170178320Y-114979727D01*
X170335363Y-115214759D01*
X170535241Y-115414637D01*
X170770273Y-115571680D01*
X171031426Y-115679853D01*
X171308665Y-115735000D01*
X171591335Y-115735000D01*
X171868574Y-115679853D01*
X172129727Y-115571680D01*
X172364759Y-115414637D01*
X172564637Y-115214759D01*
X172720000Y-114982241D01*
X172875363Y-115214759D01*
X173075241Y-115414637D01*
X173310273Y-115571680D01*
X173571426Y-115679853D01*
X173848665Y-115735000D01*
X174131335Y-115735000D01*
X174408574Y-115679853D01*
X174669727Y-115571680D01*
X174904759Y-115414637D01*
X175104637Y-115214759D01*
X175260000Y-114982241D01*
X175415363Y-115214759D01*
X175615241Y-115414637D01*
X175850273Y-115571680D01*
X176111426Y-115679853D01*
X176388665Y-115735000D01*
X176671335Y-115735000D01*
X176948574Y-115679853D01*
X177209727Y-115571680D01*
X177444759Y-115414637D01*
X177644637Y-115214759D01*
X177800000Y-114982241D01*
X177955363Y-115214759D01*
X178155241Y-115414637D01*
X178390273Y-115571680D01*
X178651426Y-115679853D01*
X178928665Y-115735000D01*
X179211335Y-115735000D01*
X179488574Y-115679853D01*
X179749727Y-115571680D01*
X179984759Y-115414637D01*
X180184637Y-115214759D01*
X180340000Y-114982241D01*
X180495363Y-115214759D01*
X180695241Y-115414637D01*
X180930273Y-115571680D01*
X181191426Y-115679853D01*
X181468665Y-115735000D01*
X181751335Y-115735000D01*
X182028574Y-115679853D01*
X182289727Y-115571680D01*
X182524759Y-115414637D01*
X182724637Y-115214759D01*
X182880000Y-114982241D01*
X183035363Y-115214759D01*
X183235241Y-115414637D01*
X183470273Y-115571680D01*
X183731426Y-115679853D01*
X184008665Y-115735000D01*
X184291335Y-115735000D01*
X184568574Y-115679853D01*
X184829727Y-115571680D01*
X185064759Y-115414637D01*
X185264637Y-115214759D01*
X185421680Y-114979727D01*
X185529853Y-114718574D01*
X185585000Y-114441335D01*
X185585000Y-114158665D01*
X185529853Y-113881426D01*
X185421680Y-113620273D01*
X185264637Y-113385241D01*
X185064759Y-113185363D01*
X184829727Y-113028320D01*
X184568574Y-112920147D01*
X184291335Y-112865000D01*
X184008665Y-112865000D01*
X183731426Y-112920147D01*
X183470273Y-113028320D01*
X183235241Y-113185363D01*
X183035363Y-113385241D01*
X182880000Y-113617759D01*
X182724637Y-113385241D01*
X182524759Y-113185363D01*
X182289727Y-113028320D01*
X182028574Y-112920147D01*
X181751335Y-112865000D01*
X181468665Y-112865000D01*
X181191426Y-112920147D01*
X180930273Y-113028320D01*
X180695241Y-113185363D01*
X180495363Y-113385241D01*
X180340000Y-113617759D01*
X180184637Y-113385241D01*
X179984759Y-113185363D01*
X179749727Y-113028320D01*
X179488574Y-112920147D01*
X179211335Y-112865000D01*
X178928665Y-112865000D01*
X178651426Y-112920147D01*
X178390273Y-113028320D01*
X178155241Y-113185363D01*
X177955363Y-113385241D01*
X177800000Y-113617759D01*
X177644637Y-113385241D01*
X177444759Y-113185363D01*
X177209727Y-113028320D01*
X176948574Y-112920147D01*
X176671335Y-112865000D01*
X176388665Y-112865000D01*
X176111426Y-112920147D01*
X175850273Y-113028320D01*
X175615241Y-113185363D01*
X175415363Y-113385241D01*
X175260000Y-113617759D01*
X175104637Y-113385241D01*
X174904759Y-113185363D01*
X174669727Y-113028320D01*
X174408574Y-112920147D01*
X174131335Y-112865000D01*
X173848665Y-112865000D01*
X173571426Y-112920147D01*
X173310273Y-113028320D01*
X173075241Y-113185363D01*
X172875363Y-113385241D01*
X172720000Y-113617759D01*
X172564637Y-113385241D01*
X172364759Y-113185363D01*
X172129727Y-113028320D01*
X171868574Y-112920147D01*
X171591335Y-112865000D01*
X171308665Y-112865000D01*
X171031426Y-112920147D01*
X170770273Y-113028320D01*
X170535241Y-113185363D01*
X170335363Y-113385241D01*
X170178320Y-113620273D01*
X170070147Y-113881426D01*
X170015000Y-114158665D01*
X168005000Y-114158665D01*
X168005000Y-112495175D01*
X168281285Y-112642852D01*
X168589484Y-112736343D01*
X168829678Y-112760000D01*
X170734678Y-112760000D01*
X170815000Y-112767911D01*
X170895322Y-112760000D01*
X171135516Y-112736343D01*
X171443715Y-112642852D01*
X171727752Y-112491031D01*
X171976714Y-112286714D01*
X172181031Y-112037752D01*
X172332852Y-111753715D01*
X172426343Y-111445516D01*
X172457911Y-111125000D01*
X172450000Y-111044678D01*
X172450000Y-109585000D01*
X177719678Y-109585000D01*
X177800000Y-109592911D01*
X177880322Y-109585000D01*
X184069678Y-109585000D01*
X184150000Y-109592911D01*
X184470516Y-109561343D01*
X184778715Y-109467852D01*
X185062752Y-109316031D01*
X185311714Y-109111714D01*
X185516031Y-108862752D01*
X185667852Y-108578715D01*
X185761343Y-108270516D01*
X185785000Y-108030322D01*
X185785000Y-108030321D01*
X185792911Y-107950000D01*
X185785000Y-107869678D01*
X185785000Y-97709678D01*
X185761343Y-97469484D01*
X185667852Y-97161285D01*
X185638072Y-97105571D01*
X185638072Y-96940000D01*
X185625812Y-96815518D01*
X185589502Y-96695820D01*
X185530537Y-96585506D01*
X185451185Y-96488815D01*
X185354494Y-96409463D01*
X185244180Y-96350498D01*
X185171620Y-96328487D01*
X185303475Y-96196632D01*
X185465990Y-95953411D01*
X185577932Y-95683158D01*
X185635000Y-95396260D01*
X185635000Y-95103740D01*
X185577932Y-94816842D01*
X185465990Y-94546589D01*
X185303475Y-94303368D01*
X185285000Y-94284893D01*
X185285000Y-89844248D01*
X185268577Y-89677501D01*
X185203676Y-89463553D01*
X185186184Y-89430827D01*
X185175812Y-89325518D01*
X185139502Y-89205820D01*
X185080537Y-89095506D01*
X185029706Y-89033568D01*
X185100000Y-89040491D01*
X185322498Y-89018577D01*
X185423059Y-88988072D01*
X185500000Y-88988072D01*
X185624482Y-88975812D01*
X185744180Y-88939502D01*
X185854494Y-88880537D01*
X185951185Y-88801185D01*
X186030537Y-88704494D01*
X186089502Y-88594180D01*
X186123706Y-88481425D01*
X186183135Y-88421996D01*
X186226449Y-88386449D01*
X186368284Y-88213623D01*
X186473676Y-88016447D01*
X186538577Y-87802499D01*
X186555000Y-87635752D01*
X186555000Y-87635743D01*
X186560490Y-87580001D01*
X186555000Y-87524259D01*
X186555000Y-84703461D01*
X186608405Y-84638387D01*
X186690472Y-84484851D01*
X186741008Y-84318255D01*
X186758072Y-84145001D01*
X186758072Y-83494999D01*
X186741008Y-83321745D01*
X186690472Y-83155149D01*
X186608405Y-83001613D01*
X186497962Y-82867038D01*
X186410184Y-82795000D01*
X186497962Y-82722962D01*
X186608405Y-82588387D01*
X186690472Y-82434851D01*
X186741008Y-82268255D01*
X186758072Y-82095001D01*
X186758072Y-81444999D01*
X186741008Y-81271745D01*
X186690472Y-81105149D01*
X186608405Y-80951613D01*
X186555000Y-80886539D01*
X186555000Y-76998380D01*
X188570000Y-79013381D01*
X188570001Y-111486618D01*
X186246236Y-113810384D01*
X186221052Y-113831052D01*
X186200386Y-113856234D01*
X186138575Y-113931550D01*
X186077291Y-114046207D01*
X186077290Y-114046208D01*
X186039550Y-114170618D01*
X186030000Y-114267582D01*
X186030000Y-114267591D01*
X186026808Y-114300000D01*
X186030000Y-114332409D01*
X186030001Y-116180000D01*
X121310000Y-116180000D01*
X121310000Y-113500000D01*
X147151928Y-113500000D01*
X147151928Y-115100000D01*
X147164188Y-115224482D01*
X147200498Y-115344180D01*
X147259463Y-115454494D01*
X147338815Y-115551185D01*
X147435506Y-115630537D01*
X147545820Y-115689502D01*
X147665518Y-115725812D01*
X147790000Y-115738072D01*
X149390000Y-115738072D01*
X149514482Y-115725812D01*
X149634180Y-115689502D01*
X149744494Y-115630537D01*
X149841185Y-115551185D01*
X149920537Y-115454494D01*
X149979502Y-115344180D01*
X150015812Y-115224482D01*
X150016643Y-115216039D01*
X150215241Y-115414637D01*
X150450273Y-115571680D01*
X150711426Y-115679853D01*
X150988665Y-115735000D01*
X151271335Y-115735000D01*
X151548574Y-115679853D01*
X151809727Y-115571680D01*
X152044759Y-115414637D01*
X152244637Y-115214759D01*
X152400000Y-114982241D01*
X152555363Y-115214759D01*
X152755241Y-115414637D01*
X152990273Y-115571680D01*
X153251426Y-115679853D01*
X153528665Y-115735000D01*
X153811335Y-115735000D01*
X154088574Y-115679853D01*
X154349727Y-115571680D01*
X154584759Y-115414637D01*
X154784637Y-115214759D01*
X154940000Y-114982241D01*
X155095363Y-115214759D01*
X155295241Y-115414637D01*
X155530273Y-115571680D01*
X155791426Y-115679853D01*
X156068665Y-115735000D01*
X156351335Y-115735000D01*
X156628574Y-115679853D01*
X156889727Y-115571680D01*
X157124759Y-115414637D01*
X157324637Y-115214759D01*
X157480000Y-114982241D01*
X157635363Y-115214759D01*
X157835241Y-115414637D01*
X158070273Y-115571680D01*
X158331426Y-115679853D01*
X158608665Y-115735000D01*
X158891335Y-115735000D01*
X159168574Y-115679853D01*
X159429727Y-115571680D01*
X159664759Y-115414637D01*
X159864637Y-115214759D01*
X160021680Y-114979727D01*
X160026067Y-114969135D01*
X160137615Y-115155131D01*
X160326586Y-115363519D01*
X160552580Y-115531037D01*
X160806913Y-115651246D01*
X160940961Y-115691904D01*
X161163000Y-115569915D01*
X161163000Y-114427000D01*
X161417000Y-114427000D01*
X161417000Y-115569915D01*
X161639039Y-115691904D01*
X161773087Y-115651246D01*
X162027420Y-115531037D01*
X162253414Y-115363519D01*
X162442385Y-115155131D01*
X162560000Y-114959018D01*
X162677615Y-115155131D01*
X162866586Y-115363519D01*
X163092580Y-115531037D01*
X163346913Y-115651246D01*
X163480961Y-115691904D01*
X163703000Y-115569915D01*
X163703000Y-114427000D01*
X161417000Y-114427000D01*
X161163000Y-114427000D01*
X161143000Y-114427000D01*
X161143000Y-114173000D01*
X161163000Y-114173000D01*
X161163000Y-113030085D01*
X161417000Y-113030085D01*
X161417000Y-114173000D01*
X163703000Y-114173000D01*
X163703000Y-113030085D01*
X163480961Y-112908096D01*
X163346913Y-112948754D01*
X163092580Y-113068963D01*
X162866586Y-113236481D01*
X162677615Y-113444869D01*
X162560000Y-113640982D01*
X162442385Y-113444869D01*
X162253414Y-113236481D01*
X162027420Y-113068963D01*
X161773087Y-112948754D01*
X161639039Y-112908096D01*
X161417000Y-113030085D01*
X161163000Y-113030085D01*
X160940961Y-112908096D01*
X160806913Y-112948754D01*
X160552580Y-113068963D01*
X160326586Y-113236481D01*
X160137615Y-113444869D01*
X160026067Y-113630865D01*
X160021680Y-113620273D01*
X159864637Y-113385241D01*
X159664759Y-113185363D01*
X159429727Y-113028320D01*
X159168574Y-112920147D01*
X158891335Y-112865000D01*
X158608665Y-112865000D01*
X158331426Y-112920147D01*
X158070273Y-113028320D01*
X157835241Y-113185363D01*
X157635363Y-113385241D01*
X157480000Y-113617759D01*
X157324637Y-113385241D01*
X157124759Y-113185363D01*
X156889727Y-113028320D01*
X156628574Y-112920147D01*
X156351335Y-112865000D01*
X156068665Y-112865000D01*
X155791426Y-112920147D01*
X155530273Y-113028320D01*
X155295241Y-113185363D01*
X155095363Y-113385241D01*
X154940000Y-113617759D01*
X154784637Y-113385241D01*
X154584759Y-113185363D01*
X154349727Y-113028320D01*
X154088574Y-112920147D01*
X153811335Y-112865000D01*
X153528665Y-112865000D01*
X153251426Y-112920147D01*
X152990273Y-113028320D01*
X152755241Y-113185363D01*
X152555363Y-113385241D01*
X152400000Y-113617759D01*
X152244637Y-113385241D01*
X152044759Y-113185363D01*
X151809727Y-113028320D01*
X151548574Y-112920147D01*
X151271335Y-112865000D01*
X150988665Y-112865000D01*
X150711426Y-112920147D01*
X150450273Y-113028320D01*
X150215241Y-113185363D01*
X150016643Y-113383961D01*
X150015812Y-113375518D01*
X149979502Y-113255820D01*
X149920537Y-113145506D01*
X149841185Y-113048815D01*
X149744494Y-112969463D01*
X149634180Y-112910498D01*
X149514482Y-112874188D01*
X149390000Y-112861928D01*
X147790000Y-112861928D01*
X147665518Y-112874188D01*
X147545820Y-112910498D01*
X147435506Y-112969463D01*
X147338815Y-113048815D01*
X147259463Y-113145506D01*
X147200498Y-113255820D01*
X147164188Y-113375518D01*
X147151928Y-113500000D01*
X121310000Y-113500000D01*
X121310000Y-91718110D01*
X122383524Y-91718110D01*
X122504845Y-91948000D01*
X123698000Y-91948000D01*
X123698000Y-90754186D01*
X123952000Y-90754186D01*
X123952000Y-91948000D01*
X125145155Y-91948000D01*
X125266476Y-91718110D01*
X127463524Y-91718110D01*
X127584845Y-91948000D01*
X128778000Y-91948000D01*
X128778000Y-90754186D01*
X129032000Y-90754186D01*
X129032000Y-91948000D01*
X130225155Y-91948000D01*
X130239931Y-91920000D01*
X145981928Y-91920000D01*
X145985000Y-92121750D01*
X146143750Y-92280500D01*
X147193000Y-92280500D01*
X147193000Y-91443750D01*
X147447000Y-91443750D01*
X147447000Y-92280500D01*
X148496250Y-92280500D01*
X148655000Y-92121750D01*
X148658072Y-91920000D01*
X148645812Y-91795518D01*
X148609502Y-91675820D01*
X148550537Y-91565506D01*
X148471185Y-91468815D01*
X148374494Y-91389463D01*
X148264180Y-91330498D01*
X148144482Y-91294188D01*
X148020000Y-91281928D01*
X147605750Y-91285000D01*
X147447000Y-91443750D01*
X147193000Y-91443750D01*
X147034250Y-91285000D01*
X146620000Y-91281928D01*
X146495518Y-91294188D01*
X146375820Y-91330498D01*
X146265506Y-91389463D01*
X146168815Y-91468815D01*
X146089463Y-91565506D01*
X146030498Y-91675820D01*
X145994188Y-91795518D01*
X145981928Y-91920000D01*
X130239931Y-91920000D01*
X130346476Y-91718110D01*
X130301825Y-91570901D01*
X130176641Y-91308080D01*
X130129591Y-91245000D01*
X136741928Y-91245000D01*
X136754188Y-91369482D01*
X136790498Y-91489180D01*
X136849463Y-91599494D01*
X136928815Y-91696185D01*
X137025506Y-91775537D01*
X137135820Y-91834502D01*
X137255518Y-91870812D01*
X137380000Y-91883072D01*
X138144250Y-91880000D01*
X138303000Y-91721250D01*
X138303000Y-89072000D01*
X138557000Y-89072000D01*
X138557000Y-91721250D01*
X138715750Y-91880000D01*
X139480000Y-91883072D01*
X139604482Y-91870812D01*
X139724180Y-91834502D01*
X139834494Y-91775537D01*
X139931185Y-91696185D01*
X140010537Y-91599494D01*
X140069502Y-91489180D01*
X140105812Y-91369482D01*
X140118072Y-91245000D01*
X140115000Y-89230750D01*
X139956250Y-89072000D01*
X138557000Y-89072000D01*
X138303000Y-89072000D01*
X136903750Y-89072000D01*
X136745000Y-89230750D01*
X136741928Y-91245000D01*
X130129591Y-91245000D01*
X130002588Y-91074731D01*
X129786355Y-90879822D01*
X129536252Y-90730843D01*
X129261891Y-90633519D01*
X129032000Y-90754186D01*
X128778000Y-90754186D01*
X128548109Y-90633519D01*
X128273748Y-90730843D01*
X128023645Y-90879822D01*
X127807412Y-91074731D01*
X127633359Y-91308080D01*
X127508175Y-91570901D01*
X127463524Y-91718110D01*
X125266476Y-91718110D01*
X125221825Y-91570901D01*
X125096641Y-91308080D01*
X124922588Y-91074731D01*
X124706355Y-90879822D01*
X124456252Y-90730843D01*
X124181891Y-90633519D01*
X123952000Y-90754186D01*
X123698000Y-90754186D01*
X123468109Y-90633519D01*
X123193748Y-90730843D01*
X122943645Y-90879822D01*
X122727412Y-91074731D01*
X122553359Y-91308080D01*
X122428175Y-91570901D01*
X122383524Y-91718110D01*
X121310000Y-91718110D01*
X121310000Y-86645000D01*
X136741928Y-86645000D01*
X136745000Y-88659250D01*
X136903750Y-88818000D01*
X138303000Y-88818000D01*
X138303000Y-86168750D01*
X138557000Y-86168750D01*
X138557000Y-88818000D01*
X139956250Y-88818000D01*
X140115000Y-88659250D01*
X140115471Y-88350000D01*
X150411928Y-88350000D01*
X150424188Y-88474482D01*
X150460498Y-88594180D01*
X150519463Y-88704494D01*
X150598815Y-88801185D01*
X150695506Y-88880537D01*
X150805820Y-88939502D01*
X150925518Y-88975812D01*
X151050000Y-88988072D01*
X151164250Y-88985000D01*
X151323000Y-88826250D01*
X151323000Y-88027000D01*
X150573750Y-88027000D01*
X150415000Y-88185750D01*
X150411928Y-88350000D01*
X140115471Y-88350000D01*
X140116843Y-87450000D01*
X150411928Y-87450000D01*
X150415000Y-87614250D01*
X150573750Y-87773000D01*
X151323000Y-87773000D01*
X151323000Y-86973750D01*
X151164250Y-86815000D01*
X151050000Y-86811928D01*
X150925518Y-86824188D01*
X150805820Y-86860498D01*
X150695506Y-86919463D01*
X150598815Y-86998815D01*
X150519463Y-87095506D01*
X150460498Y-87205820D01*
X150424188Y-87325518D01*
X150411928Y-87450000D01*
X140116843Y-87450000D01*
X140118072Y-86645000D01*
X140105812Y-86520518D01*
X140069502Y-86400820D01*
X140010537Y-86290506D01*
X139931185Y-86193815D01*
X139834494Y-86114463D01*
X139724180Y-86055498D01*
X139604482Y-86019188D01*
X139480000Y-86006928D01*
X138715750Y-86010000D01*
X138557000Y-86168750D01*
X138303000Y-86168750D01*
X138144250Y-86010000D01*
X137380000Y-86006928D01*
X137255518Y-86019188D01*
X137135820Y-86055498D01*
X137025506Y-86114463D01*
X136928815Y-86193815D01*
X136849463Y-86290506D01*
X136790498Y-86400820D01*
X136754188Y-86520518D01*
X136741928Y-86645000D01*
X121310000Y-86645000D01*
X121310000Y-78666891D01*
X142068519Y-78666891D01*
X142165843Y-78941252D01*
X142314822Y-79191355D01*
X142509731Y-79407588D01*
X142743080Y-79581641D01*
X143005901Y-79706825D01*
X143153110Y-79751476D01*
X143383000Y-79630155D01*
X143383000Y-78437000D01*
X142189186Y-78437000D01*
X142068519Y-78666891D01*
X121310000Y-78666891D01*
X121310000Y-77953109D01*
X142068519Y-77953109D01*
X142189186Y-78183000D01*
X143383000Y-78183000D01*
X143383000Y-76989845D01*
X143153110Y-76868524D01*
X143005901Y-76913175D01*
X142743080Y-77038359D01*
X142509731Y-77212412D01*
X142314822Y-77428645D01*
X142165843Y-77678748D01*
X142068519Y-77953109D01*
X121310000Y-77953109D01*
X121310000Y-72746891D01*
X142068519Y-72746891D01*
X142165843Y-73021252D01*
X142314822Y-73271355D01*
X142509731Y-73487588D01*
X142743080Y-73661641D01*
X143005901Y-73786825D01*
X143153110Y-73831476D01*
X143383000Y-73710155D01*
X143383000Y-72517000D01*
X142189186Y-72517000D01*
X142068519Y-72746891D01*
X121310000Y-72746891D01*
X121310000Y-72033109D01*
X142068519Y-72033109D01*
X142189186Y-72263000D01*
X143383000Y-72263000D01*
X143383000Y-71069845D01*
X143637000Y-71069845D01*
X143637000Y-72263000D01*
X143657000Y-72263000D01*
X143657000Y-72517000D01*
X143637000Y-72517000D01*
X143637000Y-73710155D01*
X143866890Y-73831476D01*
X144014099Y-73786825D01*
X144276920Y-73661641D01*
X144510269Y-73487588D01*
X144586034Y-73403534D01*
X144610498Y-73484180D01*
X144669463Y-73594494D01*
X144748815Y-73691185D01*
X144845506Y-73770537D01*
X144955820Y-73829502D01*
X145075518Y-73865812D01*
X145200000Y-73878072D01*
X146900000Y-73878072D01*
X147024482Y-73865812D01*
X147144180Y-73829502D01*
X147254494Y-73770537D01*
X147351185Y-73691185D01*
X147430537Y-73594494D01*
X147489502Y-73484180D01*
X147525812Y-73364482D01*
X147538072Y-73240000D01*
X147538072Y-71620000D01*
X156789249Y-71620000D01*
X156845000Y-71625491D01*
X156900751Y-71620000D01*
X156900752Y-71620000D01*
X157067499Y-71603577D01*
X157281447Y-71538676D01*
X157478623Y-71433284D01*
X157651449Y-71291449D01*
X157686996Y-71248135D01*
X160533146Y-68401987D01*
X160576449Y-68366449D01*
X160621249Y-68311861D01*
X160718284Y-68193623D01*
X160823676Y-67996447D01*
X160888577Y-67782499D01*
X160910491Y-67560000D01*
X160905000Y-67504248D01*
X160905000Y-66924284D01*
X161040000Y-66722241D01*
X161175000Y-66924284D01*
X161175000Y-68359867D01*
X157009869Y-72525000D01*
X151185751Y-72525000D01*
X151130000Y-72519509D01*
X151074248Y-72525000D01*
X150907501Y-72541423D01*
X150693553Y-72606324D01*
X150496377Y-72711716D01*
X150323551Y-72853551D01*
X150181716Y-73026377D01*
X150076324Y-73223553D01*
X150011423Y-73437501D01*
X149989509Y-73660000D01*
X149995000Y-73715752D01*
X149995001Y-75729867D01*
X148549869Y-77175000D01*
X147467683Y-77175000D01*
X147430537Y-77105506D01*
X147351185Y-77008815D01*
X147254494Y-76929463D01*
X147144180Y-76870498D01*
X147024482Y-76834188D01*
X146900000Y-76821928D01*
X145200000Y-76821928D01*
X145075518Y-76834188D01*
X144955820Y-76870498D01*
X144845506Y-76929463D01*
X144748815Y-77008815D01*
X144669463Y-77105506D01*
X144610498Y-77215820D01*
X144586034Y-77296466D01*
X144510269Y-77212412D01*
X144276920Y-77038359D01*
X144014099Y-76913175D01*
X143866890Y-76868524D01*
X143637000Y-76989845D01*
X143637000Y-78183000D01*
X143657000Y-78183000D01*
X143657000Y-78437000D01*
X143637000Y-78437000D01*
X143637000Y-79630155D01*
X143866890Y-79751476D01*
X144014099Y-79706825D01*
X144276920Y-79581641D01*
X144510269Y-79407588D01*
X144586034Y-79323534D01*
X144610498Y-79404180D01*
X144669463Y-79514494D01*
X144748815Y-79611185D01*
X144845506Y-79690537D01*
X144955820Y-79749502D01*
X145075518Y-79785812D01*
X145200000Y-79798072D01*
X146900000Y-79798072D01*
X147024482Y-79785812D01*
X147144180Y-79749502D01*
X147254494Y-79690537D01*
X147351185Y-79611185D01*
X147430537Y-79514494D01*
X147467683Y-79445000D01*
X148964249Y-79445000D01*
X149020000Y-79450491D01*
X149075751Y-79445000D01*
X149075752Y-79445000D01*
X149242499Y-79428577D01*
X149456447Y-79363676D01*
X149653623Y-79258284D01*
X149826449Y-79116449D01*
X149861996Y-79073136D01*
X151893146Y-77041987D01*
X151936449Y-77006449D01*
X152048022Y-76870498D01*
X152078284Y-76833623D01*
X152183676Y-76636447D01*
X152248577Y-76422499D01*
X152270491Y-76200000D01*
X152265000Y-76144248D01*
X152265000Y-74795000D01*
X157424249Y-74795000D01*
X157480000Y-74800491D01*
X157535751Y-74795000D01*
X157535752Y-74795000D01*
X157702499Y-74778577D01*
X157916447Y-74713676D01*
X158113623Y-74608284D01*
X158286449Y-74466449D01*
X158321996Y-74423135D01*
X163073146Y-69671987D01*
X163116449Y-69636449D01*
X163258284Y-69463623D01*
X163363676Y-69266447D01*
X163428577Y-69052499D01*
X163445000Y-68885752D01*
X163450491Y-68830000D01*
X163445000Y-68774248D01*
X163445000Y-66924284D01*
X163581680Y-66719727D01*
X163689853Y-66458574D01*
X163745000Y-66181335D01*
X163745000Y-65898665D01*
X163689853Y-65621426D01*
X163581680Y-65360273D01*
X163424637Y-65125241D01*
X163224759Y-64925363D01*
X162989727Y-64768320D01*
X162728574Y-64660147D01*
X162451335Y-64605000D01*
X162168665Y-64605000D01*
X161891426Y-64660147D01*
X161630273Y-64768320D01*
X161395241Y-64925363D01*
X161195363Y-65125241D01*
X161040000Y-65357759D01*
X160884637Y-65125241D01*
X160684759Y-64925363D01*
X160449727Y-64768320D01*
X160188574Y-64660147D01*
X159911335Y-64605000D01*
X159628665Y-64605000D01*
X159351426Y-64660147D01*
X159090273Y-64768320D01*
X158855241Y-64925363D01*
X158655363Y-65125241D01*
X158500000Y-65357759D01*
X158344637Y-65125241D01*
X158144759Y-64925363D01*
X157909727Y-64768320D01*
X157648574Y-64660147D01*
X157371335Y-64605000D01*
X157088665Y-64605000D01*
X156811426Y-64660147D01*
X156550273Y-64768320D01*
X156315241Y-64925363D01*
X156115363Y-65125241D01*
X155960000Y-65357759D01*
X155804637Y-65125241D01*
X155604759Y-64925363D01*
X155369727Y-64768320D01*
X155108574Y-64660147D01*
X154831335Y-64605000D01*
X154548665Y-64605000D01*
X154271426Y-64660147D01*
X154010273Y-64768320D01*
X153775241Y-64925363D01*
X153575363Y-65125241D01*
X153420000Y-65357759D01*
X153264637Y-65125241D01*
X153064759Y-64925363D01*
X152829727Y-64768320D01*
X152568574Y-64660147D01*
X152291335Y-64605000D01*
X152008665Y-64605000D01*
X151731426Y-64660147D01*
X151470273Y-64768320D01*
X151235241Y-64925363D01*
X151035363Y-65125241D01*
X150880000Y-65357759D01*
X150724637Y-65125241D01*
X150524759Y-64925363D01*
X150289727Y-64768320D01*
X150028574Y-64660147D01*
X149751335Y-64605000D01*
X149468665Y-64605000D01*
X149191426Y-64660147D01*
X148930273Y-64768320D01*
X148695241Y-64925363D01*
X148495363Y-65125241D01*
X148338320Y-65360273D01*
X148333933Y-65370865D01*
X148222385Y-65184869D01*
X148033414Y-64976481D01*
X147807420Y-64808963D01*
X147553087Y-64688754D01*
X147419039Y-64648096D01*
X147197000Y-64770085D01*
X147197000Y-65913000D01*
X147217000Y-65913000D01*
X147217000Y-66167000D01*
X147197000Y-66167000D01*
X147197000Y-67309915D01*
X147419039Y-67431904D01*
X147553087Y-67391246D01*
X147807420Y-67271037D01*
X148033414Y-67103519D01*
X148222385Y-66895131D01*
X148333933Y-66709135D01*
X148338320Y-66719727D01*
X148495363Y-66954759D01*
X148695241Y-67154637D01*
X148930273Y-67311680D01*
X149191426Y-67419853D01*
X149468665Y-67475000D01*
X149751335Y-67475000D01*
X150028574Y-67419853D01*
X150289727Y-67311680D01*
X150524759Y-67154637D01*
X150724637Y-66954759D01*
X150880000Y-66722241D01*
X151035363Y-66954759D01*
X151235241Y-67154637D01*
X151470273Y-67311680D01*
X151731426Y-67419853D01*
X152008665Y-67475000D01*
X152291335Y-67475000D01*
X152568574Y-67419853D01*
X152829727Y-67311680D01*
X153064759Y-67154637D01*
X153264637Y-66954759D01*
X153420000Y-66722241D01*
X153575363Y-66954759D01*
X153775241Y-67154637D01*
X154010273Y-67311680D01*
X154271426Y-67419853D01*
X154548665Y-67475000D01*
X154831335Y-67475000D01*
X155108574Y-67419853D01*
X155369727Y-67311680D01*
X155604759Y-67154637D01*
X155804637Y-66954759D01*
X155960000Y-66722241D01*
X156115363Y-66954759D01*
X156315241Y-67154637D01*
X156550273Y-67311680D01*
X156811426Y-67419853D01*
X157088665Y-67475000D01*
X157371335Y-67475000D01*
X157648574Y-67419853D01*
X157909727Y-67311680D01*
X158144759Y-67154637D01*
X158344637Y-66954759D01*
X158500000Y-66722241D01*
X158635000Y-66924284D01*
X158635000Y-67089867D01*
X156374869Y-69350000D01*
X146105751Y-69350000D01*
X146050000Y-69344509D01*
X145994248Y-69350000D01*
X145827501Y-69366423D01*
X145613553Y-69431324D01*
X145416377Y-69536716D01*
X145243551Y-69678551D01*
X145101716Y-69851377D01*
X144996324Y-70048553D01*
X144931423Y-70262501D01*
X144909509Y-70485000D01*
X144915000Y-70540752D01*
X144915000Y-70972317D01*
X144845506Y-71009463D01*
X144748815Y-71088815D01*
X144669463Y-71185506D01*
X144610498Y-71295820D01*
X144586034Y-71376466D01*
X144510269Y-71292412D01*
X144276920Y-71118359D01*
X144014099Y-70993175D01*
X143866890Y-70948524D01*
X143637000Y-71069845D01*
X143383000Y-71069845D01*
X143153110Y-70948524D01*
X143005901Y-70993175D01*
X142743080Y-71118359D01*
X142509731Y-71292412D01*
X142314822Y-71508645D01*
X142165843Y-71758748D01*
X142068519Y-72033109D01*
X121310000Y-72033109D01*
X121310000Y-65898665D01*
X138015000Y-65898665D01*
X138015000Y-66181335D01*
X138070147Y-66458574D01*
X138178320Y-66719727D01*
X138335363Y-66954759D01*
X138535241Y-67154637D01*
X138770273Y-67311680D01*
X139031426Y-67419853D01*
X139308665Y-67475000D01*
X139591335Y-67475000D01*
X139868574Y-67419853D01*
X140129727Y-67311680D01*
X140364759Y-67154637D01*
X140564637Y-66954759D01*
X140720000Y-66722241D01*
X140875363Y-66954759D01*
X141075241Y-67154637D01*
X141310273Y-67311680D01*
X141571426Y-67419853D01*
X141848665Y-67475000D01*
X142131335Y-67475000D01*
X142408574Y-67419853D01*
X142669727Y-67311680D01*
X142904759Y-67154637D01*
X143104637Y-66954759D01*
X143260000Y-66722241D01*
X143415363Y-66954759D01*
X143615241Y-67154637D01*
X143850273Y-67311680D01*
X144111426Y-67419853D01*
X144388665Y-67475000D01*
X144671335Y-67475000D01*
X144948574Y-67419853D01*
X145209727Y-67311680D01*
X145444759Y-67154637D01*
X145644637Y-66954759D01*
X145801680Y-66719727D01*
X145806067Y-66709135D01*
X145917615Y-66895131D01*
X146106586Y-67103519D01*
X146332580Y-67271037D01*
X146586913Y-67391246D01*
X146720961Y-67431904D01*
X146943000Y-67309915D01*
X146943000Y-66167000D01*
X146923000Y-66167000D01*
X146923000Y-65913000D01*
X146943000Y-65913000D01*
X146943000Y-64770085D01*
X146720961Y-64648096D01*
X146586913Y-64688754D01*
X146332580Y-64808963D01*
X146106586Y-64976481D01*
X145917615Y-65184869D01*
X145806067Y-65370865D01*
X145801680Y-65360273D01*
X145644637Y-65125241D01*
X145444759Y-64925363D01*
X145209727Y-64768320D01*
X144948574Y-64660147D01*
X144671335Y-64605000D01*
X144388665Y-64605000D01*
X144111426Y-64660147D01*
X143850273Y-64768320D01*
X143615241Y-64925363D01*
X143415363Y-65125241D01*
X143260000Y-65357759D01*
X143104637Y-65125241D01*
X142904759Y-64925363D01*
X142669727Y-64768320D01*
X142408574Y-64660147D01*
X142131335Y-64605000D01*
X141848665Y-64605000D01*
X141571426Y-64660147D01*
X141310273Y-64768320D01*
X141075241Y-64925363D01*
X140875363Y-65125241D01*
X140720000Y-65357759D01*
X140564637Y-65125241D01*
X140364759Y-64925363D01*
X140129727Y-64768320D01*
X139868574Y-64660147D01*
X139591335Y-64605000D01*
X139308665Y-64605000D01*
X139031426Y-64660147D01*
X138770273Y-64768320D01*
X138535241Y-64925363D01*
X138335363Y-65125241D01*
X138178320Y-65360273D01*
X138070147Y-65621426D01*
X138015000Y-65898665D01*
X121310000Y-65898665D01*
X121310000Y-64160000D01*
X184511620Y-64160000D01*
X186030000Y-65678381D01*
G37*
X186030000Y-65678381D02*
X186030001Y-73934869D01*
X180205000Y-68109869D01*
X180205000Y-66924284D01*
X180340000Y-66722241D01*
X180495363Y-66954759D01*
X180695241Y-67154637D01*
X180930273Y-67311680D01*
X181191426Y-67419853D01*
X181468665Y-67475000D01*
X181751335Y-67475000D01*
X182028574Y-67419853D01*
X182289727Y-67311680D01*
X182524759Y-67154637D01*
X182724637Y-66954759D01*
X182880000Y-66722241D01*
X183035363Y-66954759D01*
X183235241Y-67154637D01*
X183470273Y-67311680D01*
X183731426Y-67419853D01*
X184008665Y-67475000D01*
X184291335Y-67475000D01*
X184568574Y-67419853D01*
X184829727Y-67311680D01*
X185064759Y-67154637D01*
X185264637Y-66954759D01*
X185421680Y-66719727D01*
X185529853Y-66458574D01*
X185585000Y-66181335D01*
X185585000Y-65898665D01*
X185529853Y-65621426D01*
X185421680Y-65360273D01*
X185264637Y-65125241D01*
X185064759Y-64925363D01*
X184829727Y-64768320D01*
X184568574Y-64660147D01*
X184291335Y-64605000D01*
X184008665Y-64605000D01*
X183731426Y-64660147D01*
X183470273Y-64768320D01*
X183235241Y-64925363D01*
X183035363Y-65125241D01*
X182880000Y-65357759D01*
X182724637Y-65125241D01*
X182524759Y-64925363D01*
X182289727Y-64768320D01*
X182028574Y-64660147D01*
X181751335Y-64605000D01*
X181468665Y-64605000D01*
X181191426Y-64660147D01*
X180930273Y-64768320D01*
X180695241Y-64925363D01*
X180495363Y-65125241D01*
X180340000Y-65357759D01*
X180184637Y-65125241D01*
X179984759Y-64925363D01*
X179749727Y-64768320D01*
X179488574Y-64660147D01*
X179211335Y-64605000D01*
X178928665Y-64605000D01*
X178651426Y-64660147D01*
X178390273Y-64768320D01*
X178155241Y-64925363D01*
X177955363Y-65125241D01*
X177800000Y-65357759D01*
X177644637Y-65125241D01*
X177444759Y-64925363D01*
X177209727Y-64768320D01*
X176948574Y-64660147D01*
X176671335Y-64605000D01*
X176388665Y-64605000D01*
X176111426Y-64660147D01*
X175850273Y-64768320D01*
X175615241Y-64925363D01*
X175415363Y-65125241D01*
X175260000Y-65357759D01*
X175104637Y-65125241D01*
X174904759Y-64925363D01*
X174669727Y-64768320D01*
X174408574Y-64660147D01*
X174131335Y-64605000D01*
X173848665Y-64605000D01*
X173571426Y-64660147D01*
X173310273Y-64768320D01*
X173075241Y-64925363D01*
X172875363Y-65125241D01*
X172720000Y-65357759D01*
X172564637Y-65125241D01*
X172364759Y-64925363D01*
X172129727Y-64768320D01*
X171868574Y-64660147D01*
X171591335Y-64605000D01*
X171308665Y-64605000D01*
X171031426Y-64660147D01*
X170770273Y-64768320D01*
X170535241Y-64925363D01*
X170335363Y-65125241D01*
X170180000Y-65357759D01*
X170024637Y-65125241D01*
X169824759Y-64925363D01*
X169589727Y-64768320D01*
X169328574Y-64660147D01*
X169051335Y-64605000D01*
X168768665Y-64605000D01*
X168491426Y-64660147D01*
X168230273Y-64768320D01*
X167995241Y-64925363D01*
X167795363Y-65125241D01*
X167640000Y-65357759D01*
X167484637Y-65125241D01*
X167284759Y-64925363D01*
X167049727Y-64768320D01*
X166788574Y-64660147D01*
X166511335Y-64605000D01*
X166228665Y-64605000D01*
X165951426Y-64660147D01*
X165690273Y-64768320D01*
X165455241Y-64925363D01*
X165255363Y-65125241D01*
X165098320Y-65360273D01*
X164990147Y-65621426D01*
X164935000Y-65898665D01*
X164935000Y-66181335D01*
X164990147Y-66458574D01*
X165098320Y-66719727D01*
X165235000Y-66924284D01*
X165235001Y-68109867D01*
X158279869Y-75065000D01*
X153725751Y-75065000D01*
X153670000Y-75059509D01*
X153614248Y-75065000D01*
X153447501Y-75081423D01*
X153233553Y-75146324D01*
X153036377Y-75251716D01*
X152863551Y-75393551D01*
X152721716Y-75566377D01*
X152616324Y-75763553D01*
X152551423Y-75977501D01*
X152529509Y-76200000D01*
X152535000Y-76255752D01*
X152535001Y-80396538D01*
X152481595Y-80461613D01*
X152399528Y-80615149D01*
X152348992Y-80781745D01*
X152331928Y-80954999D01*
X152331928Y-81605001D01*
X152348992Y-81778255D01*
X152399528Y-81944851D01*
X152481595Y-82098387D01*
X152592038Y-82232962D01*
X152679816Y-82305000D01*
X152592038Y-82377038D01*
X152481595Y-82511613D01*
X152399528Y-82665149D01*
X152348992Y-82831745D01*
X152331928Y-83004999D01*
X152331928Y-83655001D01*
X152348992Y-83828255D01*
X152399528Y-83994851D01*
X152481595Y-84148387D01*
X152535000Y-84213461D01*
X152535001Y-86969118D01*
X152498815Y-86998815D01*
X152419463Y-87095506D01*
X152400000Y-87131918D01*
X152380537Y-87095506D01*
X152301185Y-86998815D01*
X152204494Y-86919463D01*
X152094180Y-86860498D01*
X151974482Y-86824188D01*
X151850000Y-86811928D01*
X151735750Y-86815000D01*
X151577000Y-86973750D01*
X151577000Y-87773000D01*
X151597000Y-87773000D01*
X151597000Y-88027000D01*
X151577000Y-88027000D01*
X151577000Y-88826250D01*
X151661607Y-88910857D01*
X151645506Y-88919463D01*
X151548815Y-88998815D01*
X151469463Y-89095506D01*
X151410498Y-89205820D01*
X151374188Y-89325518D01*
X151363816Y-89430828D01*
X151346324Y-89463554D01*
X151281423Y-89677502D01*
X151265000Y-89844249D01*
X151265001Y-94284892D01*
X151246525Y-94303368D01*
X151084010Y-94546589D01*
X150972068Y-94816842D01*
X150915000Y-95103740D01*
X150915000Y-95396260D01*
X150972068Y-95683158D01*
X151084010Y-95953411D01*
X151218707Y-96155000D01*
X148455000Y-96155000D01*
X148455000Y-95082521D01*
X148509458Y-95016164D01*
X148590947Y-94863709D01*
X148641128Y-94698285D01*
X148658072Y-94526250D01*
X148658072Y-94038750D01*
X148641128Y-93866715D01*
X148590947Y-93701291D01*
X148509458Y-93548836D01*
X148399792Y-93415208D01*
X148393436Y-93409992D01*
X148471185Y-93346185D01*
X148550537Y-93249494D01*
X148609502Y-93139180D01*
X148645812Y-93019482D01*
X148658072Y-92895000D01*
X148655000Y-92693250D01*
X148496250Y-92534500D01*
X147447000Y-92534500D01*
X147447000Y-92554500D01*
X147193000Y-92554500D01*
X147193000Y-92534500D01*
X146143750Y-92534500D01*
X145985000Y-92693250D01*
X145981928Y-92895000D01*
X145994188Y-93019482D01*
X146030498Y-93139180D01*
X146089463Y-93249494D01*
X146168815Y-93346185D01*
X146246564Y-93409992D01*
X146240208Y-93415208D01*
X146130542Y-93548836D01*
X146049053Y-93701291D01*
X145998872Y-93866715D01*
X145981928Y-94038750D01*
X145981928Y-94526250D01*
X145998872Y-94698285D01*
X146049053Y-94863709D01*
X146130542Y-95016164D01*
X146185000Y-95082521D01*
X146185001Y-96155000D01*
X140118072Y-96155000D01*
X140118072Y-95695000D01*
X140101008Y-95521746D01*
X140050472Y-95355150D01*
X139968405Y-95201614D01*
X139857962Y-95067038D01*
X139723386Y-94956595D01*
X139569850Y-94874528D01*
X139403254Y-94823992D01*
X139230000Y-94806928D01*
X137630000Y-94806928D01*
X137456746Y-94823992D01*
X137290150Y-94874528D01*
X137136614Y-94956595D01*
X137002038Y-95067038D01*
X136891595Y-95201614D01*
X136809528Y-95355150D01*
X136758992Y-95521746D01*
X136741928Y-95695000D01*
X136741928Y-96117957D01*
X130540000Y-96147258D01*
X130540000Y-94534678D01*
X130516343Y-94294484D01*
X130422852Y-93986285D01*
X130393072Y-93930571D01*
X130393072Y-93765000D01*
X130380812Y-93640518D01*
X130344502Y-93520820D01*
X130285537Y-93410506D01*
X130206185Y-93313815D01*
X130109494Y-93234463D01*
X129999180Y-93175498D01*
X129918534Y-93151034D01*
X130002588Y-93075269D01*
X130176641Y-92841920D01*
X130301825Y-92579099D01*
X130346476Y-92431890D01*
X130225155Y-92202000D01*
X129032000Y-92202000D01*
X129032000Y-92222000D01*
X128778000Y-92222000D01*
X128778000Y-92202000D01*
X127584845Y-92202000D01*
X127463524Y-92431890D01*
X127508175Y-92579099D01*
X127633359Y-92841920D01*
X127807412Y-93075269D01*
X127891466Y-93151034D01*
X127810820Y-93175498D01*
X127700506Y-93234463D01*
X127603815Y-93313815D01*
X127524463Y-93410506D01*
X127465498Y-93520820D01*
X127429188Y-93640518D01*
X127416928Y-93765000D01*
X127416928Y-93930572D01*
X127387148Y-93986286D01*
X127293657Y-94294485D01*
X127270000Y-94534679D01*
X127270001Y-96140323D01*
X125460000Y-96124146D01*
X125460000Y-94534678D01*
X125436343Y-94294484D01*
X125342852Y-93986285D01*
X125313072Y-93930571D01*
X125313072Y-93765000D01*
X125300812Y-93640518D01*
X125264502Y-93520820D01*
X125205537Y-93410506D01*
X125126185Y-93313815D01*
X125029494Y-93234463D01*
X124919180Y-93175498D01*
X124838534Y-93151034D01*
X124922588Y-93075269D01*
X125096641Y-92841920D01*
X125221825Y-92579099D01*
X125266476Y-92431890D01*
X125145155Y-92202000D01*
X123952000Y-92202000D01*
X123952000Y-92222000D01*
X123698000Y-92222000D01*
X123698000Y-92202000D01*
X122504845Y-92202000D01*
X122383524Y-92431890D01*
X122428175Y-92579099D01*
X122553359Y-92841920D01*
X122727412Y-93075269D01*
X122811466Y-93151034D01*
X122730820Y-93175498D01*
X122620506Y-93234463D01*
X122523815Y-93313815D01*
X122444463Y-93410506D01*
X122385498Y-93520820D01*
X122349188Y-93640518D01*
X122336928Y-93765000D01*
X122336928Y-93930572D01*
X122307149Y-93986285D01*
X122213658Y-94294484D01*
X122190001Y-94534678D01*
X122190000Y-97619680D01*
X122182089Y-97700000D01*
X122190000Y-97780319D01*
X122190000Y-97780321D01*
X122213657Y-98020515D01*
X122307148Y-98328714D01*
X122458969Y-98612751D01*
X122663286Y-98861714D01*
X122683384Y-98878208D01*
X122697951Y-98896285D01*
X122765498Y-98952737D01*
X122770677Y-98957916D01*
X122827129Y-99004245D01*
X122945077Y-99102819D01*
X122951549Y-99106353D01*
X122957248Y-99111030D01*
X123092804Y-99183486D01*
X123227745Y-99257172D01*
X123234782Y-99259375D01*
X123241286Y-99262852D01*
X123388427Y-99307487D01*
X123535097Y-99353414D01*
X123542426Y-99354202D01*
X123549484Y-99356343D01*
X123702554Y-99371419D01*
X123775070Y-99379216D01*
X123782381Y-99379281D01*
X123870000Y-99387911D01*
X123943040Y-99380717D01*
X128817385Y-99424282D01*
X128905000Y-99432911D01*
X128989177Y-99424620D01*
X136741928Y-99387993D01*
X136741928Y-99795000D01*
X136758992Y-99968254D01*
X136809528Y-100134850D01*
X136891595Y-100288386D01*
X137002038Y-100422962D01*
X137136614Y-100533405D01*
X137290150Y-100615472D01*
X137456746Y-100666008D01*
X137630000Y-100683072D01*
X139230000Y-100683072D01*
X139403254Y-100666008D01*
X139569850Y-100615472D01*
X139723386Y-100533405D01*
X139857962Y-100422962D01*
X139968405Y-100288386D01*
X140050472Y-100134850D01*
X140101008Y-99968254D01*
X140118072Y-99795000D01*
X140118072Y-99425000D01*
X150765001Y-99425000D01*
X150765000Y-107869678D01*
X150757089Y-107950000D01*
X150788657Y-108270516D01*
X150882148Y-108578715D01*
X151033969Y-108862752D01*
X151086157Y-108926343D01*
X151238286Y-109111714D01*
X151487248Y-109316031D01*
X151771285Y-109467852D01*
X152079484Y-109561343D01*
X152400000Y-109592911D01*
X152480322Y-109585000D01*
X158669678Y-109585000D01*
X158750000Y-109592911D01*
X158830322Y-109585000D01*
X164384681Y-109585000D01*
X164465000Y-109592911D01*
X164545319Y-109585000D01*
X165814298Y-109585000D01*
X165741286Y-109607148D01*
X165685572Y-109636928D01*
X165520000Y-109636928D01*
X165395518Y-109649188D01*
X165275820Y-109685498D01*
X165165506Y-109744463D01*
X165068815Y-109823815D01*
X164989463Y-109920506D01*
X164930498Y-110030820D01*
X164894188Y-110150518D01*
X164881928Y-110275000D01*
X164881928Y-110440572D01*
X164852149Y-110496285D01*
X164758658Y-110804484D01*
X164735001Y-111044678D01*
X164735000Y-113193182D01*
X164567420Y-113068963D01*
X164313087Y-112948754D01*
X164179039Y-112908096D01*
X163957000Y-113030085D01*
X163957000Y-114173000D01*
X163977000Y-114173000D01*
X163977000Y-114427000D01*
X163957000Y-114427000D01*
X163957000Y-115569915D01*
X164179039Y-115691904D01*
X164313087Y-115651246D01*
X164567420Y-115531037D01*
X164793414Y-115363519D01*
X164976588Y-115161524D01*
X165003969Y-115212751D01*
X165208286Y-115461714D01*
X165457248Y-115666031D01*
X165741285Y-115817852D01*
X166049484Y-115911343D01*
X166370000Y-115942911D01*
X166690515Y-115911343D01*
X166998714Y-115817852D01*
X167282751Y-115666031D01*
X167531714Y-115461714D01*
X167736031Y-115212752D01*
X167887852Y-114928715D01*
X167981343Y-114620516D01*
X168005000Y-114380322D01*
X168005000Y-114158665D01*
X170015000Y-114158665D01*
X170015000Y-114441335D01*
X170070147Y-114718574D01*
X170178320Y-114979727D01*
X170335363Y-115214759D01*
X170535241Y-115414637D01*
X170770273Y-115571680D01*
X171031426Y-115679853D01*
X171308665Y-115735000D01*
X171591335Y-115735000D01*
X171868574Y-115679853D01*
X172129727Y-115571680D01*
X172364759Y-115414637D01*
X172564637Y-115214759D01*
X172720000Y-114982241D01*
X172875363Y-115214759D01*
X173075241Y-115414637D01*
X173310273Y-115571680D01*
X173571426Y-115679853D01*
X173848665Y-115735000D01*
X174131335Y-115735000D01*
X174408574Y-115679853D01*
X174669727Y-115571680D01*
X174904759Y-115414637D01*
X175104637Y-115214759D01*
X175260000Y-114982241D01*
X175415363Y-115214759D01*
X175615241Y-115414637D01*
X175850273Y-115571680D01*
X176111426Y-115679853D01*
X176388665Y-115735000D01*
X176671335Y-115735000D01*
X176948574Y-115679853D01*
X177209727Y-115571680D01*
X177444759Y-115414637D01*
X177644637Y-115214759D01*
X177800000Y-114982241D01*
X177955363Y-115214759D01*
X178155241Y-115414637D01*
X178390273Y-115571680D01*
X178651426Y-115679853D01*
X178928665Y-115735000D01*
X179211335Y-115735000D01*
X179488574Y-115679853D01*
X179749727Y-115571680D01*
X179984759Y-115414637D01*
X180184637Y-115214759D01*
X180340000Y-114982241D01*
X180495363Y-115214759D01*
X180695241Y-115414637D01*
X180930273Y-115571680D01*
X181191426Y-115679853D01*
X181468665Y-115735000D01*
X181751335Y-115735000D01*
X182028574Y-115679853D01*
X182289727Y-115571680D01*
X182524759Y-115414637D01*
X182724637Y-115214759D01*
X182880000Y-114982241D01*
X183035363Y-115214759D01*
X183235241Y-115414637D01*
X183470273Y-115571680D01*
X183731426Y-115679853D01*
X184008665Y-115735000D01*
X184291335Y-115735000D01*
X184568574Y-115679853D01*
X184829727Y-115571680D01*
X185064759Y-115414637D01*
X185264637Y-115214759D01*
X185421680Y-114979727D01*
X185529853Y-114718574D01*
X185585000Y-114441335D01*
X185585000Y-114158665D01*
X185529853Y-113881426D01*
X185421680Y-113620273D01*
X185264637Y-113385241D01*
X185064759Y-113185363D01*
X184829727Y-113028320D01*
X184568574Y-112920147D01*
X184291335Y-112865000D01*
X184008665Y-112865000D01*
X183731426Y-112920147D01*
X183470273Y-113028320D01*
X183235241Y-113185363D01*
X183035363Y-113385241D01*
X182880000Y-113617759D01*
X182724637Y-113385241D01*
X182524759Y-113185363D01*
X182289727Y-113028320D01*
X182028574Y-112920147D01*
X181751335Y-112865000D01*
X181468665Y-112865000D01*
X181191426Y-112920147D01*
X180930273Y-113028320D01*
X180695241Y-113185363D01*
X180495363Y-113385241D01*
X180340000Y-113617759D01*
X180184637Y-113385241D01*
X179984759Y-113185363D01*
X179749727Y-113028320D01*
X179488574Y-112920147D01*
X179211335Y-112865000D01*
X178928665Y-112865000D01*
X178651426Y-112920147D01*
X178390273Y-113028320D01*
X178155241Y-113185363D01*
X177955363Y-113385241D01*
X177800000Y-113617759D01*
X177644637Y-113385241D01*
X177444759Y-113185363D01*
X177209727Y-113028320D01*
X176948574Y-112920147D01*
X176671335Y-112865000D01*
X176388665Y-112865000D01*
X176111426Y-112920147D01*
X175850273Y-113028320D01*
X175615241Y-113185363D01*
X175415363Y-113385241D01*
X175260000Y-113617759D01*
X175104637Y-113385241D01*
X174904759Y-113185363D01*
X174669727Y-113028320D01*
X174408574Y-112920147D01*
X174131335Y-112865000D01*
X173848665Y-112865000D01*
X173571426Y-112920147D01*
X173310273Y-113028320D01*
X173075241Y-113185363D01*
X172875363Y-113385241D01*
X172720000Y-113617759D01*
X172564637Y-113385241D01*
X172364759Y-113185363D01*
X172129727Y-113028320D01*
X171868574Y-112920147D01*
X171591335Y-112865000D01*
X171308665Y-112865000D01*
X171031426Y-112920147D01*
X170770273Y-113028320D01*
X170535241Y-113185363D01*
X170335363Y-113385241D01*
X170178320Y-113620273D01*
X170070147Y-113881426D01*
X170015000Y-114158665D01*
X168005000Y-114158665D01*
X168005000Y-112495175D01*
X168281285Y-112642852D01*
X168589484Y-112736343D01*
X168829678Y-112760000D01*
X170734678Y-112760000D01*
X170815000Y-112767911D01*
X170895322Y-112760000D01*
X171135516Y-112736343D01*
X171443715Y-112642852D01*
X171727752Y-112491031D01*
X171976714Y-112286714D01*
X172181031Y-112037752D01*
X172332852Y-111753715D01*
X172426343Y-111445516D01*
X172457911Y-111125000D01*
X172450000Y-111044678D01*
X172450000Y-109585000D01*
X177719678Y-109585000D01*
X177800000Y-109592911D01*
X177880322Y-109585000D01*
X184069678Y-109585000D01*
X184150000Y-109592911D01*
X184470516Y-109561343D01*
X184778715Y-109467852D01*
X185062752Y-109316031D01*
X185311714Y-109111714D01*
X185516031Y-108862752D01*
X185667852Y-108578715D01*
X185761343Y-108270516D01*
X185785000Y-108030322D01*
X185785000Y-108030321D01*
X185792911Y-107950000D01*
X185785000Y-107869678D01*
X185785000Y-97709678D01*
X185761343Y-97469484D01*
X185667852Y-97161285D01*
X185638072Y-97105571D01*
X185638072Y-96940000D01*
X185625812Y-96815518D01*
X185589502Y-96695820D01*
X185530537Y-96585506D01*
X185451185Y-96488815D01*
X185354494Y-96409463D01*
X185244180Y-96350498D01*
X185171620Y-96328487D01*
X185303475Y-96196632D01*
X185465990Y-95953411D01*
X185577932Y-95683158D01*
X185635000Y-95396260D01*
X185635000Y-95103740D01*
X185577932Y-94816842D01*
X185465990Y-94546589D01*
X185303475Y-94303368D01*
X185285000Y-94284893D01*
X185285000Y-89844248D01*
X185268577Y-89677501D01*
X185203676Y-89463553D01*
X185186184Y-89430827D01*
X185175812Y-89325518D01*
X185139502Y-89205820D01*
X185080537Y-89095506D01*
X185029706Y-89033568D01*
X185100000Y-89040491D01*
X185322498Y-89018577D01*
X185423059Y-88988072D01*
X185500000Y-88988072D01*
X185624482Y-88975812D01*
X185744180Y-88939502D01*
X185854494Y-88880537D01*
X185951185Y-88801185D01*
X186030537Y-88704494D01*
X186089502Y-88594180D01*
X186123706Y-88481425D01*
X186183135Y-88421996D01*
X186226449Y-88386449D01*
X186368284Y-88213623D01*
X186473676Y-88016447D01*
X186538577Y-87802499D01*
X186555000Y-87635752D01*
X186555000Y-87635743D01*
X186560490Y-87580001D01*
X186555000Y-87524259D01*
X186555000Y-84703461D01*
X186608405Y-84638387D01*
X186690472Y-84484851D01*
X186741008Y-84318255D01*
X186758072Y-84145001D01*
X186758072Y-83494999D01*
X186741008Y-83321745D01*
X186690472Y-83155149D01*
X186608405Y-83001613D01*
X186497962Y-82867038D01*
X186410184Y-82795000D01*
X186497962Y-82722962D01*
X186608405Y-82588387D01*
X186690472Y-82434851D01*
X186741008Y-82268255D01*
X186758072Y-82095001D01*
X186758072Y-81444999D01*
X186741008Y-81271745D01*
X186690472Y-81105149D01*
X186608405Y-80951613D01*
X186555000Y-80886539D01*
X186555000Y-76998380D01*
X188570000Y-79013381D01*
X188570001Y-111486618D01*
X186246236Y-113810384D01*
X186221052Y-113831052D01*
X186200386Y-113856234D01*
X186138575Y-113931550D01*
X186077291Y-114046207D01*
X186077290Y-114046208D01*
X186039550Y-114170618D01*
X186030000Y-114267582D01*
X186030000Y-114267591D01*
X186026808Y-114300000D01*
X186030000Y-114332409D01*
X186030001Y-116180000D01*
X121310000Y-116180000D01*
X121310000Y-113500000D01*
X147151928Y-113500000D01*
X147151928Y-115100000D01*
X147164188Y-115224482D01*
X147200498Y-115344180D01*
X147259463Y-115454494D01*
X147338815Y-115551185D01*
X147435506Y-115630537D01*
X147545820Y-115689502D01*
X147665518Y-115725812D01*
X147790000Y-115738072D01*
X149390000Y-115738072D01*
X149514482Y-115725812D01*
X149634180Y-115689502D01*
X149744494Y-115630537D01*
X149841185Y-115551185D01*
X149920537Y-115454494D01*
X149979502Y-115344180D01*
X150015812Y-115224482D01*
X150016643Y-115216039D01*
X150215241Y-115414637D01*
X150450273Y-115571680D01*
X150711426Y-115679853D01*
X150988665Y-115735000D01*
X151271335Y-115735000D01*
X151548574Y-115679853D01*
X151809727Y-115571680D01*
X152044759Y-115414637D01*
X152244637Y-115214759D01*
X152400000Y-114982241D01*
X152555363Y-115214759D01*
X152755241Y-115414637D01*
X152990273Y-115571680D01*
X153251426Y-115679853D01*
X153528665Y-115735000D01*
X153811335Y-115735000D01*
X154088574Y-115679853D01*
X154349727Y-115571680D01*
X154584759Y-115414637D01*
X154784637Y-115214759D01*
X154940000Y-114982241D01*
X155095363Y-115214759D01*
X155295241Y-115414637D01*
X155530273Y-115571680D01*
X155791426Y-115679853D01*
X156068665Y-115735000D01*
X156351335Y-115735000D01*
X156628574Y-115679853D01*
X156889727Y-115571680D01*
X157124759Y-115414637D01*
X157324637Y-115214759D01*
X157480000Y-114982241D01*
X157635363Y-115214759D01*
X157835241Y-115414637D01*
X158070273Y-115571680D01*
X158331426Y-115679853D01*
X158608665Y-115735000D01*
X158891335Y-115735000D01*
X159168574Y-115679853D01*
X159429727Y-115571680D01*
X159664759Y-115414637D01*
X159864637Y-115214759D01*
X160021680Y-114979727D01*
X160026067Y-114969135D01*
X160137615Y-115155131D01*
X160326586Y-115363519D01*
X160552580Y-115531037D01*
X160806913Y-115651246D01*
X160940961Y-115691904D01*
X161163000Y-115569915D01*
X161163000Y-114427000D01*
X161417000Y-114427000D01*
X161417000Y-115569915D01*
X161639039Y-115691904D01*
X161773087Y-115651246D01*
X162027420Y-115531037D01*
X162253414Y-115363519D01*
X162442385Y-115155131D01*
X162560000Y-114959018D01*
X162677615Y-115155131D01*
X162866586Y-115363519D01*
X163092580Y-115531037D01*
X163346913Y-115651246D01*
X163480961Y-115691904D01*
X163703000Y-115569915D01*
X163703000Y-114427000D01*
X161417000Y-114427000D01*
X161163000Y-114427000D01*
X161143000Y-114427000D01*
X161143000Y-114173000D01*
X161163000Y-114173000D01*
X161163000Y-113030085D01*
X161417000Y-113030085D01*
X161417000Y-114173000D01*
X163703000Y-114173000D01*
X163703000Y-113030085D01*
X163480961Y-112908096D01*
X163346913Y-112948754D01*
X163092580Y-113068963D01*
X162866586Y-113236481D01*
X162677615Y-113444869D01*
X162560000Y-113640982D01*
X162442385Y-113444869D01*
X162253414Y-113236481D01*
X162027420Y-113068963D01*
X161773087Y-112948754D01*
X161639039Y-112908096D01*
X161417000Y-113030085D01*
X161163000Y-113030085D01*
X160940961Y-112908096D01*
X160806913Y-112948754D01*
X160552580Y-113068963D01*
X160326586Y-113236481D01*
X160137615Y-113444869D01*
X160026067Y-113630865D01*
X160021680Y-113620273D01*
X159864637Y-113385241D01*
X159664759Y-113185363D01*
X159429727Y-113028320D01*
X159168574Y-112920147D01*
X158891335Y-112865000D01*
X158608665Y-112865000D01*
X158331426Y-112920147D01*
X158070273Y-113028320D01*
X157835241Y-113185363D01*
X157635363Y-113385241D01*
X157480000Y-113617759D01*
X157324637Y-113385241D01*
X157124759Y-113185363D01*
X156889727Y-113028320D01*
X156628574Y-112920147D01*
X156351335Y-112865000D01*
X156068665Y-112865000D01*
X155791426Y-112920147D01*
X155530273Y-113028320D01*
X155295241Y-113185363D01*
X155095363Y-113385241D01*
X154940000Y-113617759D01*
X154784637Y-113385241D01*
X154584759Y-113185363D01*
X154349727Y-113028320D01*
X154088574Y-112920147D01*
X153811335Y-112865000D01*
X153528665Y-112865000D01*
X153251426Y-112920147D01*
X152990273Y-113028320D01*
X152755241Y-113185363D01*
X152555363Y-113385241D01*
X152400000Y-113617759D01*
X152244637Y-113385241D01*
X152044759Y-113185363D01*
X151809727Y-113028320D01*
X151548574Y-112920147D01*
X151271335Y-112865000D01*
X150988665Y-112865000D01*
X150711426Y-112920147D01*
X150450273Y-113028320D01*
X150215241Y-113185363D01*
X150016643Y-113383961D01*
X150015812Y-113375518D01*
X149979502Y-113255820D01*
X149920537Y-113145506D01*
X149841185Y-113048815D01*
X149744494Y-112969463D01*
X149634180Y-112910498D01*
X149514482Y-112874188D01*
X149390000Y-112861928D01*
X147790000Y-112861928D01*
X147665518Y-112874188D01*
X147545820Y-112910498D01*
X147435506Y-112969463D01*
X147338815Y-113048815D01*
X147259463Y-113145506D01*
X147200498Y-113255820D01*
X147164188Y-113375518D01*
X147151928Y-113500000D01*
X121310000Y-113500000D01*
X121310000Y-91718110D01*
X122383524Y-91718110D01*
X122504845Y-91948000D01*
X123698000Y-91948000D01*
X123698000Y-90754186D01*
X123952000Y-90754186D01*
X123952000Y-91948000D01*
X125145155Y-91948000D01*
X125266476Y-91718110D01*
X127463524Y-91718110D01*
X127584845Y-91948000D01*
X128778000Y-91948000D01*
X128778000Y-90754186D01*
X129032000Y-90754186D01*
X129032000Y-91948000D01*
X130225155Y-91948000D01*
X130239931Y-91920000D01*
X145981928Y-91920000D01*
X145985000Y-92121750D01*
X146143750Y-92280500D01*
X147193000Y-92280500D01*
X147193000Y-91443750D01*
X147447000Y-91443750D01*
X147447000Y-92280500D01*
X148496250Y-92280500D01*
X148655000Y-92121750D01*
X148658072Y-91920000D01*
X148645812Y-91795518D01*
X148609502Y-91675820D01*
X148550537Y-91565506D01*
X148471185Y-91468815D01*
X148374494Y-91389463D01*
X148264180Y-91330498D01*
X148144482Y-91294188D01*
X148020000Y-91281928D01*
X147605750Y-91285000D01*
X147447000Y-91443750D01*
X147193000Y-91443750D01*
X147034250Y-91285000D01*
X146620000Y-91281928D01*
X146495518Y-91294188D01*
X146375820Y-91330498D01*
X146265506Y-91389463D01*
X146168815Y-91468815D01*
X146089463Y-91565506D01*
X146030498Y-91675820D01*
X145994188Y-91795518D01*
X145981928Y-91920000D01*
X130239931Y-91920000D01*
X130346476Y-91718110D01*
X130301825Y-91570901D01*
X130176641Y-91308080D01*
X130129591Y-91245000D01*
X136741928Y-91245000D01*
X136754188Y-91369482D01*
X136790498Y-91489180D01*
X136849463Y-91599494D01*
X136928815Y-91696185D01*
X137025506Y-91775537D01*
X137135820Y-91834502D01*
X137255518Y-91870812D01*
X137380000Y-91883072D01*
X138144250Y-91880000D01*
X138303000Y-91721250D01*
X138303000Y-89072000D01*
X138557000Y-89072000D01*
X138557000Y-91721250D01*
X138715750Y-91880000D01*
X139480000Y-91883072D01*
X139604482Y-91870812D01*
X139724180Y-91834502D01*
X139834494Y-91775537D01*
X139931185Y-91696185D01*
X140010537Y-91599494D01*
X140069502Y-91489180D01*
X140105812Y-91369482D01*
X140118072Y-91245000D01*
X140115000Y-89230750D01*
X139956250Y-89072000D01*
X138557000Y-89072000D01*
X138303000Y-89072000D01*
X136903750Y-89072000D01*
X136745000Y-89230750D01*
X136741928Y-91245000D01*
X130129591Y-91245000D01*
X130002588Y-91074731D01*
X129786355Y-90879822D01*
X129536252Y-90730843D01*
X129261891Y-90633519D01*
X129032000Y-90754186D01*
X128778000Y-90754186D01*
X128548109Y-90633519D01*
X128273748Y-90730843D01*
X128023645Y-90879822D01*
X127807412Y-91074731D01*
X127633359Y-91308080D01*
X127508175Y-91570901D01*
X127463524Y-91718110D01*
X125266476Y-91718110D01*
X125221825Y-91570901D01*
X125096641Y-91308080D01*
X124922588Y-91074731D01*
X124706355Y-90879822D01*
X124456252Y-90730843D01*
X124181891Y-90633519D01*
X123952000Y-90754186D01*
X123698000Y-90754186D01*
X123468109Y-90633519D01*
X123193748Y-90730843D01*
X122943645Y-90879822D01*
X122727412Y-91074731D01*
X122553359Y-91308080D01*
X122428175Y-91570901D01*
X122383524Y-91718110D01*
X121310000Y-91718110D01*
X121310000Y-86645000D01*
X136741928Y-86645000D01*
X136745000Y-88659250D01*
X136903750Y-88818000D01*
X138303000Y-88818000D01*
X138303000Y-86168750D01*
X138557000Y-86168750D01*
X138557000Y-88818000D01*
X139956250Y-88818000D01*
X140115000Y-88659250D01*
X140115471Y-88350000D01*
X150411928Y-88350000D01*
X150424188Y-88474482D01*
X150460498Y-88594180D01*
X150519463Y-88704494D01*
X150598815Y-88801185D01*
X150695506Y-88880537D01*
X150805820Y-88939502D01*
X150925518Y-88975812D01*
X151050000Y-88988072D01*
X151164250Y-88985000D01*
X151323000Y-88826250D01*
X151323000Y-88027000D01*
X150573750Y-88027000D01*
X150415000Y-88185750D01*
X150411928Y-88350000D01*
X140115471Y-88350000D01*
X140116843Y-87450000D01*
X150411928Y-87450000D01*
X150415000Y-87614250D01*
X150573750Y-87773000D01*
X151323000Y-87773000D01*
X151323000Y-86973750D01*
X151164250Y-86815000D01*
X151050000Y-86811928D01*
X150925518Y-86824188D01*
X150805820Y-86860498D01*
X150695506Y-86919463D01*
X150598815Y-86998815D01*
X150519463Y-87095506D01*
X150460498Y-87205820D01*
X150424188Y-87325518D01*
X150411928Y-87450000D01*
X140116843Y-87450000D01*
X140118072Y-86645000D01*
X140105812Y-86520518D01*
X140069502Y-86400820D01*
X140010537Y-86290506D01*
X139931185Y-86193815D01*
X139834494Y-86114463D01*
X139724180Y-86055498D01*
X139604482Y-86019188D01*
X139480000Y-86006928D01*
X138715750Y-86010000D01*
X138557000Y-86168750D01*
X138303000Y-86168750D01*
X138144250Y-86010000D01*
X137380000Y-86006928D01*
X137255518Y-86019188D01*
X137135820Y-86055498D01*
X137025506Y-86114463D01*
X136928815Y-86193815D01*
X136849463Y-86290506D01*
X136790498Y-86400820D01*
X136754188Y-86520518D01*
X136741928Y-86645000D01*
X121310000Y-86645000D01*
X121310000Y-78666891D01*
X142068519Y-78666891D01*
X142165843Y-78941252D01*
X142314822Y-79191355D01*
X142509731Y-79407588D01*
X142743080Y-79581641D01*
X143005901Y-79706825D01*
X143153110Y-79751476D01*
X143383000Y-79630155D01*
X143383000Y-78437000D01*
X142189186Y-78437000D01*
X142068519Y-78666891D01*
X121310000Y-78666891D01*
X121310000Y-77953109D01*
X142068519Y-77953109D01*
X142189186Y-78183000D01*
X143383000Y-78183000D01*
X143383000Y-76989845D01*
X143153110Y-76868524D01*
X143005901Y-76913175D01*
X142743080Y-77038359D01*
X142509731Y-77212412D01*
X142314822Y-77428645D01*
X142165843Y-77678748D01*
X142068519Y-77953109D01*
X121310000Y-77953109D01*
X121310000Y-72746891D01*
X142068519Y-72746891D01*
X142165843Y-73021252D01*
X142314822Y-73271355D01*
X142509731Y-73487588D01*
X142743080Y-73661641D01*
X143005901Y-73786825D01*
X143153110Y-73831476D01*
X143383000Y-73710155D01*
X143383000Y-72517000D01*
X142189186Y-72517000D01*
X142068519Y-72746891D01*
X121310000Y-72746891D01*
X121310000Y-72033109D01*
X142068519Y-72033109D01*
X142189186Y-72263000D01*
X143383000Y-72263000D01*
X143383000Y-71069845D01*
X143637000Y-71069845D01*
X143637000Y-72263000D01*
X143657000Y-72263000D01*
X143657000Y-72517000D01*
X143637000Y-72517000D01*
X143637000Y-73710155D01*
X143866890Y-73831476D01*
X144014099Y-73786825D01*
X144276920Y-73661641D01*
X144510269Y-73487588D01*
X144586034Y-73403534D01*
X144610498Y-73484180D01*
X144669463Y-73594494D01*
X144748815Y-73691185D01*
X144845506Y-73770537D01*
X144955820Y-73829502D01*
X145075518Y-73865812D01*
X145200000Y-73878072D01*
X146900000Y-73878072D01*
X147024482Y-73865812D01*
X147144180Y-73829502D01*
X147254494Y-73770537D01*
X147351185Y-73691185D01*
X147430537Y-73594494D01*
X147489502Y-73484180D01*
X147525812Y-73364482D01*
X147538072Y-73240000D01*
X147538072Y-71620000D01*
X156789249Y-71620000D01*
X156845000Y-71625491D01*
X156900751Y-71620000D01*
X156900752Y-71620000D01*
X157067499Y-71603577D01*
X157281447Y-71538676D01*
X157478623Y-71433284D01*
X157651449Y-71291449D01*
X157686996Y-71248135D01*
X160533146Y-68401987D01*
X160576449Y-68366449D01*
X160621249Y-68311861D01*
X160718284Y-68193623D01*
X160823676Y-67996447D01*
X160888577Y-67782499D01*
X160910491Y-67560000D01*
X160905000Y-67504248D01*
X160905000Y-66924284D01*
X161040000Y-66722241D01*
X161175000Y-66924284D01*
X161175000Y-68359867D01*
X157009869Y-72525000D01*
X151185751Y-72525000D01*
X151130000Y-72519509D01*
X151074248Y-72525000D01*
X150907501Y-72541423D01*
X150693553Y-72606324D01*
X150496377Y-72711716D01*
X150323551Y-72853551D01*
X150181716Y-73026377D01*
X150076324Y-73223553D01*
X150011423Y-73437501D01*
X149989509Y-73660000D01*
X149995000Y-73715752D01*
X149995001Y-75729867D01*
X148549869Y-77175000D01*
X147467683Y-77175000D01*
X147430537Y-77105506D01*
X147351185Y-77008815D01*
X147254494Y-76929463D01*
X147144180Y-76870498D01*
X147024482Y-76834188D01*
X146900000Y-76821928D01*
X145200000Y-76821928D01*
X145075518Y-76834188D01*
X144955820Y-76870498D01*
X144845506Y-76929463D01*
X144748815Y-77008815D01*
X144669463Y-77105506D01*
X144610498Y-77215820D01*
X144586034Y-77296466D01*
X144510269Y-77212412D01*
X144276920Y-77038359D01*
X144014099Y-76913175D01*
X143866890Y-76868524D01*
X143637000Y-76989845D01*
X143637000Y-78183000D01*
X143657000Y-78183000D01*
X143657000Y-78437000D01*
X143637000Y-78437000D01*
X143637000Y-79630155D01*
X143866890Y-79751476D01*
X144014099Y-79706825D01*
X144276920Y-79581641D01*
X144510269Y-79407588D01*
X144586034Y-79323534D01*
X144610498Y-79404180D01*
X144669463Y-79514494D01*
X144748815Y-79611185D01*
X144845506Y-79690537D01*
X144955820Y-79749502D01*
X145075518Y-79785812D01*
X145200000Y-79798072D01*
X146900000Y-79798072D01*
X147024482Y-79785812D01*
X147144180Y-79749502D01*
X147254494Y-79690537D01*
X147351185Y-79611185D01*
X147430537Y-79514494D01*
X147467683Y-79445000D01*
X148964249Y-79445000D01*
X149020000Y-79450491D01*
X149075751Y-79445000D01*
X149075752Y-79445000D01*
X149242499Y-79428577D01*
X149456447Y-79363676D01*
X149653623Y-79258284D01*
X149826449Y-79116449D01*
X149861996Y-79073136D01*
X151893146Y-77041987D01*
X151936449Y-77006449D01*
X152048022Y-76870498D01*
X152078284Y-76833623D01*
X152183676Y-76636447D01*
X152248577Y-76422499D01*
X152270491Y-76200000D01*
X152265000Y-76144248D01*
X152265000Y-74795000D01*
X157424249Y-74795000D01*
X157480000Y-74800491D01*
X157535751Y-74795000D01*
X157535752Y-74795000D01*
X157702499Y-74778577D01*
X157916447Y-74713676D01*
X158113623Y-74608284D01*
X158286449Y-74466449D01*
X158321996Y-74423135D01*
X163073146Y-69671987D01*
X163116449Y-69636449D01*
X163258284Y-69463623D01*
X163363676Y-69266447D01*
X163428577Y-69052499D01*
X163445000Y-68885752D01*
X163450491Y-68830000D01*
X163445000Y-68774248D01*
X163445000Y-66924284D01*
X163581680Y-66719727D01*
X163689853Y-66458574D01*
X163745000Y-66181335D01*
X163745000Y-65898665D01*
X163689853Y-65621426D01*
X163581680Y-65360273D01*
X163424637Y-65125241D01*
X163224759Y-64925363D01*
X162989727Y-64768320D01*
X162728574Y-64660147D01*
X162451335Y-64605000D01*
X162168665Y-64605000D01*
X161891426Y-64660147D01*
X161630273Y-64768320D01*
X161395241Y-64925363D01*
X161195363Y-65125241D01*
X161040000Y-65357759D01*
X160884637Y-65125241D01*
X160684759Y-64925363D01*
X160449727Y-64768320D01*
X160188574Y-64660147D01*
X159911335Y-64605000D01*
X159628665Y-64605000D01*
X159351426Y-64660147D01*
X159090273Y-64768320D01*
X158855241Y-64925363D01*
X158655363Y-65125241D01*
X158500000Y-65357759D01*
X158344637Y-65125241D01*
X158144759Y-64925363D01*
X157909727Y-64768320D01*
X157648574Y-64660147D01*
X157371335Y-64605000D01*
X157088665Y-64605000D01*
X156811426Y-64660147D01*
X156550273Y-64768320D01*
X156315241Y-64925363D01*
X156115363Y-65125241D01*
X155960000Y-65357759D01*
X155804637Y-65125241D01*
X155604759Y-64925363D01*
X155369727Y-64768320D01*
X155108574Y-64660147D01*
X154831335Y-64605000D01*
X154548665Y-64605000D01*
X154271426Y-64660147D01*
X154010273Y-64768320D01*
X153775241Y-64925363D01*
X153575363Y-65125241D01*
X153420000Y-65357759D01*
X153264637Y-65125241D01*
X153064759Y-64925363D01*
X152829727Y-64768320D01*
X152568574Y-64660147D01*
X152291335Y-64605000D01*
X152008665Y-64605000D01*
X151731426Y-64660147D01*
X151470273Y-64768320D01*
X151235241Y-64925363D01*
X151035363Y-65125241D01*
X150880000Y-65357759D01*
X150724637Y-65125241D01*
X150524759Y-64925363D01*
X150289727Y-64768320D01*
X150028574Y-64660147D01*
X149751335Y-64605000D01*
X149468665Y-64605000D01*
X149191426Y-64660147D01*
X148930273Y-64768320D01*
X148695241Y-64925363D01*
X148495363Y-65125241D01*
X148338320Y-65360273D01*
X148333933Y-65370865D01*
X148222385Y-65184869D01*
X148033414Y-64976481D01*
X147807420Y-64808963D01*
X147553087Y-64688754D01*
X147419039Y-64648096D01*
X147197000Y-64770085D01*
X147197000Y-65913000D01*
X147217000Y-65913000D01*
X147217000Y-66167000D01*
X147197000Y-66167000D01*
X147197000Y-67309915D01*
X147419039Y-67431904D01*
X147553087Y-67391246D01*
X147807420Y-67271037D01*
X148033414Y-67103519D01*
X148222385Y-66895131D01*
X148333933Y-66709135D01*
X148338320Y-66719727D01*
X148495363Y-66954759D01*
X148695241Y-67154637D01*
X148930273Y-67311680D01*
X149191426Y-67419853D01*
X149468665Y-67475000D01*
X149751335Y-67475000D01*
X150028574Y-67419853D01*
X150289727Y-67311680D01*
X150524759Y-67154637D01*
X150724637Y-66954759D01*
X150880000Y-66722241D01*
X151035363Y-66954759D01*
X151235241Y-67154637D01*
X151470273Y-67311680D01*
X151731426Y-67419853D01*
X152008665Y-67475000D01*
X152291335Y-67475000D01*
X152568574Y-67419853D01*
X152829727Y-67311680D01*
X153064759Y-67154637D01*
X153264637Y-66954759D01*
X153420000Y-66722241D01*
X153575363Y-66954759D01*
X153775241Y-67154637D01*
X154010273Y-67311680D01*
X154271426Y-67419853D01*
X154548665Y-67475000D01*
X154831335Y-67475000D01*
X155108574Y-67419853D01*
X155369727Y-67311680D01*
X155604759Y-67154637D01*
X155804637Y-66954759D01*
X155960000Y-66722241D01*
X156115363Y-66954759D01*
X156315241Y-67154637D01*
X156550273Y-67311680D01*
X156811426Y-67419853D01*
X157088665Y-67475000D01*
X157371335Y-67475000D01*
X157648574Y-67419853D01*
X157909727Y-67311680D01*
X158144759Y-67154637D01*
X158344637Y-66954759D01*
X158500000Y-66722241D01*
X158635000Y-66924284D01*
X158635000Y-67089867D01*
X156374869Y-69350000D01*
X146105751Y-69350000D01*
X146050000Y-69344509D01*
X145994248Y-69350000D01*
X145827501Y-69366423D01*
X145613553Y-69431324D01*
X145416377Y-69536716D01*
X145243551Y-69678551D01*
X145101716Y-69851377D01*
X144996324Y-70048553D01*
X144931423Y-70262501D01*
X144909509Y-70485000D01*
X144915000Y-70540752D01*
X144915000Y-70972317D01*
X144845506Y-71009463D01*
X144748815Y-71088815D01*
X144669463Y-71185506D01*
X144610498Y-71295820D01*
X144586034Y-71376466D01*
X144510269Y-71292412D01*
X144276920Y-71118359D01*
X144014099Y-70993175D01*
X143866890Y-70948524D01*
X143637000Y-71069845D01*
X143383000Y-71069845D01*
X143153110Y-70948524D01*
X143005901Y-70993175D01*
X142743080Y-71118359D01*
X142509731Y-71292412D01*
X142314822Y-71508645D01*
X142165843Y-71758748D01*
X142068519Y-72033109D01*
X121310000Y-72033109D01*
X121310000Y-65898665D01*
X138015000Y-65898665D01*
X138015000Y-66181335D01*
X138070147Y-66458574D01*
X138178320Y-66719727D01*
X138335363Y-66954759D01*
X138535241Y-67154637D01*
X138770273Y-67311680D01*
X139031426Y-67419853D01*
X139308665Y-67475000D01*
X139591335Y-67475000D01*
X139868574Y-67419853D01*
X140129727Y-67311680D01*
X140364759Y-67154637D01*
X140564637Y-66954759D01*
X140720000Y-66722241D01*
X140875363Y-66954759D01*
X141075241Y-67154637D01*
X141310273Y-67311680D01*
X141571426Y-67419853D01*
X141848665Y-67475000D01*
X142131335Y-67475000D01*
X142408574Y-67419853D01*
X142669727Y-67311680D01*
X142904759Y-67154637D01*
X143104637Y-66954759D01*
X143260000Y-66722241D01*
X143415363Y-66954759D01*
X143615241Y-67154637D01*
X143850273Y-67311680D01*
X144111426Y-67419853D01*
X144388665Y-67475000D01*
X144671335Y-67475000D01*
X144948574Y-67419853D01*
X145209727Y-67311680D01*
X145444759Y-67154637D01*
X145644637Y-66954759D01*
X145801680Y-66719727D01*
X145806067Y-66709135D01*
X145917615Y-66895131D01*
X146106586Y-67103519D01*
X146332580Y-67271037D01*
X146586913Y-67391246D01*
X146720961Y-67431904D01*
X146943000Y-67309915D01*
X146943000Y-66167000D01*
X146923000Y-66167000D01*
X146923000Y-65913000D01*
X146943000Y-65913000D01*
X146943000Y-64770085D01*
X146720961Y-64648096D01*
X146586913Y-64688754D01*
X146332580Y-64808963D01*
X146106586Y-64976481D01*
X145917615Y-65184869D01*
X145806067Y-65370865D01*
X145801680Y-65360273D01*
X145644637Y-65125241D01*
X145444759Y-64925363D01*
X145209727Y-64768320D01*
X144948574Y-64660147D01*
X144671335Y-64605000D01*
X144388665Y-64605000D01*
X144111426Y-64660147D01*
X143850273Y-64768320D01*
X143615241Y-64925363D01*
X143415363Y-65125241D01*
X143260000Y-65357759D01*
X143104637Y-65125241D01*
X142904759Y-64925363D01*
X142669727Y-64768320D01*
X142408574Y-64660147D01*
X142131335Y-64605000D01*
X141848665Y-64605000D01*
X141571426Y-64660147D01*
X141310273Y-64768320D01*
X141075241Y-64925363D01*
X140875363Y-65125241D01*
X140720000Y-65357759D01*
X140564637Y-65125241D01*
X140364759Y-64925363D01*
X140129727Y-64768320D01*
X139868574Y-64660147D01*
X139591335Y-64605000D01*
X139308665Y-64605000D01*
X139031426Y-64660147D01*
X138770273Y-64768320D01*
X138535241Y-64925363D01*
X138335363Y-65125241D01*
X138178320Y-65360273D01*
X138070147Y-65621426D01*
X138015000Y-65898665D01*
X121310000Y-65898665D01*
X121310000Y-64160000D01*
X184511620Y-64160000D01*
X186030000Y-65678381D01*
G36*
X172855000Y-66924284D02*
G01*
X172855001Y-73189867D01*
X171956865Y-74088004D01*
X171913551Y-74123551D01*
X171771716Y-74296377D01*
X171680812Y-74466448D01*
X171666324Y-74493554D01*
X171601423Y-74707502D01*
X171579509Y-74930000D01*
X171585000Y-74985752D01*
X171585001Y-80641538D01*
X171531595Y-80706613D01*
X171449528Y-80860149D01*
X171398992Y-81026745D01*
X171381928Y-81199999D01*
X171381928Y-81850001D01*
X171398992Y-82023255D01*
X171449528Y-82189851D01*
X171531595Y-82343387D01*
X171642038Y-82477962D01*
X171729816Y-82550000D01*
X171642038Y-82622038D01*
X171531595Y-82756613D01*
X171449528Y-82910149D01*
X171398992Y-83076745D01*
X171381928Y-83249999D01*
X171381928Y-83900001D01*
X171398992Y-84073255D01*
X171449528Y-84239851D01*
X171531595Y-84393387D01*
X171585000Y-84458461D01*
X171585001Y-87239118D01*
X171548815Y-87268815D01*
X171469463Y-87365506D01*
X171450000Y-87401918D01*
X171430537Y-87365506D01*
X171351185Y-87268815D01*
X171254494Y-87189463D01*
X171144180Y-87130498D01*
X171024482Y-87094188D01*
X170900000Y-87081928D01*
X170785750Y-87085000D01*
X170627000Y-87243750D01*
X170627000Y-88043000D01*
X170647000Y-88043000D01*
X170647000Y-88297000D01*
X170627000Y-88297000D01*
X170627000Y-89096250D01*
X170711607Y-89180857D01*
X170695506Y-89189463D01*
X170598815Y-89268815D01*
X170519463Y-89365506D01*
X170460498Y-89475820D01*
X170424188Y-89595518D01*
X170413816Y-89700828D01*
X170396324Y-89733554D01*
X170331423Y-89947502D01*
X170315000Y-90114249D01*
X170315001Y-94284892D01*
X170296525Y-94303368D01*
X170134010Y-94546589D01*
X170022068Y-94816842D01*
X169965000Y-95103740D01*
X169965000Y-95396260D01*
X170022068Y-95683158D01*
X170134010Y-95953411D01*
X170296525Y-96196632D01*
X170428380Y-96328487D01*
X170355820Y-96350498D01*
X170245506Y-96409463D01*
X170148815Y-96488815D01*
X170069463Y-96585506D01*
X170010498Y-96695820D01*
X169974188Y-96815518D01*
X169961928Y-96940000D01*
X169961928Y-97105572D01*
X169932148Y-97161286D01*
X169838657Y-97469485D01*
X169815000Y-97709679D01*
X169815001Y-106315000D01*
X166735000Y-106315000D01*
X166735000Y-97709678D01*
X166711343Y-97469484D01*
X166617852Y-97161285D01*
X166588072Y-97105571D01*
X166588072Y-96940000D01*
X166575812Y-96815518D01*
X166539502Y-96695820D01*
X166480537Y-96585506D01*
X166401185Y-96488815D01*
X166304494Y-96409463D01*
X166194180Y-96350498D01*
X166121620Y-96328487D01*
X166253475Y-96196632D01*
X166415990Y-95953411D01*
X166527932Y-95683158D01*
X166585000Y-95396260D01*
X166585000Y-95103740D01*
X166527932Y-94816842D01*
X166415990Y-94546589D01*
X166253475Y-94303368D01*
X166235000Y-94284893D01*
X166235000Y-89844248D01*
X166218577Y-89677501D01*
X166153676Y-89463553D01*
X166136184Y-89430827D01*
X166125812Y-89325518D01*
X166089502Y-89205820D01*
X166030537Y-89095506D01*
X165979706Y-89033568D01*
X166050000Y-89040491D01*
X166272498Y-89018577D01*
X166373059Y-88988072D01*
X166450000Y-88988072D01*
X166574482Y-88975812D01*
X166694180Y-88939502D01*
X166804494Y-88880537D01*
X166901185Y-88801185D01*
X166980537Y-88704494D01*
X167025700Y-88620000D01*
X169461928Y-88620000D01*
X169474188Y-88744482D01*
X169510498Y-88864180D01*
X169569463Y-88974494D01*
X169648815Y-89071185D01*
X169745506Y-89150537D01*
X169855820Y-89209502D01*
X169975518Y-89245812D01*
X170100000Y-89258072D01*
X170214250Y-89255000D01*
X170373000Y-89096250D01*
X170373000Y-88297000D01*
X169623750Y-88297000D01*
X169465000Y-88455750D01*
X169461928Y-88620000D01*
X167025700Y-88620000D01*
X167039502Y-88594180D01*
X167073706Y-88481425D01*
X167133135Y-88421996D01*
X167176449Y-88386449D01*
X167318284Y-88213623D01*
X167423676Y-88016447D01*
X167488577Y-87802499D01*
X167496702Y-87720000D01*
X169461928Y-87720000D01*
X169465000Y-87884250D01*
X169623750Y-88043000D01*
X170373000Y-88043000D01*
X170373000Y-87243750D01*
X170214250Y-87085000D01*
X170100000Y-87081928D01*
X169975518Y-87094188D01*
X169855820Y-87130498D01*
X169745506Y-87189463D01*
X169648815Y-87268815D01*
X169569463Y-87365506D01*
X169510498Y-87475820D01*
X169474188Y-87595518D01*
X169461928Y-87720000D01*
X167496702Y-87720000D01*
X167505000Y-87635752D01*
X167505000Y-87635743D01*
X167510490Y-87580001D01*
X167505000Y-87524259D01*
X167505000Y-84458461D01*
X167558405Y-84393387D01*
X167640472Y-84239851D01*
X167691008Y-84073255D01*
X167708072Y-83900001D01*
X167708072Y-83249999D01*
X167691008Y-83076745D01*
X167640472Y-82910149D01*
X167558405Y-82756613D01*
X167447962Y-82622038D01*
X167360184Y-82550000D01*
X167447962Y-82477962D01*
X167558405Y-82343387D01*
X167640472Y-82189851D01*
X167691008Y-82023255D01*
X167708072Y-81850001D01*
X167708072Y-81199999D01*
X167691008Y-81026745D01*
X167640472Y-80860149D01*
X167558405Y-80706613D01*
X167505000Y-80641539D01*
X167505000Y-76670131D01*
X172213141Y-71961991D01*
X172256449Y-71926449D01*
X172398284Y-71753623D01*
X172503676Y-71556447D01*
X172568577Y-71342499D01*
X172585000Y-71175752D01*
X172590491Y-71120000D01*
X172585000Y-71064249D01*
X172585000Y-66924284D01*
X172720000Y-66722241D01*
X172855000Y-66924284D01*
G37*
X172855000Y-66924284D02*
X172855001Y-73189867D01*
X171956865Y-74088004D01*
X171913551Y-74123551D01*
X171771716Y-74296377D01*
X171680812Y-74466448D01*
X171666324Y-74493554D01*
X171601423Y-74707502D01*
X171579509Y-74930000D01*
X171585000Y-74985752D01*
X171585001Y-80641538D01*
X171531595Y-80706613D01*
X171449528Y-80860149D01*
X171398992Y-81026745D01*
X171381928Y-81199999D01*
X171381928Y-81850001D01*
X171398992Y-82023255D01*
X171449528Y-82189851D01*
X171531595Y-82343387D01*
X171642038Y-82477962D01*
X171729816Y-82550000D01*
X171642038Y-82622038D01*
X171531595Y-82756613D01*
X171449528Y-82910149D01*
X171398992Y-83076745D01*
X171381928Y-83249999D01*
X171381928Y-83900001D01*
X171398992Y-84073255D01*
X171449528Y-84239851D01*
X171531595Y-84393387D01*
X171585000Y-84458461D01*
X171585001Y-87239118D01*
X171548815Y-87268815D01*
X171469463Y-87365506D01*
X171450000Y-87401918D01*
X171430537Y-87365506D01*
X171351185Y-87268815D01*
X171254494Y-87189463D01*
X171144180Y-87130498D01*
X171024482Y-87094188D01*
X170900000Y-87081928D01*
X170785750Y-87085000D01*
X170627000Y-87243750D01*
X170627000Y-88043000D01*
X170647000Y-88043000D01*
X170647000Y-88297000D01*
X170627000Y-88297000D01*
X170627000Y-89096250D01*
X170711607Y-89180857D01*
X170695506Y-89189463D01*
X170598815Y-89268815D01*
X170519463Y-89365506D01*
X170460498Y-89475820D01*
X170424188Y-89595518D01*
X170413816Y-89700828D01*
X170396324Y-89733554D01*
X170331423Y-89947502D01*
X170315000Y-90114249D01*
X170315001Y-94284892D01*
X170296525Y-94303368D01*
X170134010Y-94546589D01*
X170022068Y-94816842D01*
X169965000Y-95103740D01*
X169965000Y-95396260D01*
X170022068Y-95683158D01*
X170134010Y-95953411D01*
X170296525Y-96196632D01*
X170428380Y-96328487D01*
X170355820Y-96350498D01*
X170245506Y-96409463D01*
X170148815Y-96488815D01*
X170069463Y-96585506D01*
X170010498Y-96695820D01*
X169974188Y-96815518D01*
X169961928Y-96940000D01*
X169961928Y-97105572D01*
X169932148Y-97161286D01*
X169838657Y-97469485D01*
X169815000Y-97709679D01*
X169815001Y-106315000D01*
X166735000Y-106315000D01*
X166735000Y-97709678D01*
X166711343Y-97469484D01*
X166617852Y-97161285D01*
X166588072Y-97105571D01*
X166588072Y-96940000D01*
X166575812Y-96815518D01*
X166539502Y-96695820D01*
X166480537Y-96585506D01*
X166401185Y-96488815D01*
X166304494Y-96409463D01*
X166194180Y-96350498D01*
X166121620Y-96328487D01*
X166253475Y-96196632D01*
X166415990Y-95953411D01*
X166527932Y-95683158D01*
X166585000Y-95396260D01*
X166585000Y-95103740D01*
X166527932Y-94816842D01*
X166415990Y-94546589D01*
X166253475Y-94303368D01*
X166235000Y-94284893D01*
X166235000Y-89844248D01*
X166218577Y-89677501D01*
X166153676Y-89463553D01*
X166136184Y-89430827D01*
X166125812Y-89325518D01*
X166089502Y-89205820D01*
X166030537Y-89095506D01*
X165979706Y-89033568D01*
X166050000Y-89040491D01*
X166272498Y-89018577D01*
X166373059Y-88988072D01*
X166450000Y-88988072D01*
X166574482Y-88975812D01*
X166694180Y-88939502D01*
X166804494Y-88880537D01*
X166901185Y-88801185D01*
X166980537Y-88704494D01*
X167025700Y-88620000D01*
X169461928Y-88620000D01*
X169474188Y-88744482D01*
X169510498Y-88864180D01*
X169569463Y-88974494D01*
X169648815Y-89071185D01*
X169745506Y-89150537D01*
X169855820Y-89209502D01*
X169975518Y-89245812D01*
X170100000Y-89258072D01*
X170214250Y-89255000D01*
X170373000Y-89096250D01*
X170373000Y-88297000D01*
X169623750Y-88297000D01*
X169465000Y-88455750D01*
X169461928Y-88620000D01*
X167025700Y-88620000D01*
X167039502Y-88594180D01*
X167073706Y-88481425D01*
X167133135Y-88421996D01*
X167176449Y-88386449D01*
X167318284Y-88213623D01*
X167423676Y-88016447D01*
X167488577Y-87802499D01*
X167496702Y-87720000D01*
X169461928Y-87720000D01*
X169465000Y-87884250D01*
X169623750Y-88043000D01*
X170373000Y-88043000D01*
X170373000Y-87243750D01*
X170214250Y-87085000D01*
X170100000Y-87081928D01*
X169975518Y-87094188D01*
X169855820Y-87130498D01*
X169745506Y-87189463D01*
X169648815Y-87268815D01*
X169569463Y-87365506D01*
X169510498Y-87475820D01*
X169474188Y-87595518D01*
X169461928Y-87720000D01*
X167496702Y-87720000D01*
X167505000Y-87635752D01*
X167505000Y-87635743D01*
X167510490Y-87580001D01*
X167505000Y-87524259D01*
X167505000Y-84458461D01*
X167558405Y-84393387D01*
X167640472Y-84239851D01*
X167691008Y-84073255D01*
X167708072Y-83900001D01*
X167708072Y-83249999D01*
X167691008Y-83076745D01*
X167640472Y-82910149D01*
X167558405Y-82756613D01*
X167447962Y-82622038D01*
X167360184Y-82550000D01*
X167447962Y-82477962D01*
X167558405Y-82343387D01*
X167640472Y-82189851D01*
X167691008Y-82023255D01*
X167708072Y-81850001D01*
X167708072Y-81199999D01*
X167691008Y-81026745D01*
X167640472Y-80860149D01*
X167558405Y-80706613D01*
X167505000Y-80641539D01*
X167505000Y-76670131D01*
X172213141Y-71961991D01*
X172256449Y-71926449D01*
X172398284Y-71753623D01*
X172503676Y-71556447D01*
X172568577Y-71342499D01*
X172585000Y-71175752D01*
X172590491Y-71120000D01*
X172585000Y-71064249D01*
X172585000Y-66924284D01*
X172720000Y-66722241D01*
X172855000Y-66924284D01*
G36*
X175395000Y-66924284D02*
G01*
X175395001Y-72334239D01*
X175389509Y-72390000D01*
X175411423Y-72612498D01*
X175476324Y-72826446D01*
X175513960Y-72896857D01*
X175581717Y-73023623D01*
X175723552Y-73196449D01*
X175766860Y-73231991D01*
X177935000Y-75400132D01*
X177935001Y-80641538D01*
X177881595Y-80706613D01*
X177799528Y-80860149D01*
X177748992Y-81026745D01*
X177731928Y-81199999D01*
X177731928Y-81850001D01*
X177748992Y-82023255D01*
X177799528Y-82189851D01*
X177881595Y-82343387D01*
X177992038Y-82477962D01*
X178079816Y-82550000D01*
X177992038Y-82622038D01*
X177881595Y-82756613D01*
X177799528Y-82910149D01*
X177748992Y-83076745D01*
X177731928Y-83249999D01*
X177731928Y-83900001D01*
X177748992Y-84073255D01*
X177799528Y-84239851D01*
X177881595Y-84393387D01*
X177935000Y-84458461D01*
X177935001Y-86969118D01*
X177898815Y-86998815D01*
X177819463Y-87095506D01*
X177800000Y-87131918D01*
X177780537Y-87095506D01*
X177701185Y-86998815D01*
X177604494Y-86919463D01*
X177494180Y-86860498D01*
X177374482Y-86824188D01*
X177250000Y-86811928D01*
X177135750Y-86815000D01*
X176977000Y-86973750D01*
X176977000Y-87773000D01*
X176997000Y-87773000D01*
X176997000Y-88027000D01*
X176977000Y-88027000D01*
X176977000Y-88826250D01*
X177061607Y-88910857D01*
X177045506Y-88919463D01*
X176948815Y-88998815D01*
X176869463Y-89095506D01*
X176810498Y-89205820D01*
X176774188Y-89325518D01*
X176763816Y-89430828D01*
X176746324Y-89463554D01*
X176681423Y-89677502D01*
X176665000Y-89844249D01*
X176665001Y-94284892D01*
X176646525Y-94303368D01*
X176484010Y-94546589D01*
X176372068Y-94816842D01*
X176315000Y-95103740D01*
X176315000Y-95396260D01*
X176372068Y-95683158D01*
X176484010Y-95953411D01*
X176646525Y-96196632D01*
X176778380Y-96328487D01*
X176705820Y-96350498D01*
X176595506Y-96409463D01*
X176498815Y-96488815D01*
X176419463Y-96585506D01*
X176360498Y-96695820D01*
X176324188Y-96815518D01*
X176311928Y-96940000D01*
X176311928Y-97105572D01*
X176282148Y-97161286D01*
X176188657Y-97469485D01*
X176165000Y-97709679D01*
X176165001Y-106315000D01*
X173085000Y-106315000D01*
X173085000Y-97709678D01*
X173061343Y-97469484D01*
X172967852Y-97161285D01*
X172938072Y-97105571D01*
X172938072Y-96940000D01*
X172925812Y-96815518D01*
X172889502Y-96695820D01*
X172830537Y-96585506D01*
X172751185Y-96488815D01*
X172654494Y-96409463D01*
X172544180Y-96350498D01*
X172471620Y-96328487D01*
X172603475Y-96196632D01*
X172765990Y-95953411D01*
X172877932Y-95683158D01*
X172935000Y-95396260D01*
X172935000Y-95103740D01*
X172877932Y-94816842D01*
X172765990Y-94546589D01*
X172603475Y-94303368D01*
X172585000Y-94284893D01*
X172585000Y-90114248D01*
X172568577Y-89947501D01*
X172503676Y-89733553D01*
X172486184Y-89700827D01*
X172475812Y-89595518D01*
X172439502Y-89475820D01*
X172380537Y-89365506D01*
X172329706Y-89303568D01*
X172400000Y-89310491D01*
X172622498Y-89288577D01*
X172723059Y-89258072D01*
X172800000Y-89258072D01*
X172924482Y-89245812D01*
X173044180Y-89209502D01*
X173154494Y-89150537D01*
X173251185Y-89071185D01*
X173330537Y-88974494D01*
X173389502Y-88864180D01*
X173423706Y-88751425D01*
X173483135Y-88691996D01*
X173526449Y-88656449D01*
X173668284Y-88483623D01*
X173739706Y-88350000D01*
X175811928Y-88350000D01*
X175824188Y-88474482D01*
X175860498Y-88594180D01*
X175919463Y-88704494D01*
X175998815Y-88801185D01*
X176095506Y-88880537D01*
X176205820Y-88939502D01*
X176325518Y-88975812D01*
X176450000Y-88988072D01*
X176564250Y-88985000D01*
X176723000Y-88826250D01*
X176723000Y-88027000D01*
X175973750Y-88027000D01*
X175815000Y-88185750D01*
X175811928Y-88350000D01*
X173739706Y-88350000D01*
X173773676Y-88286447D01*
X173838577Y-88072499D01*
X173855000Y-87905752D01*
X173855000Y-87905743D01*
X173860490Y-87850001D01*
X173855000Y-87794259D01*
X173855000Y-87450000D01*
X175811928Y-87450000D01*
X175815000Y-87614250D01*
X175973750Y-87773000D01*
X176723000Y-87773000D01*
X176723000Y-86973750D01*
X176564250Y-86815000D01*
X176450000Y-86811928D01*
X176325518Y-86824188D01*
X176205820Y-86860498D01*
X176095506Y-86919463D01*
X175998815Y-86998815D01*
X175919463Y-87095506D01*
X175860498Y-87205820D01*
X175824188Y-87325518D01*
X175811928Y-87450000D01*
X173855000Y-87450000D01*
X173855000Y-84458461D01*
X173908405Y-84393387D01*
X173990472Y-84239851D01*
X174041008Y-84073255D01*
X174058072Y-83900001D01*
X174058072Y-83249999D01*
X174041008Y-83076745D01*
X173990472Y-82910149D01*
X173908405Y-82756613D01*
X173797962Y-82622038D01*
X173710184Y-82550000D01*
X173797962Y-82477962D01*
X173908405Y-82343387D01*
X173990472Y-82189851D01*
X174041008Y-82023255D01*
X174058072Y-81850001D01*
X174058072Y-81199999D01*
X174041008Y-81026745D01*
X173990472Y-80860149D01*
X173908405Y-80706613D01*
X173855000Y-80641539D01*
X173855000Y-75400131D01*
X174753140Y-74501992D01*
X174796449Y-74466449D01*
X174938284Y-74293623D01*
X175043676Y-74096447D01*
X175108577Y-73882499D01*
X175125000Y-73715752D01*
X175125000Y-73715745D01*
X175130490Y-73660001D01*
X175125000Y-73604257D01*
X175125000Y-66924284D01*
X175260000Y-66722241D01*
X175395000Y-66924284D01*
G37*
X175395000Y-66924284D02*
X175395001Y-72334239D01*
X175389509Y-72390000D01*
X175411423Y-72612498D01*
X175476324Y-72826446D01*
X175513960Y-72896857D01*
X175581717Y-73023623D01*
X175723552Y-73196449D01*
X175766860Y-73231991D01*
X177935000Y-75400132D01*
X177935001Y-80641538D01*
X177881595Y-80706613D01*
X177799528Y-80860149D01*
X177748992Y-81026745D01*
X177731928Y-81199999D01*
X177731928Y-81850001D01*
X177748992Y-82023255D01*
X177799528Y-82189851D01*
X177881595Y-82343387D01*
X177992038Y-82477962D01*
X178079816Y-82550000D01*
X177992038Y-82622038D01*
X177881595Y-82756613D01*
X177799528Y-82910149D01*
X177748992Y-83076745D01*
X177731928Y-83249999D01*
X177731928Y-83900001D01*
X177748992Y-84073255D01*
X177799528Y-84239851D01*
X177881595Y-84393387D01*
X177935000Y-84458461D01*
X177935001Y-86969118D01*
X177898815Y-86998815D01*
X177819463Y-87095506D01*
X177800000Y-87131918D01*
X177780537Y-87095506D01*
X177701185Y-86998815D01*
X177604494Y-86919463D01*
X177494180Y-86860498D01*
X177374482Y-86824188D01*
X177250000Y-86811928D01*
X177135750Y-86815000D01*
X176977000Y-86973750D01*
X176977000Y-87773000D01*
X176997000Y-87773000D01*
X176997000Y-88027000D01*
X176977000Y-88027000D01*
X176977000Y-88826250D01*
X177061607Y-88910857D01*
X177045506Y-88919463D01*
X176948815Y-88998815D01*
X176869463Y-89095506D01*
X176810498Y-89205820D01*
X176774188Y-89325518D01*
X176763816Y-89430828D01*
X176746324Y-89463554D01*
X176681423Y-89677502D01*
X176665000Y-89844249D01*
X176665001Y-94284892D01*
X176646525Y-94303368D01*
X176484010Y-94546589D01*
X176372068Y-94816842D01*
X176315000Y-95103740D01*
X176315000Y-95396260D01*
X176372068Y-95683158D01*
X176484010Y-95953411D01*
X176646525Y-96196632D01*
X176778380Y-96328487D01*
X176705820Y-96350498D01*
X176595506Y-96409463D01*
X176498815Y-96488815D01*
X176419463Y-96585506D01*
X176360498Y-96695820D01*
X176324188Y-96815518D01*
X176311928Y-96940000D01*
X176311928Y-97105572D01*
X176282148Y-97161286D01*
X176188657Y-97469485D01*
X176165000Y-97709679D01*
X176165001Y-106315000D01*
X173085000Y-106315000D01*
X173085000Y-97709678D01*
X173061343Y-97469484D01*
X172967852Y-97161285D01*
X172938072Y-97105571D01*
X172938072Y-96940000D01*
X172925812Y-96815518D01*
X172889502Y-96695820D01*
X172830537Y-96585506D01*
X172751185Y-96488815D01*
X172654494Y-96409463D01*
X172544180Y-96350498D01*
X172471620Y-96328487D01*
X172603475Y-96196632D01*
X172765990Y-95953411D01*
X172877932Y-95683158D01*
X172935000Y-95396260D01*
X172935000Y-95103740D01*
X172877932Y-94816842D01*
X172765990Y-94546589D01*
X172603475Y-94303368D01*
X172585000Y-94284893D01*
X172585000Y-90114248D01*
X172568577Y-89947501D01*
X172503676Y-89733553D01*
X172486184Y-89700827D01*
X172475812Y-89595518D01*
X172439502Y-89475820D01*
X172380537Y-89365506D01*
X172329706Y-89303568D01*
X172400000Y-89310491D01*
X172622498Y-89288577D01*
X172723059Y-89258072D01*
X172800000Y-89258072D01*
X172924482Y-89245812D01*
X173044180Y-89209502D01*
X173154494Y-89150537D01*
X173251185Y-89071185D01*
X173330537Y-88974494D01*
X173389502Y-88864180D01*
X173423706Y-88751425D01*
X173483135Y-88691996D01*
X173526449Y-88656449D01*
X173668284Y-88483623D01*
X173739706Y-88350000D01*
X175811928Y-88350000D01*
X175824188Y-88474482D01*
X175860498Y-88594180D01*
X175919463Y-88704494D01*
X175998815Y-88801185D01*
X176095506Y-88880537D01*
X176205820Y-88939502D01*
X176325518Y-88975812D01*
X176450000Y-88988072D01*
X176564250Y-88985000D01*
X176723000Y-88826250D01*
X176723000Y-88027000D01*
X175973750Y-88027000D01*
X175815000Y-88185750D01*
X175811928Y-88350000D01*
X173739706Y-88350000D01*
X173773676Y-88286447D01*
X173838577Y-88072499D01*
X173855000Y-87905752D01*
X173855000Y-87905743D01*
X173860490Y-87850001D01*
X173855000Y-87794259D01*
X173855000Y-87450000D01*
X175811928Y-87450000D01*
X175815000Y-87614250D01*
X175973750Y-87773000D01*
X176723000Y-87773000D01*
X176723000Y-86973750D01*
X176564250Y-86815000D01*
X176450000Y-86811928D01*
X176325518Y-86824188D01*
X176205820Y-86860498D01*
X176095506Y-86919463D01*
X175998815Y-86998815D01*
X175919463Y-87095506D01*
X175860498Y-87205820D01*
X175824188Y-87325518D01*
X175811928Y-87450000D01*
X173855000Y-87450000D01*
X173855000Y-84458461D01*
X173908405Y-84393387D01*
X173990472Y-84239851D01*
X174041008Y-84073255D01*
X174058072Y-83900001D01*
X174058072Y-83249999D01*
X174041008Y-83076745D01*
X173990472Y-82910149D01*
X173908405Y-82756613D01*
X173797962Y-82622038D01*
X173710184Y-82550000D01*
X173797962Y-82477962D01*
X173908405Y-82343387D01*
X173990472Y-82189851D01*
X174041008Y-82023255D01*
X174058072Y-81850001D01*
X174058072Y-81199999D01*
X174041008Y-81026745D01*
X173990472Y-80860149D01*
X173908405Y-80706613D01*
X173855000Y-80641539D01*
X173855000Y-75400131D01*
X174753140Y-74501992D01*
X174796449Y-74466449D01*
X174938284Y-74293623D01*
X175043676Y-74096447D01*
X175108577Y-73882499D01*
X175125000Y-73715752D01*
X175125000Y-73715745D01*
X175130490Y-73660001D01*
X175125000Y-73604257D01*
X175125000Y-66924284D01*
X175260000Y-66722241D01*
X175395000Y-66924284D01*
G36*
X177935001Y-66924285D02*
G01*
X177935000Y-68524248D01*
X177929509Y-68580000D01*
X177935000Y-68635751D01*
X177951423Y-68802498D01*
X178016324Y-69016446D01*
X178121716Y-69213623D01*
X178263551Y-69386449D01*
X178306865Y-69421996D01*
X184285001Y-75400133D01*
X184285000Y-80886539D01*
X184231595Y-80951613D01*
X184149528Y-81105149D01*
X184098992Y-81271745D01*
X184081928Y-81444999D01*
X184081928Y-82095001D01*
X184098992Y-82268255D01*
X184149528Y-82434851D01*
X184231595Y-82588387D01*
X184342038Y-82722962D01*
X184429816Y-82795000D01*
X184342038Y-82867038D01*
X184231595Y-83001613D01*
X184149528Y-83155149D01*
X184098992Y-83321745D01*
X184081928Y-83494999D01*
X184081928Y-84145001D01*
X184098992Y-84318255D01*
X184149528Y-84484851D01*
X184231595Y-84638387D01*
X184285000Y-84703461D01*
X184285001Y-86969118D01*
X184248815Y-86998815D01*
X184169463Y-87095506D01*
X184150000Y-87131918D01*
X184130537Y-87095506D01*
X184051185Y-86998815D01*
X183954494Y-86919463D01*
X183844180Y-86860498D01*
X183724482Y-86824188D01*
X183600000Y-86811928D01*
X183485750Y-86815000D01*
X183327000Y-86973750D01*
X183327000Y-87773000D01*
X183347000Y-87773000D01*
X183347000Y-88027000D01*
X183327000Y-88027000D01*
X183327000Y-88826250D01*
X183411607Y-88910857D01*
X183395506Y-88919463D01*
X183298815Y-88998815D01*
X183219463Y-89095506D01*
X183160498Y-89205820D01*
X183124188Y-89325518D01*
X183113816Y-89430828D01*
X183096324Y-89463554D01*
X183031423Y-89677502D01*
X183015000Y-89844249D01*
X183015001Y-94284892D01*
X182996525Y-94303368D01*
X182834010Y-94546589D01*
X182722068Y-94816842D01*
X182665000Y-95103740D01*
X182665000Y-95396260D01*
X182722068Y-95683158D01*
X182834010Y-95953411D01*
X182996525Y-96196632D01*
X183128380Y-96328487D01*
X183055820Y-96350498D01*
X182945506Y-96409463D01*
X182848815Y-96488815D01*
X182769463Y-96585506D01*
X182710498Y-96695820D01*
X182674188Y-96815518D01*
X182661928Y-96940000D01*
X182661928Y-97105572D01*
X182632148Y-97161286D01*
X182538657Y-97469485D01*
X182515000Y-97709679D01*
X182515001Y-106315000D01*
X179435000Y-106315000D01*
X179435000Y-97709678D01*
X179411343Y-97469484D01*
X179317852Y-97161285D01*
X179288072Y-97105571D01*
X179288072Y-96940000D01*
X179275812Y-96815518D01*
X179239502Y-96695820D01*
X179180537Y-96585506D01*
X179101185Y-96488815D01*
X179004494Y-96409463D01*
X178894180Y-96350498D01*
X178821620Y-96328487D01*
X178953475Y-96196632D01*
X179115990Y-95953411D01*
X179227932Y-95683158D01*
X179285000Y-95396260D01*
X179285000Y-95103740D01*
X179227932Y-94816842D01*
X179115990Y-94546589D01*
X178953475Y-94303368D01*
X178935000Y-94284893D01*
X178935000Y-89844248D01*
X178918577Y-89677501D01*
X178853676Y-89463553D01*
X178836184Y-89430827D01*
X178825812Y-89325518D01*
X178789502Y-89205820D01*
X178730537Y-89095506D01*
X178679706Y-89033568D01*
X178750000Y-89040491D01*
X178972498Y-89018577D01*
X179073059Y-88988072D01*
X179150000Y-88988072D01*
X179274482Y-88975812D01*
X179394180Y-88939502D01*
X179504494Y-88880537D01*
X179601185Y-88801185D01*
X179680537Y-88704494D01*
X179739502Y-88594180D01*
X179773706Y-88481425D01*
X179833135Y-88421996D01*
X179876449Y-88386449D01*
X179906361Y-88350000D01*
X182161928Y-88350000D01*
X182174188Y-88474482D01*
X182210498Y-88594180D01*
X182269463Y-88704494D01*
X182348815Y-88801185D01*
X182445506Y-88880537D01*
X182555820Y-88939502D01*
X182675518Y-88975812D01*
X182800000Y-88988072D01*
X182914250Y-88985000D01*
X183073000Y-88826250D01*
X183073000Y-88027000D01*
X182323750Y-88027000D01*
X182165000Y-88185750D01*
X182161928Y-88350000D01*
X179906361Y-88350000D01*
X180018284Y-88213623D01*
X180123676Y-88016447D01*
X180188577Y-87802499D01*
X180205000Y-87635752D01*
X180205000Y-87635743D01*
X180210490Y-87580001D01*
X180205000Y-87524259D01*
X180205000Y-87450000D01*
X182161928Y-87450000D01*
X182165000Y-87614250D01*
X182323750Y-87773000D01*
X183073000Y-87773000D01*
X183073000Y-86973750D01*
X182914250Y-86815000D01*
X182800000Y-86811928D01*
X182675518Y-86824188D01*
X182555820Y-86860498D01*
X182445506Y-86919463D01*
X182348815Y-86998815D01*
X182269463Y-87095506D01*
X182210498Y-87205820D01*
X182174188Y-87325518D01*
X182161928Y-87450000D01*
X180205000Y-87450000D01*
X180205000Y-84458461D01*
X180258405Y-84393387D01*
X180340472Y-84239851D01*
X180391008Y-84073255D01*
X180408072Y-83900001D01*
X180408072Y-83249999D01*
X180391008Y-83076745D01*
X180340472Y-82910149D01*
X180258405Y-82756613D01*
X180147962Y-82622038D01*
X180060184Y-82550000D01*
X180147962Y-82477962D01*
X180258405Y-82343387D01*
X180340472Y-82189851D01*
X180391008Y-82023255D01*
X180408072Y-81850001D01*
X180408072Y-81199999D01*
X180391008Y-81026745D01*
X180340472Y-80860149D01*
X180258405Y-80706613D01*
X180205000Y-80641539D01*
X180205000Y-74985741D01*
X180210490Y-74929999D01*
X180205000Y-74874257D01*
X180205000Y-74874248D01*
X180188577Y-74707501D01*
X180123676Y-74493553D01*
X180018284Y-74296377D01*
X179876449Y-74123551D01*
X179833141Y-74088009D01*
X177665000Y-71919869D01*
X177665000Y-66924284D01*
X177800000Y-66722241D01*
X177935001Y-66924285D01*
G37*
X177935001Y-66924285D02*
X177935000Y-68524248D01*
X177929509Y-68580000D01*
X177935000Y-68635751D01*
X177951423Y-68802498D01*
X178016324Y-69016446D01*
X178121716Y-69213623D01*
X178263551Y-69386449D01*
X178306865Y-69421996D01*
X184285001Y-75400133D01*
X184285000Y-80886539D01*
X184231595Y-80951613D01*
X184149528Y-81105149D01*
X184098992Y-81271745D01*
X184081928Y-81444999D01*
X184081928Y-82095001D01*
X184098992Y-82268255D01*
X184149528Y-82434851D01*
X184231595Y-82588387D01*
X184342038Y-82722962D01*
X184429816Y-82795000D01*
X184342038Y-82867038D01*
X184231595Y-83001613D01*
X184149528Y-83155149D01*
X184098992Y-83321745D01*
X184081928Y-83494999D01*
X184081928Y-84145001D01*
X184098992Y-84318255D01*
X184149528Y-84484851D01*
X184231595Y-84638387D01*
X184285000Y-84703461D01*
X184285001Y-86969118D01*
X184248815Y-86998815D01*
X184169463Y-87095506D01*
X184150000Y-87131918D01*
X184130537Y-87095506D01*
X184051185Y-86998815D01*
X183954494Y-86919463D01*
X183844180Y-86860498D01*
X183724482Y-86824188D01*
X183600000Y-86811928D01*
X183485750Y-86815000D01*
X183327000Y-86973750D01*
X183327000Y-87773000D01*
X183347000Y-87773000D01*
X183347000Y-88027000D01*
X183327000Y-88027000D01*
X183327000Y-88826250D01*
X183411607Y-88910857D01*
X183395506Y-88919463D01*
X183298815Y-88998815D01*
X183219463Y-89095506D01*
X183160498Y-89205820D01*
X183124188Y-89325518D01*
X183113816Y-89430828D01*
X183096324Y-89463554D01*
X183031423Y-89677502D01*
X183015000Y-89844249D01*
X183015001Y-94284892D01*
X182996525Y-94303368D01*
X182834010Y-94546589D01*
X182722068Y-94816842D01*
X182665000Y-95103740D01*
X182665000Y-95396260D01*
X182722068Y-95683158D01*
X182834010Y-95953411D01*
X182996525Y-96196632D01*
X183128380Y-96328487D01*
X183055820Y-96350498D01*
X182945506Y-96409463D01*
X182848815Y-96488815D01*
X182769463Y-96585506D01*
X182710498Y-96695820D01*
X182674188Y-96815518D01*
X182661928Y-96940000D01*
X182661928Y-97105572D01*
X182632148Y-97161286D01*
X182538657Y-97469485D01*
X182515000Y-97709679D01*
X182515001Y-106315000D01*
X179435000Y-106315000D01*
X179435000Y-97709678D01*
X179411343Y-97469484D01*
X179317852Y-97161285D01*
X179288072Y-97105571D01*
X179288072Y-96940000D01*
X179275812Y-96815518D01*
X179239502Y-96695820D01*
X179180537Y-96585506D01*
X179101185Y-96488815D01*
X179004494Y-96409463D01*
X178894180Y-96350498D01*
X178821620Y-96328487D01*
X178953475Y-96196632D01*
X179115990Y-95953411D01*
X179227932Y-95683158D01*
X179285000Y-95396260D01*
X179285000Y-95103740D01*
X179227932Y-94816842D01*
X179115990Y-94546589D01*
X178953475Y-94303368D01*
X178935000Y-94284893D01*
X178935000Y-89844248D01*
X178918577Y-89677501D01*
X178853676Y-89463553D01*
X178836184Y-89430827D01*
X178825812Y-89325518D01*
X178789502Y-89205820D01*
X178730537Y-89095506D01*
X178679706Y-89033568D01*
X178750000Y-89040491D01*
X178972498Y-89018577D01*
X179073059Y-88988072D01*
X179150000Y-88988072D01*
X179274482Y-88975812D01*
X179394180Y-88939502D01*
X179504494Y-88880537D01*
X179601185Y-88801185D01*
X179680537Y-88704494D01*
X179739502Y-88594180D01*
X179773706Y-88481425D01*
X179833135Y-88421996D01*
X179876449Y-88386449D01*
X179906361Y-88350000D01*
X182161928Y-88350000D01*
X182174188Y-88474482D01*
X182210498Y-88594180D01*
X182269463Y-88704494D01*
X182348815Y-88801185D01*
X182445506Y-88880537D01*
X182555820Y-88939502D01*
X182675518Y-88975812D01*
X182800000Y-88988072D01*
X182914250Y-88985000D01*
X183073000Y-88826250D01*
X183073000Y-88027000D01*
X182323750Y-88027000D01*
X182165000Y-88185750D01*
X182161928Y-88350000D01*
X179906361Y-88350000D01*
X180018284Y-88213623D01*
X180123676Y-88016447D01*
X180188577Y-87802499D01*
X180205000Y-87635752D01*
X180205000Y-87635743D01*
X180210490Y-87580001D01*
X180205000Y-87524259D01*
X180205000Y-87450000D01*
X182161928Y-87450000D01*
X182165000Y-87614250D01*
X182323750Y-87773000D01*
X183073000Y-87773000D01*
X183073000Y-86973750D01*
X182914250Y-86815000D01*
X182800000Y-86811928D01*
X182675518Y-86824188D01*
X182555820Y-86860498D01*
X182445506Y-86919463D01*
X182348815Y-86998815D01*
X182269463Y-87095506D01*
X182210498Y-87205820D01*
X182174188Y-87325518D01*
X182161928Y-87450000D01*
X180205000Y-87450000D01*
X180205000Y-84458461D01*
X180258405Y-84393387D01*
X180340472Y-84239851D01*
X180391008Y-84073255D01*
X180408072Y-83900001D01*
X180408072Y-83249999D01*
X180391008Y-83076745D01*
X180340472Y-82910149D01*
X180258405Y-82756613D01*
X180147962Y-82622038D01*
X180060184Y-82550000D01*
X180147962Y-82477962D01*
X180258405Y-82343387D01*
X180340472Y-82189851D01*
X180391008Y-82023255D01*
X180408072Y-81850001D01*
X180408072Y-81199999D01*
X180391008Y-81026745D01*
X180340472Y-80860149D01*
X180258405Y-80706613D01*
X180205000Y-80641539D01*
X180205000Y-74985741D01*
X180210490Y-74929999D01*
X180205000Y-74874257D01*
X180205000Y-74874248D01*
X180188577Y-74707501D01*
X180123676Y-74493553D01*
X180018284Y-74296377D01*
X179876449Y-74123551D01*
X179833141Y-74088009D01*
X177665000Y-71919869D01*
X177665000Y-66924284D01*
X177800000Y-66722241D01*
X177935001Y-66924285D01*
G36*
X170315000Y-66924284D02*
G01*
X170315001Y-70649867D01*
X165606865Y-75358004D01*
X165563551Y-75393551D01*
X165421716Y-75566377D01*
X165330812Y-75736448D01*
X165316324Y-75763554D01*
X165251423Y-75977502D01*
X165229509Y-76200000D01*
X165235000Y-76255752D01*
X165235001Y-80641538D01*
X165181595Y-80706613D01*
X165099528Y-80860149D01*
X165048992Y-81026745D01*
X165031928Y-81199999D01*
X165031928Y-81850001D01*
X165048992Y-82023255D01*
X165099528Y-82189851D01*
X165181595Y-82343387D01*
X165292038Y-82477962D01*
X165379816Y-82550000D01*
X165292038Y-82622038D01*
X165181595Y-82756613D01*
X165099528Y-82910149D01*
X165048992Y-83076745D01*
X165031928Y-83249999D01*
X165031928Y-83900001D01*
X165048992Y-84073255D01*
X165099528Y-84239851D01*
X165181595Y-84393387D01*
X165235000Y-84458461D01*
X165235001Y-86969118D01*
X165198815Y-86998815D01*
X165119463Y-87095506D01*
X165100000Y-87131918D01*
X165080537Y-87095506D01*
X165001185Y-86998815D01*
X164904494Y-86919463D01*
X164794180Y-86860498D01*
X164674482Y-86824188D01*
X164550000Y-86811928D01*
X164435750Y-86815000D01*
X164277000Y-86973750D01*
X164277000Y-87773000D01*
X164297000Y-87773000D01*
X164297000Y-88027000D01*
X164277000Y-88027000D01*
X164277000Y-88826250D01*
X164361607Y-88910857D01*
X164345506Y-88919463D01*
X164248815Y-88998815D01*
X164169463Y-89095506D01*
X164110498Y-89205820D01*
X164074188Y-89325518D01*
X164063816Y-89430828D01*
X164046324Y-89463554D01*
X163981423Y-89677502D01*
X163965000Y-89844249D01*
X163965001Y-94284892D01*
X163946525Y-94303368D01*
X163784010Y-94546589D01*
X163672068Y-94816842D01*
X163615000Y-95103740D01*
X163615000Y-95396260D01*
X163672068Y-95683158D01*
X163784010Y-95953411D01*
X163946525Y-96196632D01*
X164078380Y-96328487D01*
X164005820Y-96350498D01*
X163895506Y-96409463D01*
X163798815Y-96488815D01*
X163719463Y-96585506D01*
X163660498Y-96695820D01*
X163624188Y-96815518D01*
X163611928Y-96940000D01*
X163611928Y-97105572D01*
X163582148Y-97161286D01*
X163488657Y-97469485D01*
X163465000Y-97709679D01*
X163465001Y-106315000D01*
X160385000Y-106315000D01*
X160385000Y-97709678D01*
X160361343Y-97469484D01*
X160267852Y-97161285D01*
X160238072Y-97105571D01*
X160238072Y-96940000D01*
X160225812Y-96815518D01*
X160189502Y-96695820D01*
X160130537Y-96585506D01*
X160051185Y-96488815D01*
X159954494Y-96409463D01*
X159844180Y-96350498D01*
X159771620Y-96328487D01*
X159903475Y-96196632D01*
X160065990Y-95953411D01*
X160177932Y-95683158D01*
X160235000Y-95396260D01*
X160235000Y-95103740D01*
X160177932Y-94816842D01*
X160065990Y-94546589D01*
X159903475Y-94303368D01*
X159885000Y-94284893D01*
X159885000Y-89844248D01*
X159868577Y-89677501D01*
X159803676Y-89463553D01*
X159786184Y-89430827D01*
X159775812Y-89325518D01*
X159739502Y-89205820D01*
X159680537Y-89095506D01*
X159629706Y-89033568D01*
X159700000Y-89040491D01*
X159922498Y-89018577D01*
X160023059Y-88988072D01*
X160100000Y-88988072D01*
X160224482Y-88975812D01*
X160344180Y-88939502D01*
X160454494Y-88880537D01*
X160551185Y-88801185D01*
X160630537Y-88704494D01*
X160689502Y-88594180D01*
X160723706Y-88481425D01*
X160783135Y-88421996D01*
X160826449Y-88386449D01*
X160856361Y-88350000D01*
X163111928Y-88350000D01*
X163124188Y-88474482D01*
X163160498Y-88594180D01*
X163219463Y-88704494D01*
X163298815Y-88801185D01*
X163395506Y-88880537D01*
X163505820Y-88939502D01*
X163625518Y-88975812D01*
X163750000Y-88988072D01*
X163864250Y-88985000D01*
X164023000Y-88826250D01*
X164023000Y-88027000D01*
X163273750Y-88027000D01*
X163115000Y-88185750D01*
X163111928Y-88350000D01*
X160856361Y-88350000D01*
X160968284Y-88213623D01*
X161073676Y-88016447D01*
X161138577Y-87802499D01*
X161155000Y-87635752D01*
X161155000Y-87635743D01*
X161160490Y-87580001D01*
X161155000Y-87524259D01*
X161155000Y-87450000D01*
X163111928Y-87450000D01*
X163115000Y-87614250D01*
X163273750Y-87773000D01*
X164023000Y-87773000D01*
X164023000Y-86973750D01*
X163864250Y-86815000D01*
X163750000Y-86811928D01*
X163625518Y-86824188D01*
X163505820Y-86860498D01*
X163395506Y-86919463D01*
X163298815Y-86998815D01*
X163219463Y-87095506D01*
X163160498Y-87205820D01*
X163124188Y-87325518D01*
X163111928Y-87450000D01*
X161155000Y-87450000D01*
X161155000Y-84458461D01*
X161208405Y-84393387D01*
X161290472Y-84239851D01*
X161341008Y-84073255D01*
X161358072Y-83900001D01*
X161358072Y-83249999D01*
X161341008Y-83076745D01*
X161290472Y-82910149D01*
X161208405Y-82756613D01*
X161097962Y-82622038D01*
X161010184Y-82550000D01*
X161097962Y-82477962D01*
X161208405Y-82343387D01*
X161290472Y-82189851D01*
X161341008Y-82023255D01*
X161358072Y-81850001D01*
X161358072Y-81199999D01*
X161341008Y-81026745D01*
X161290472Y-80860149D01*
X161208405Y-80706613D01*
X161155000Y-80641539D01*
X161155000Y-79210131D01*
X169673146Y-70691987D01*
X169716449Y-70656449D01*
X169858284Y-70483623D01*
X169963676Y-70286447D01*
X170028577Y-70072499D01*
X170045000Y-69905752D01*
X170050491Y-69850000D01*
X170045000Y-69794248D01*
X170045000Y-66924284D01*
X170180000Y-66722241D01*
X170315000Y-66924284D01*
G37*
X170315000Y-66924284D02*
X170315001Y-70649867D01*
X165606865Y-75358004D01*
X165563551Y-75393551D01*
X165421716Y-75566377D01*
X165330812Y-75736448D01*
X165316324Y-75763554D01*
X165251423Y-75977502D01*
X165229509Y-76200000D01*
X165235000Y-76255752D01*
X165235001Y-80641538D01*
X165181595Y-80706613D01*
X165099528Y-80860149D01*
X165048992Y-81026745D01*
X165031928Y-81199999D01*
X165031928Y-81850001D01*
X165048992Y-82023255D01*
X165099528Y-82189851D01*
X165181595Y-82343387D01*
X165292038Y-82477962D01*
X165379816Y-82550000D01*
X165292038Y-82622038D01*
X165181595Y-82756613D01*
X165099528Y-82910149D01*
X165048992Y-83076745D01*
X165031928Y-83249999D01*
X165031928Y-83900001D01*
X165048992Y-84073255D01*
X165099528Y-84239851D01*
X165181595Y-84393387D01*
X165235000Y-84458461D01*
X165235001Y-86969118D01*
X165198815Y-86998815D01*
X165119463Y-87095506D01*
X165100000Y-87131918D01*
X165080537Y-87095506D01*
X165001185Y-86998815D01*
X164904494Y-86919463D01*
X164794180Y-86860498D01*
X164674482Y-86824188D01*
X164550000Y-86811928D01*
X164435750Y-86815000D01*
X164277000Y-86973750D01*
X164277000Y-87773000D01*
X164297000Y-87773000D01*
X164297000Y-88027000D01*
X164277000Y-88027000D01*
X164277000Y-88826250D01*
X164361607Y-88910857D01*
X164345506Y-88919463D01*
X164248815Y-88998815D01*
X164169463Y-89095506D01*
X164110498Y-89205820D01*
X164074188Y-89325518D01*
X164063816Y-89430828D01*
X164046324Y-89463554D01*
X163981423Y-89677502D01*
X163965000Y-89844249D01*
X163965001Y-94284892D01*
X163946525Y-94303368D01*
X163784010Y-94546589D01*
X163672068Y-94816842D01*
X163615000Y-95103740D01*
X163615000Y-95396260D01*
X163672068Y-95683158D01*
X163784010Y-95953411D01*
X163946525Y-96196632D01*
X164078380Y-96328487D01*
X164005820Y-96350498D01*
X163895506Y-96409463D01*
X163798815Y-96488815D01*
X163719463Y-96585506D01*
X163660498Y-96695820D01*
X163624188Y-96815518D01*
X163611928Y-96940000D01*
X163611928Y-97105572D01*
X163582148Y-97161286D01*
X163488657Y-97469485D01*
X163465000Y-97709679D01*
X163465001Y-106315000D01*
X160385000Y-106315000D01*
X160385000Y-97709678D01*
X160361343Y-97469484D01*
X160267852Y-97161285D01*
X160238072Y-97105571D01*
X160238072Y-96940000D01*
X160225812Y-96815518D01*
X160189502Y-96695820D01*
X160130537Y-96585506D01*
X160051185Y-96488815D01*
X159954494Y-96409463D01*
X159844180Y-96350498D01*
X159771620Y-96328487D01*
X159903475Y-96196632D01*
X160065990Y-95953411D01*
X160177932Y-95683158D01*
X160235000Y-95396260D01*
X160235000Y-95103740D01*
X160177932Y-94816842D01*
X160065990Y-94546589D01*
X159903475Y-94303368D01*
X159885000Y-94284893D01*
X159885000Y-89844248D01*
X159868577Y-89677501D01*
X159803676Y-89463553D01*
X159786184Y-89430827D01*
X159775812Y-89325518D01*
X159739502Y-89205820D01*
X159680537Y-89095506D01*
X159629706Y-89033568D01*
X159700000Y-89040491D01*
X159922498Y-89018577D01*
X160023059Y-88988072D01*
X160100000Y-88988072D01*
X160224482Y-88975812D01*
X160344180Y-88939502D01*
X160454494Y-88880537D01*
X160551185Y-88801185D01*
X160630537Y-88704494D01*
X160689502Y-88594180D01*
X160723706Y-88481425D01*
X160783135Y-88421996D01*
X160826449Y-88386449D01*
X160856361Y-88350000D01*
X163111928Y-88350000D01*
X163124188Y-88474482D01*
X163160498Y-88594180D01*
X163219463Y-88704494D01*
X163298815Y-88801185D01*
X163395506Y-88880537D01*
X163505820Y-88939502D01*
X163625518Y-88975812D01*
X163750000Y-88988072D01*
X163864250Y-88985000D01*
X164023000Y-88826250D01*
X164023000Y-88027000D01*
X163273750Y-88027000D01*
X163115000Y-88185750D01*
X163111928Y-88350000D01*
X160856361Y-88350000D01*
X160968284Y-88213623D01*
X161073676Y-88016447D01*
X161138577Y-87802499D01*
X161155000Y-87635752D01*
X161155000Y-87635743D01*
X161160490Y-87580001D01*
X161155000Y-87524259D01*
X161155000Y-87450000D01*
X163111928Y-87450000D01*
X163115000Y-87614250D01*
X163273750Y-87773000D01*
X164023000Y-87773000D01*
X164023000Y-86973750D01*
X163864250Y-86815000D01*
X163750000Y-86811928D01*
X163625518Y-86824188D01*
X163505820Y-86860498D01*
X163395506Y-86919463D01*
X163298815Y-86998815D01*
X163219463Y-87095506D01*
X163160498Y-87205820D01*
X163124188Y-87325518D01*
X163111928Y-87450000D01*
X161155000Y-87450000D01*
X161155000Y-84458461D01*
X161208405Y-84393387D01*
X161290472Y-84239851D01*
X161341008Y-84073255D01*
X161358072Y-83900001D01*
X161358072Y-83249999D01*
X161341008Y-83076745D01*
X161290472Y-82910149D01*
X161208405Y-82756613D01*
X161097962Y-82622038D01*
X161010184Y-82550000D01*
X161097962Y-82477962D01*
X161208405Y-82343387D01*
X161290472Y-82189851D01*
X161341008Y-82023255D01*
X161358072Y-81850001D01*
X161358072Y-81199999D01*
X161341008Y-81026745D01*
X161290472Y-80860149D01*
X161208405Y-80706613D01*
X161155000Y-80641539D01*
X161155000Y-79210131D01*
X169673146Y-70691987D01*
X169716449Y-70656449D01*
X169858284Y-70483623D01*
X169963676Y-70286447D01*
X170028577Y-70072499D01*
X170045000Y-69905752D01*
X170050491Y-69850000D01*
X170045000Y-69794248D01*
X170045000Y-66924284D01*
X170180000Y-66722241D01*
X170315000Y-66924284D01*
G36*
X167775000Y-66924284D02*
G01*
X167775001Y-69379866D01*
X159256865Y-77898004D01*
X159213551Y-77933551D01*
X159071716Y-78106377D01*
X158970238Y-78296232D01*
X158966324Y-78303554D01*
X158901423Y-78517502D01*
X158879509Y-78740000D01*
X158885000Y-78795752D01*
X158885001Y-80641538D01*
X158831595Y-80706613D01*
X158749528Y-80860149D01*
X158698992Y-81026745D01*
X158681928Y-81199999D01*
X158681928Y-81850001D01*
X158698992Y-82023255D01*
X158749528Y-82189851D01*
X158831595Y-82343387D01*
X158942038Y-82477962D01*
X159029816Y-82550000D01*
X158942038Y-82622038D01*
X158831595Y-82756613D01*
X158749528Y-82910149D01*
X158698992Y-83076745D01*
X158681928Y-83249999D01*
X158681928Y-83900001D01*
X158698992Y-84073255D01*
X158749528Y-84239851D01*
X158831595Y-84393387D01*
X158885000Y-84458461D01*
X158885001Y-86969118D01*
X158848815Y-86998815D01*
X158769463Y-87095506D01*
X158750000Y-87131918D01*
X158730537Y-87095506D01*
X158651185Y-86998815D01*
X158554494Y-86919463D01*
X158444180Y-86860498D01*
X158324482Y-86824188D01*
X158200000Y-86811928D01*
X158085750Y-86815000D01*
X157927000Y-86973750D01*
X157927000Y-87773000D01*
X157947000Y-87773000D01*
X157947000Y-88027000D01*
X157927000Y-88027000D01*
X157927000Y-88826250D01*
X158011607Y-88910857D01*
X157995506Y-88919463D01*
X157898815Y-88998815D01*
X157819463Y-89095506D01*
X157760498Y-89205820D01*
X157724188Y-89325518D01*
X157713816Y-89430828D01*
X157696324Y-89463554D01*
X157631423Y-89677502D01*
X157615000Y-89844249D01*
X157615001Y-94284892D01*
X157596525Y-94303368D01*
X157434010Y-94546589D01*
X157322068Y-94816842D01*
X157265000Y-95103740D01*
X157265000Y-95396260D01*
X157322068Y-95683158D01*
X157434010Y-95953411D01*
X157596525Y-96196632D01*
X157728380Y-96328487D01*
X157655820Y-96350498D01*
X157545506Y-96409463D01*
X157448815Y-96488815D01*
X157369463Y-96585506D01*
X157310498Y-96695820D01*
X157274188Y-96815518D01*
X157261928Y-96940000D01*
X157261928Y-97105572D01*
X157232148Y-97161286D01*
X157138657Y-97469485D01*
X157115000Y-97709679D01*
X157115001Y-106315000D01*
X154035000Y-106315000D01*
X154035000Y-97870321D01*
X154042911Y-97790000D01*
X154011343Y-97469484D01*
X153917852Y-97161285D01*
X153888072Y-97105571D01*
X153888072Y-96940000D01*
X153875812Y-96815518D01*
X153839502Y-96695820D01*
X153780537Y-96585506D01*
X153701185Y-96488815D01*
X153604494Y-96409463D01*
X153494180Y-96350498D01*
X153421620Y-96328487D01*
X153553475Y-96196632D01*
X153715990Y-95953411D01*
X153827932Y-95683158D01*
X153885000Y-95396260D01*
X153885000Y-95103740D01*
X153827932Y-94816842D01*
X153715990Y-94546589D01*
X153553475Y-94303368D01*
X153535000Y-94284893D01*
X153535000Y-89844248D01*
X153518577Y-89677501D01*
X153453676Y-89463553D01*
X153436184Y-89430827D01*
X153425812Y-89325518D01*
X153389502Y-89205820D01*
X153330537Y-89095506D01*
X153279706Y-89033568D01*
X153350000Y-89040491D01*
X153572498Y-89018577D01*
X153673059Y-88988072D01*
X153750000Y-88988072D01*
X153874482Y-88975812D01*
X153994180Y-88939502D01*
X154104494Y-88880537D01*
X154201185Y-88801185D01*
X154280537Y-88704494D01*
X154339502Y-88594180D01*
X154373706Y-88481425D01*
X154433135Y-88421996D01*
X154476449Y-88386449D01*
X154506361Y-88350000D01*
X156761928Y-88350000D01*
X156774188Y-88474482D01*
X156810498Y-88594180D01*
X156869463Y-88704494D01*
X156948815Y-88801185D01*
X157045506Y-88880537D01*
X157155820Y-88939502D01*
X157275518Y-88975812D01*
X157400000Y-88988072D01*
X157514250Y-88985000D01*
X157673000Y-88826250D01*
X157673000Y-88027000D01*
X156923750Y-88027000D01*
X156765000Y-88185750D01*
X156761928Y-88350000D01*
X154506361Y-88350000D01*
X154618284Y-88213623D01*
X154723676Y-88016447D01*
X154788577Y-87802499D01*
X154805000Y-87635752D01*
X154805000Y-87635743D01*
X154810490Y-87580001D01*
X154805000Y-87524259D01*
X154805000Y-87450000D01*
X156761928Y-87450000D01*
X156765000Y-87614250D01*
X156923750Y-87773000D01*
X157673000Y-87773000D01*
X157673000Y-86973750D01*
X157514250Y-86815000D01*
X157400000Y-86811928D01*
X157275518Y-86824188D01*
X157155820Y-86860498D01*
X157045506Y-86919463D01*
X156948815Y-86998815D01*
X156869463Y-87095506D01*
X156810498Y-87205820D01*
X156774188Y-87325518D01*
X156761928Y-87450000D01*
X154805000Y-87450000D01*
X154805000Y-84213461D01*
X154858405Y-84148387D01*
X154940472Y-83994851D01*
X154991008Y-83828255D01*
X155008072Y-83655001D01*
X155008072Y-83004999D01*
X154991008Y-82831745D01*
X154940472Y-82665149D01*
X154858405Y-82511613D01*
X154747962Y-82377038D01*
X154660184Y-82305000D01*
X154747962Y-82232962D01*
X154858405Y-82098387D01*
X154940472Y-81944851D01*
X154991008Y-81778255D01*
X155008072Y-81605001D01*
X155008072Y-80954999D01*
X154991008Y-80781745D01*
X154940472Y-80615149D01*
X154858405Y-80461613D01*
X154805000Y-80396539D01*
X154805000Y-77335000D01*
X158694249Y-77335000D01*
X158750000Y-77340491D01*
X158805751Y-77335000D01*
X158805752Y-77335000D01*
X158972499Y-77318577D01*
X159186447Y-77253676D01*
X159383623Y-77148284D01*
X159556449Y-77006449D01*
X159591996Y-76963135D01*
X167133141Y-69421991D01*
X167176449Y-69386449D01*
X167318284Y-69213623D01*
X167423676Y-69016447D01*
X167488577Y-68802499D01*
X167505000Y-68635752D01*
X167505000Y-68635743D01*
X167510490Y-68580001D01*
X167505000Y-68524259D01*
X167505000Y-66924284D01*
X167640000Y-66722241D01*
X167775000Y-66924284D01*
G37*
X167775000Y-66924284D02*
X167775001Y-69379866D01*
X159256865Y-77898004D01*
X159213551Y-77933551D01*
X159071716Y-78106377D01*
X158970238Y-78296232D01*
X158966324Y-78303554D01*
X158901423Y-78517502D01*
X158879509Y-78740000D01*
X158885000Y-78795752D01*
X158885001Y-80641538D01*
X158831595Y-80706613D01*
X158749528Y-80860149D01*
X158698992Y-81026745D01*
X158681928Y-81199999D01*
X158681928Y-81850001D01*
X158698992Y-82023255D01*
X158749528Y-82189851D01*
X158831595Y-82343387D01*
X158942038Y-82477962D01*
X159029816Y-82550000D01*
X158942038Y-82622038D01*
X158831595Y-82756613D01*
X158749528Y-82910149D01*
X158698992Y-83076745D01*
X158681928Y-83249999D01*
X158681928Y-83900001D01*
X158698992Y-84073255D01*
X158749528Y-84239851D01*
X158831595Y-84393387D01*
X158885000Y-84458461D01*
X158885001Y-86969118D01*
X158848815Y-86998815D01*
X158769463Y-87095506D01*
X158750000Y-87131918D01*
X158730537Y-87095506D01*
X158651185Y-86998815D01*
X158554494Y-86919463D01*
X158444180Y-86860498D01*
X158324482Y-86824188D01*
X158200000Y-86811928D01*
X158085750Y-86815000D01*
X157927000Y-86973750D01*
X157927000Y-87773000D01*
X157947000Y-87773000D01*
X157947000Y-88027000D01*
X157927000Y-88027000D01*
X157927000Y-88826250D01*
X158011607Y-88910857D01*
X157995506Y-88919463D01*
X157898815Y-88998815D01*
X157819463Y-89095506D01*
X157760498Y-89205820D01*
X157724188Y-89325518D01*
X157713816Y-89430828D01*
X157696324Y-89463554D01*
X157631423Y-89677502D01*
X157615000Y-89844249D01*
X157615001Y-94284892D01*
X157596525Y-94303368D01*
X157434010Y-94546589D01*
X157322068Y-94816842D01*
X157265000Y-95103740D01*
X157265000Y-95396260D01*
X157322068Y-95683158D01*
X157434010Y-95953411D01*
X157596525Y-96196632D01*
X157728380Y-96328487D01*
X157655820Y-96350498D01*
X157545506Y-96409463D01*
X157448815Y-96488815D01*
X157369463Y-96585506D01*
X157310498Y-96695820D01*
X157274188Y-96815518D01*
X157261928Y-96940000D01*
X157261928Y-97105572D01*
X157232148Y-97161286D01*
X157138657Y-97469485D01*
X157115000Y-97709679D01*
X157115001Y-106315000D01*
X154035000Y-106315000D01*
X154035000Y-97870321D01*
X154042911Y-97790000D01*
X154011343Y-97469484D01*
X153917852Y-97161285D01*
X153888072Y-97105571D01*
X153888072Y-96940000D01*
X153875812Y-96815518D01*
X153839502Y-96695820D01*
X153780537Y-96585506D01*
X153701185Y-96488815D01*
X153604494Y-96409463D01*
X153494180Y-96350498D01*
X153421620Y-96328487D01*
X153553475Y-96196632D01*
X153715990Y-95953411D01*
X153827932Y-95683158D01*
X153885000Y-95396260D01*
X153885000Y-95103740D01*
X153827932Y-94816842D01*
X153715990Y-94546589D01*
X153553475Y-94303368D01*
X153535000Y-94284893D01*
X153535000Y-89844248D01*
X153518577Y-89677501D01*
X153453676Y-89463553D01*
X153436184Y-89430827D01*
X153425812Y-89325518D01*
X153389502Y-89205820D01*
X153330537Y-89095506D01*
X153279706Y-89033568D01*
X153350000Y-89040491D01*
X153572498Y-89018577D01*
X153673059Y-88988072D01*
X153750000Y-88988072D01*
X153874482Y-88975812D01*
X153994180Y-88939502D01*
X154104494Y-88880537D01*
X154201185Y-88801185D01*
X154280537Y-88704494D01*
X154339502Y-88594180D01*
X154373706Y-88481425D01*
X154433135Y-88421996D01*
X154476449Y-88386449D01*
X154506361Y-88350000D01*
X156761928Y-88350000D01*
X156774188Y-88474482D01*
X156810498Y-88594180D01*
X156869463Y-88704494D01*
X156948815Y-88801185D01*
X157045506Y-88880537D01*
X157155820Y-88939502D01*
X157275518Y-88975812D01*
X157400000Y-88988072D01*
X157514250Y-88985000D01*
X157673000Y-88826250D01*
X157673000Y-88027000D01*
X156923750Y-88027000D01*
X156765000Y-88185750D01*
X156761928Y-88350000D01*
X154506361Y-88350000D01*
X154618284Y-88213623D01*
X154723676Y-88016447D01*
X154788577Y-87802499D01*
X154805000Y-87635752D01*
X154805000Y-87635743D01*
X154810490Y-87580001D01*
X154805000Y-87524259D01*
X154805000Y-87450000D01*
X156761928Y-87450000D01*
X156765000Y-87614250D01*
X156923750Y-87773000D01*
X157673000Y-87773000D01*
X157673000Y-86973750D01*
X157514250Y-86815000D01*
X157400000Y-86811928D01*
X157275518Y-86824188D01*
X157155820Y-86860498D01*
X157045506Y-86919463D01*
X156948815Y-86998815D01*
X156869463Y-87095506D01*
X156810498Y-87205820D01*
X156774188Y-87325518D01*
X156761928Y-87450000D01*
X154805000Y-87450000D01*
X154805000Y-84213461D01*
X154858405Y-84148387D01*
X154940472Y-83994851D01*
X154991008Y-83828255D01*
X155008072Y-83655001D01*
X155008072Y-83004999D01*
X154991008Y-82831745D01*
X154940472Y-82665149D01*
X154858405Y-82511613D01*
X154747962Y-82377038D01*
X154660184Y-82305000D01*
X154747962Y-82232962D01*
X154858405Y-82098387D01*
X154940472Y-81944851D01*
X154991008Y-81778255D01*
X155008072Y-81605001D01*
X155008072Y-80954999D01*
X154991008Y-80781745D01*
X154940472Y-80615149D01*
X154858405Y-80461613D01*
X154805000Y-80396539D01*
X154805000Y-77335000D01*
X158694249Y-77335000D01*
X158750000Y-77340491D01*
X158805751Y-77335000D01*
X158805752Y-77335000D01*
X158972499Y-77318577D01*
X159186447Y-77253676D01*
X159383623Y-77148284D01*
X159556449Y-77006449D01*
X159591996Y-76963135D01*
X167133141Y-69421991D01*
X167176449Y-69386449D01*
X167318284Y-69213623D01*
X167423676Y-69016447D01*
X167488577Y-68802499D01*
X167505000Y-68635752D01*
X167505000Y-68635743D01*
X167510490Y-68580001D01*
X167505000Y-68524259D01*
X167505000Y-66924284D01*
X167640000Y-66722241D01*
X167775000Y-66924284D01*
M02*
