M48
; DRILL file {KiCad 5.1.5-52549c5~86~ubuntu18.04.1} date Tue Apr  7 14:52:04 2020
; FORMAT={-:-/ absolute / metric / decimal}
; #@! TF.CreationDate,2020-04-07T14:52:04+01:00
; #@! TF.GenerationSoftware,Kicad,Pcbnew,5.1.5-52549c5~86~ubuntu18.04.1
FMAT,2
METRIC
T1C0.800
T2C1.000
%
G90
G05
T1
X139.45Y-66.04
X141.99Y-66.04
X144.53Y-66.04
X147.07Y-66.04
X148.59Y-114.3
X149.61Y-66.04
X151.13Y-114.3
X152.15Y-66.04
X153.67Y-114.3
X154.69Y-66.04
X156.21Y-114.3
X157.23Y-66.04
X158.75Y-114.3
X159.77Y-66.04
X161.29Y-114.3
X162.31Y-66.04
X163.83Y-114.3
X166.37Y-66.04
X166.37Y-114.3
X168.91Y-66.04
X171.45Y-66.04
X171.45Y-114.3
X173.99Y-66.04
X173.99Y-114.3
X176.53Y-66.04
X176.53Y-114.3
X179.07Y-66.04
X179.07Y-114.3
X181.61Y-66.04
X181.61Y-114.3
X184.15Y-66.04
X184.15Y-114.3
T2
X136.525Y-102.87
X142.875Y-102.87
X142.875Y-112.395
X149.225Y-102.87
X155.575Y-102.87
X161.925Y-102.87
X168.275Y-102.87
X174.625Y-102.87
X180.975Y-102.87
X184.15Y-95.25
X184.15Y-97.79
X165.1Y-95.25
X165.1Y-97.79
X146.05Y-95.25
X146.05Y-97.79
X152.4Y-95.25
X152.4Y-97.79
X125.095Y-88.265
X127.635Y-88.265
X177.8Y-95.25
X177.8Y-97.79
X133.35Y-95.25
X133.35Y-97.79
X171.45Y-95.25
X171.45Y-97.79
X125.095Y-93.98
X127.635Y-93.98
X135.255Y-74.93
X137.795Y-74.93
X158.75Y-95.25
X158.75Y-97.79
X135.255Y-71.12
X137.795Y-71.12
X139.7Y-95.25
X139.7Y-97.79
T0
M30
