M48
; DRILL file {KiCad 5.1.5-52549c5~84~ubuntu18.04.1} date Mon Mar 23 11:10:11 2020
; FORMAT={-:-/ absolute / metric / decimal}
; #@! TF.CreationDate,2020-03-23T11:10:11+00:00
; #@! TF.GenerationSoftware,Kicad,Pcbnew,5.1.5-52549c5~84~ubuntu18.04.1
FMAT,2
METRIC
T1C0.800
T2C1.000
%
G90
G05
T1
X139.45Y-66.04
X141.99Y-66.04
X144.53Y-66.04
X147.07Y-66.04
X148.59Y-114.3
X149.61Y-66.04
X151.13Y-114.3
X152.15Y-66.04
X153.67Y-114.3
X154.69Y-66.04
X156.21Y-114.3
X157.23Y-66.04
X158.75Y-114.3
X159.77Y-66.04
X161.29Y-114.3
X162.31Y-66.04
X163.83Y-114.3
X166.37Y-66.04
X166.37Y-114.3
X168.91Y-66.04
X171.45Y-66.04
X171.45Y-114.3
X173.99Y-66.04
X173.99Y-114.3
X176.53Y-66.04
X176.53Y-114.3
X179.07Y-66.04
X179.07Y-114.3
X181.61Y-66.04
X181.61Y-114.3
X184.15Y-66.04
X184.15Y-114.3
T2
X148.59Y-102.87
X155.575Y-102.87
X161.925Y-102.87
X168.275Y-102.87
X174.625Y-102.87
X180.975Y-102.87
X184.15Y-95.25
X184.15Y-97.79
X152.4Y-95.25
X152.4Y-97.79
X143.51Y-72.39
X146.05Y-72.39
X123.825Y-92.075
X123.825Y-94.615
X177.8Y-95.25
X177.8Y-97.79
X166.37Y-111.125
X168.91Y-111.125
X165.1Y-95.25
X165.1Y-97.79
X143.51Y-78.31
X146.05Y-78.31
X158.75Y-95.25
X158.75Y-97.79
X128.905Y-92.075
X128.905Y-94.615
X171.45Y-95.25
X171.45Y-97.79
T0
M30
