M48
; DRILL file {KiCad 5.1.5-52549c5~84~ubuntu18.04.1} date Fri Mar 20 16:57:37 2020
; FORMAT={-:-/ absolute / inch / decimal}
; #@! TF.CreationDate,2020-03-20T16:57:37+00:00
; #@! TF.GenerationSoftware,Kicad,Pcbnew,5.1.5-52549c5~84~ubuntu18.04.1
; #@! TF.FileFunction,Plated,1,2,PTH
FMAT,2
INCH
T1C0.0315
T2C0.0394
%
G90
G05
T1
X5.4902Y-2.6
X5.5902Y-2.6
X5.6902Y-2.6
X5.7902Y-2.6
X5.85Y-4.5
X5.8902Y-2.6
X5.95Y-4.5
X5.9902Y-2.6
X6.05Y-4.5
X6.0902Y-2.6
X6.15Y-4.5
X6.1902Y-2.6
X6.25Y-4.5
X6.2902Y-2.6
X6.35Y-4.5
X6.3902Y-2.6
X6.45Y-4.5
X6.55Y-2.6
X6.55Y-4.5
X6.65Y-2.6
X6.75Y-2.6
X6.75Y-4.5
X6.85Y-2.6
X6.85Y-4.5
X6.95Y-2.6
X6.95Y-4.5
X7.05Y-2.6
X7.05Y-4.5
X7.15Y-2.6
X7.15Y-4.5
X7.25Y-2.6
X7.25Y-4.5
T2
X5.85Y-4.125
X6.125Y-4.125
X6.375Y-4.125
X6.625Y-4.125
X6.875Y-4.125
X7.125Y-4.125
X5.65Y-3.0831
X5.75Y-3.0831
X7.0Y-3.75
X7.0Y-3.85
X7.25Y-3.75
X7.25Y-3.85
X6.25Y-3.75
X6.25Y-3.85
X6.75Y-3.75
X6.75Y-3.85
X5.65Y-2.85
X5.75Y-2.85
X6.0Y-3.75
X6.0Y-3.85
X6.5Y-3.75
X6.5Y-3.85
T0
M30
