<?xml version="1.0" standalone="no"?>
<!DOCTYPE svg PUBLIC "-//W3C//DTD SVG 1.1//EN"
"http://www.w3.org/Graphics/SVG/1.1/DTD/svg11.dtd">
<svg width="260.296" height="202.696" viewBox="0 0 5422.83 4222.83" version="1.1"
xmlns="http://www.w3.org/2000/svg"
xmlns:xlink="http://www.w3.org/1999/xlink">
<circle cx="261.417" cy="2461.42" r="31.4961" style=""/>
<circle cx="261.417" cy="2261.42" r="31.4961" style=""/>
<circle cx="661.417" cy="2461.42" r="31.4961" style=""/>
<circle cx="661.417" cy="2261.42" r="31.4961" style=""/>
<circle cx="1811.42" cy="1177.56" r="31.4961" style=""/>
<circle cx="2011.42" cy="1177.56" r="31.4961" style=""/>
<circle cx="2011.42" cy="711.417" r="31.4961" style=""/>
<circle cx="1811.42" cy="711.417" r="31.4961" style=""/>
<circle cx="1491.73" cy="211.417" r="31.4961" style=""/>
<circle cx="1691.73" cy="211.417" r="31.4961" style=""/>
<circle cx="1891.73" cy="211.417" r="31.4961" style=""/>
<circle cx="2091.73" cy="211.417" r="31.4961" style=""/>
<circle cx="2291.73" cy="211.417" r="31.4961" style=""/>
<circle cx="2491.73" cy="211.417" r="31.4961" style=""/>
<circle cx="2691.73" cy="211.417" r="31.4961" style=""/>
<circle cx="2891.73" cy="211.417" r="31.4961" style=""/>
<circle cx="3091.73" cy="211.417" r="31.4961" style=""/>
<circle cx="3291.73" cy="211.417" r="31.4961" style=""/>
<circle cx="3611.42" cy="211.417" r="31.4961" style=""/>
<circle cx="3811.42" cy="211.417" r="31.4961" style=""/>
<circle cx="4011.42" cy="211.417" r="31.4961" style=""/>
<circle cx="4211.42" cy="211.417" r="31.4961" style=""/>
<circle cx="4411.42" cy="211.417" r="31.4961" style=""/>
<circle cx="4611.42" cy="211.417" r="31.4961" style=""/>
<circle cx="4811.42" cy="211.417" r="31.4961" style=""/>
<circle cx="5011.42" cy="211.417" r="31.4961" style=""/>
<circle cx="5011.42" cy="2511.42" r="31.4961" style=""/>
<circle cx="5011.42" cy="2711.42" r="31.4961" style=""/>
<circle cx="4511.42" cy="2511.42" r="31.4961" style=""/>
<circle cx="4511.42" cy="2711.42" r="31.4961" style=""/>
<circle cx="4761.42" cy="3111.42" r="31.4961" style=""/>
<circle cx="4261.42" cy="3111.42" r="31.4961" style=""/>
<circle cx="5011.42" cy="4011.42" r="31.4961" style=""/>
<circle cx="4811.42" cy="4011.42" r="31.4961" style=""/>
<circle cx="4611.42" cy="4011.42" r="31.4961" style=""/>
<circle cx="4411.42" cy="4011.42" r="31.4961" style=""/>
<circle cx="4211.42" cy="4011.42" r="31.4961" style=""/>
<circle cx="4011.42" cy="4011.42" r="31.4961" style=""/>
<circle cx="3811.42" cy="3761.42" r="31.4961" style=""/>
<circle cx="3611.42" cy="3761.42" r="31.4961" style=""/>
<circle cx="3611.42" cy="4011.42" r="31.4961" style=""/>
<circle cx="3411.42" cy="4011.42" r="31.4961" style=""/>
<circle cx="3211.42" cy="4011.42" r="31.4961" style=""/>
<circle cx="3011.42" cy="4011.42" r="31.4961" style=""/>
<circle cx="2811.42" cy="4011.42" r="31.4961" style=""/>
<circle cx="2611.42" cy="4011.42" r="31.4961" style=""/>
<circle cx="2411.42" cy="4011.42" r="31.4961" style=""/>
<circle cx="2211.42" cy="4011.42" r="31.4961" style=""/>
<circle cx="2211.42" cy="3111.42" r="31.4961" style=""/>
<circle cx="2511.42" cy="2511.42" r="31.4961" style=""/>
<circle cx="2511.42" cy="2711.42" r="31.4961" style=""/>
<circle cx="2761.42" cy="3111.42" r="31.4961" style=""/>
<circle cx="3011.42" cy="2711.42" r="31.4961" style=""/>
<circle cx="3011.42" cy="2511.42" r="31.4961" style=""/>
<circle cx="3511.42" cy="2511.42" r="31.4961" style=""/>
<circle cx="4011.42" cy="2511.42" r="31.4961" style=""/>
<circle cx="4011.42" cy="2711.42" r="31.4961" style=""/>
<circle cx="3761.42" cy="3111.42" r="31.4961" style=""/>
<circle cx="3511.42" cy="2711.42" r="31.4961" style=""/>
<circle cx="3261.42" cy="3111.42" r="31.4961" style=""/>
</svg>
