<?xml version="1.0" standalone="no"?>
<!DOCTYPE svg PUBLIC "-//W3C//DTD SVG 1.1//EN"
"http://www.w3.org/Graphics/SVG/1.1/DTD/svg11.dtd">
<svg width="260.296" height="202.696" viewBox="0 0 5422.83 4222.83" version="1.1"
xmlns="http://www.w3.org/2000/svg"
xmlns:xlink="http://www.w3.org/1999/xlink">
<g fill-rule="evenodd"><path d="M 1.81899e-12,4222.83 L 1.81899e-12,0 L 5422.83,0 L 5422.83,4222.83 L 1.81899e-12,4222.83 z " style="fill-opacity:0.200000;fill:rgb(103,198,105);"/></g>
<polyline points="6.69132,4211.42 6.69132,11.4173 6.78332,10.4953 7.05132,9.60932 7.48732,8.79132 8.07532,8.07532 8.79132,7.48732 9.60932,7.05132 10.4953,6.78332 11.4173,6.69132 5061.42,6.69132 5062.34,6.78332 5063.22,7.05132 5064.04,7.48732 5064.76,8.07532 5214.76,158.075 5215.35,158.791 5215.78,159.609 5216.05,160.495 5216.14,161.417 5216.14,1009.46 5414.76,1208.08 5415.35,1208.79 5415.78,1209.61 5416.05,1210.5 5416.14,1211.42 5416.14,3811.42 5416.05,3812.34 5415.78,3813.22 5415.35,3814.04 5414.76,3814.76 5216.14,4013.37 5216.14,4211.42 5216.05,4212.34 5215.78,4213.22 5215.35,4214.04 5214.76,4214.76 5214.04,4215.35 5213.22,4215.78 5212.34,4216.05 5211.42,4216.14 11.4173,4216.14 10.4953,4216.05 9.60932,4215.78 8.79132,4215.35 8.07532,4214.76 7.48732,4214.04 7.05132,4213.22 6.78332,4212.34 6.69132,4211.42" style="stroke:rgb(103,198,105);stroke-width:9.448819;fill:none;stroke-opacity:0.5;stroke-linecap:round;stroke-linejoin:round;;fill:none"/>
<polyline points="6.69132,4211.42 6.69132,11.4173 6.78332,10.4953 7.05132,9.60932 7.48732,8.79132 8.07532,8.07532 8.79132,7.48732 9.60932,7.05132 10.4953,6.78332 11.4173,6.69132 5061.42,6.69132 5062.34,6.78332 5063.22,7.05132 5064.04,7.48732 5064.76,8.07532 5214.76,158.075 5215.35,158.791 5215.78,159.609 5216.05,160.495 5216.14,161.417 5216.14,1009.46 5414.76,1208.08 5415.35,1208.79 5415.78,1209.61 5416.05,1210.5 5416.14,1211.42 5416.14,3811.42 5416.05,3812.34 5415.78,3813.22 5415.35,3814.04 5414.76,3814.76 5216.14,4013.37 5216.14,4211.42 5216.05,4212.34 5215.78,4213.22 5215.35,4214.04 5214.76,4214.76 5214.04,4215.35 5213.22,4215.78 5212.34,4216.05 5211.42,4216.14 11.4173,4216.14 10.4953,4216.05 9.60932,4215.78 8.79132,4215.35 8.07532,4214.76 7.48732,4214.04 7.05132,4213.22 6.78332,4212.34 6.69132,4211.42" style="stroke:rgb(0,0,0);stroke-width:1px;fill:none;stroke-opacity:1;stroke-linecap:round;stroke-linejoin:round;;fill:none"/>
<g fill-rule="evenodd"><path d="M 11.4173,4211.42 L 11.4173,11.4173 L 5061.42,11.4173 L 5211.42,161.417 L 5211.42,1011.42 L 5411.42,1211.42 L 5411.42,3811.42 L 5211.42,4011.42 L 5211.42,4211.42 L 11.4173,4211.42 z " style="fill-opacity:1.000000;fill:rgb(103,198,105);stroke:rgb(0,0,0);stroke-width:2"/></g>
</svg>
